<svg width="7" height="7" viewBox="0 0 7 7" fill="none" xmlns="http://www.w3.org/2000/svg">
<path fill-rule="evenodd" clip-rule="evenodd" d="M1.19556 0C0.919414 0 0.695557 0.223858 0.695557 0.5C0.695557 0.776142 0.919414 1 1.19556 1H4.85826L0.146447 5.71182C-0.0488155 5.90708 -0.0488155 6.22366 0.146447 6.41892C0.341709 6.61418 0.658291 6.61418 0.853553 6.41892L5.56519 1.70728V5.36964C5.56519 5.64578 5.78905 5.86964 6.06519 5.86964C6.34133 5.86964 6.56519 5.64578 6.56519 5.36964V0.5C6.56519 0.367392 6.51251 0.240215 6.41875 0.146447C6.32498 0.0526785 6.1978 0 6.06519 0H1.19556Z" fill="#A4123F"/>
</svg>
