<svg width="308" height="88" viewBox="0 0 308 88" fill="none" xmlns="http://www.w3.org/2000/svg">
<path fill-rule="evenodd" clip-rule="evenodd" d="M46.0191 9.64587C52.2469 9.63369 58.3383 11.4701 63.5216 14.9225C68.7049 18.3749 72.7471 23.288 75.136 29.0394C77.5249 34.7908 78.1531 41.1219 76.9411 47.2307C75.7291 53.3394 72.7314 58.9511 68.3277 63.3548C63.9239 67.7586 58.3123 70.7563 52.2035 71.9683C46.0947 73.1803 39.7637 72.5521 34.0122 70.1631C28.2608 67.7742 23.3477 63.7321 19.8953 58.5488C16.4429 53.3654 14.6065 47.2741 14.6187 41.0463C14.6512 32.7284 17.9698 24.7604 23.8515 18.8787C29.7332 12.997 37.7012 9.67832 46.0191 9.64587" fill="#ED1C24"/>
<path d="M31.89 10.6933V10.8986L31.8695 10.6317L32.1775 10.4884V10.2415C32.1775 10.2415 32.0338 9.89235 31.8489 9.42C31.6641 8.94767 31.5614 8.74231 31.3971 8.41373L31.3971 8.41371C31.1096 7.73601 30.9453 7.38689 30.9453 7.38689H30.74C30.5358 7.47051 30.3369 7.56653 30.1444 7.6744C30.1444 7.6744 30.0006 7.6744 30.0006 7.77708C30.0464 7.93753 30.1012 8.09524 30.1649 8.24942H29.939C29.7953 7.92084 29.6721 7.65386 29.5488 7.42796L31.048 7.01723L32.7936 6.13416C32.7936 6.38059 32.9785 6.66811 33.1017 6.97615H32.8758C32.8129 6.81582 32.7301 6.66402 32.6293 6.52435C32.3489 6.61671 32.0746 6.72645 31.8079 6.85293C31.7957 6.90008 31.7957 6.94955 31.8079 6.99669L32.5472 8.72176L32.9784 9.62537C32.9784 9.62537 33.0811 9.78966 33.1222 9.78966C33.1633 9.78966 33.307 9.78966 33.5535 9.66644V9.89235L32.7525 10.2209L32.1775 10.4884V10.529L31.89 10.6933Z" fill="#231F20"/>
<path d="M26.9407 13.3425L27.0639 13.5479L27.6184 13.1166C27.8042 13.0033 27.9962 12.9004 28.1934 12.8085L28.0702 12.6032C27.9553 12.6701 27.8305 12.7186 27.7006 12.7469C27.5804 12.621 27.4831 12.475 27.413 12.3157L26.8791 11.371L26.3451 10.4263L27.5773 10.9192C28.5631 11.2888 29.3846 11.5969 30.0623 11.8228L30.5141 11.679C30.3498 11.4326 30.206 11.1656 30.0417 10.8986L29.5078 9.91288L28.9738 8.92713C28.903 8.80875 28.8412 8.68518 28.789 8.55747V8.41371L29.097 8.18781L28.9944 7.98245L28.4193 8.43425L27.8854 8.70123L28.0086 8.90659L28.3577 8.76284L28.5631 9.02981C28.7274 9.29678 28.8917 9.60483 29.097 9.97449L29.631 10.9397C29.2819 10.8165 28.8301 10.6727 28.3167 10.4674L26.263 9.60483L25.8112 9.87181L25.2156 10.1799L25.3389 10.3852C25.467 10.3152 25.6057 10.2666 25.7496 10.2415C25.8606 10.4002 25.9504 10.5728 26.0166 10.7549L26.5916 11.7817C26.7148 11.9665 26.8586 12.2746 27.0639 12.6648C27.1541 12.7971 27.2234 12.9426 27.2693 13.096C27.1764 13.1983 27.0649 13.2819 26.9407 13.3425Z" fill="#231F20"/>
<path d="M24.4147 15.4783L24.5174 15.6015V15.622C24.7638 15.3961 25.0308 15.1908 25.2772 15.047L25.8933 14.5747L26.3657 14.205L26.7353 13.897C26.5478 13.6409 26.3763 13.3734 26.2219 13.096L26.0371 13.2398C26.1287 13.4203 26.211 13.6053 26.2835 13.7943C26.0849 13.9942 25.8721 14.1795 25.6469 14.3488L25.3183 14.6158C25.1335 14.4104 24.8665 14.1023 24.5379 13.6711L24.3736 13.4452L24.6406 13.1987C24.7979 13.0632 24.9702 12.9461 25.154 12.8496C25.2681 12.9402 25.3715 13.0436 25.4621 13.1577L25.6469 13.0139L25.2567 12.521L24.887 12.0281L24.7022 12.2746L24.887 12.5826L24.4558 12.8291L24.004 13.1577L23.203 12.0487C23.334 11.9255 23.4711 11.809 23.6138 11.6996C23.7932 11.5425 23.9937 11.4111 24.2093 11.3094H24.3326C24.4508 11.4032 24.5546 11.5139 24.6406 11.638L24.8049 11.4942L24.3736 10.796C24.2413 10.8636 24.1173 10.9463 24.004 11.0424L22.8129 12.0076L21.9709 12.6237L22.1146 12.8085C22.2238 12.7174 22.3492 12.6477 22.4843 12.6032C22.5253 12.6032 22.6691 12.7469 22.6691 12.7469L23.4495 13.7121C24.0245 14.4515 24.3942 14.9443 24.5379 15.1908C24.5185 15.2945 24.4764 15.3927 24.4147 15.4783Z" fill="#231F20"/>
<path d="M20.398 19.7048L20.4101 19.7088L20.3279 19.791C20.3502 19.7623 20.3736 19.7336 20.398 19.7048L20.1636 19.6267L20.2663 19.4829C20.369 19.3802 20.4101 19.3186 20.4101 19.257C20.3495 19.1388 20.2657 19.034 20.1636 18.949L19.0957 17.9016L18.3975 17.2239L18.0894 16.9775C18.0894 16.9775 17.9457 17.0801 17.7814 17.2239L17.5966 17.0596L18.0689 16.5873L18.5618 16.0738L19.1984 16.4024L21.4164 17.1212C20.944 15.7863 20.5744 14.8211 20.3279 14.2256L20.7797 13.7121L21.2315 13.2193L21.4164 13.3836C21.2521 13.5684 21.1699 13.6711 21.1699 13.7121C21.1913 13.8014 21.2419 13.8809 21.3137 13.938C21.478 14.1229 21.786 14.4309 22.2584 14.8827L23.0182 15.6015L23.4906 16.0122C23.4906 16.0122 23.6343 16.0122 23.7986 15.7658L23.9834 15.9301L23.4084 16.5051C23.2236 16.6694 23.0182 16.8953 22.7307 17.2034L22.5664 17.0391L22.8334 16.9158C22.8727 16.8978 22.906 16.8689 22.9294 16.8325C22.9528 16.7961 22.9652 16.7537 22.9652 16.7105C22.9652 16.6672 22.9528 16.6249 22.9294 16.5885C22.906 16.5521 22.8727 16.5231 22.8334 16.5051C22.7307 16.4024 22.5253 16.1765 22.1762 15.8479L20.9646 14.6774C21.1699 15.2729 21.4574 16.0739 21.8271 17.0391C21.9709 17.4293 22.0941 17.7373 22.1968 17.9838L22.0735 18.1275L20.7797 17.6757L18.7261 16.998L18.9931 17.265L20.5744 18.7641C20.642 18.8335 20.7271 18.8832 20.8208 18.9079C20.8208 18.9079 21.0056 18.9079 21.1699 18.6615L21.3342 18.8257L20.9235 19.2159C20.698 19.3894 20.5311 19.5482 20.398 19.7048Z" fill="#231F20"/>
<path d="M17.6582 21.4544L17.5144 21.6598L17.9252 22.1937L18.1716 22.4607C18.3567 22.3663 18.5291 22.249 18.685 22.1116C18.8438 21.9685 18.9882 21.8104 19.1163 21.6393C19.4011 21.2936 19.5475 20.8545 19.527 20.4071C19.5145 20.2196 19.4601 20.0374 19.3676 19.8739C19.2752 19.7104 19.1472 19.5697 18.9931 19.4624C18.8399 19.3415 18.6538 19.2699 18.4591 19.257C18.2787 19.2354 18.0966 19.2791 17.9457 19.3802C17.7749 19.5087 17.6168 19.6531 17.4733 19.8115C17.3181 19.9792 17.146 20.1306 16.9599 20.2633C16.8664 20.2932 16.7659 20.2932 16.6724 20.2633C16.5578 20.2628 16.4477 20.2187 16.3644 20.1401C16.2888 20.0946 16.2251 20.0318 16.1787 19.9568C16.1323 19.8818 16.1044 19.7968 16.0974 19.7088C16.0884 19.6007 16.102 19.4919 16.1373 19.3894C16.1727 19.2869 16.229 19.1928 16.3028 19.1133C16.3994 18.9716 16.5255 18.8525 16.6724 18.7641L16.9599 18.7025L17.3707 18.949L17.5144 18.7641L17.1448 18.4561L16.8573 18.148L16.426 18.4561L16.1385 18.7231C15.9993 18.8827 15.8931 19.0683 15.8261 19.2693C15.7592 19.4702 15.7327 19.6824 15.7483 19.8936C15.7691 20.0572 15.8237 20.2147 15.9085 20.3561C15.9933 20.4975 16.1066 20.6198 16.2412 20.7151C16.3934 20.8236 16.5695 20.894 16.7546 20.9205C16.9148 20.9723 17.0872 20.9723 17.2474 20.9205C17.4992 20.7534 17.7272 20.5531 17.9252 20.3249C18.0688 20.1629 18.2531 20.0424 18.4591 19.9758C18.6197 19.96 18.7805 20.0039 18.9109 20.099C18.9918 20.1553 19.0594 20.2286 19.1091 20.3137C19.1587 20.3988 19.1892 20.4938 19.1984 20.5919C19.2095 20.7064 19.197 20.822 19.1617 20.9315C19.1264 21.041 19.069 21.1421 18.9931 21.2285C18.8994 21.3529 18.7888 21.4635 18.6645 21.5571C18.5613 21.6364 18.4422 21.6924 18.3153 21.7214C18.2359 21.7514 18.1483 21.7514 18.0689 21.7214L17.6582 21.4544Z" fill="#231F20"/>
<path d="M15.7688 24.5554L15.6456 24.7608L15.9947 25.0689L16.2617 25.2948C16.445 25.1908 16.6113 25.0592 16.7546 24.9046C16.9005 24.7509 17.0248 24.5782 17.1242 24.3912C17.3772 24.0182 17.4799 23.5634 17.4117 23.1179C17.3775 22.9328 17.3026 22.7576 17.1926 22.6049C17.0825 22.4522 16.9399 22.3258 16.7751 22.2348C16.6073 22.1337 16.4164 22.0772 16.2206 22.0705C16.0448 22.0953 15.8765 22.1584 15.7277 22.2554L15.2965 22.7482C15.1654 22.9294 15.0138 23.0948 14.8447 23.2411C14.759 23.3028 14.6609 23.3449 14.5572 23.3643C14.4553 23.3828 14.351 23.3828 14.2491 23.3643C14.1658 23.3239 14.094 23.2632 14.0402 23.1879C13.9864 23.1126 13.9523 23.0249 13.9411 22.9331C13.9044 22.7261 13.9485 22.5129 14.0643 22.3375C14.1528 22.185 14.2717 22.0522 14.4134 21.9473C14.497 21.8822 14.5961 21.8397 14.7009 21.8241C14.8601 21.8719 15.012 21.941 15.1527 22.0295L15.2759 21.8035C15.1316 21.7266 14.9942 21.6373 14.8652 21.5366L14.6188 21.3312C14.4601 21.4605 14.3217 21.6128 14.208 21.783C14.0769 21.9243 13.9663 22.0833 13.8795 22.2554C13.7556 22.4289 13.668 22.6257 13.6222 22.8339C13.5763 23.0421 13.573 23.2575 13.6125 23.467C13.6509 23.6264 13.7217 23.7762 13.8207 23.9069C13.9196 24.0377 14.0445 24.1466 14.1875 24.2269C14.3494 24.3218 14.5338 24.3714 14.7215 24.3706C14.8901 24.3736 15.0554 24.3233 15.1938 24.2269C15.4284 24.0371 15.6357 23.816 15.8099 23.5697C15.9261 23.3837 16.0988 23.2397 16.3028 23.159C16.3735 23.1259 16.4506 23.1088 16.5287 23.1088C16.6067 23.1088 16.6838 23.1259 16.7546 23.159C16.8413 23.2054 16.9173 23.2697 16.9774 23.3475C17.0376 23.4254 17.0806 23.5151 17.1037 23.6108C17.1343 23.8399 17.0834 24.0725 16.9599 24.2679C16.8818 24.3978 16.7849 24.5155 16.6724 24.6171C16.6027 24.6732 16.5269 24.7214 16.4465 24.7608H16.2001C16.0474 24.7129 15.9022 24.6438 15.7688 24.5554Z" fill="#231F20"/>
<path d="M15.1449 28.4779H15.1938L15.1116 28.5601C15.1226 28.5327 15.1337 28.5053 15.1449 28.4779H15.05C15.0602 28.3755 15.0602 28.2723 15.05 28.1699C14.8036 28.0261 14.2491 27.7386 13.4071 27.3484L12.2571 26.835H12.0517C11.9516 26.9376 11.8684 27.0555 11.8053 27.1841L11.5999 27.0814C11.8053 26.6912 11.949 26.3832 12.0517 26.1573L12.5651 24.7403L12.7705 24.3501C12.9932 24.5033 13.2266 24.6405 13.4687 24.7608V24.9662L13.058 24.8019V24.9046C12.93 25.0995 12.82 25.3057 12.7294 25.5207C12.6425 25.6865 12.567 25.858 12.5035 26.0341L13.7357 26.6502C13.8304 26.4854 13.9128 26.3138 13.9821 26.1368C14.0585 25.9998 14.1205 25.8553 14.167 25.7055L13.8589 25.5207V25.2948L14.4134 25.5617L14.9884 25.8287V26.0341L14.5777 25.9109L14.2902 26.4653L13.9 26.6707L14.167 26.8145L15.2759 27.3073L15.5224 26.8145C15.651 26.5557 15.7608 26.2881 15.851 26.0135L15.3786 25.6439V25.4385C15.6661 25.6028 15.9331 25.7671 16.2001 25.8903C16.1578 26.0452 16.1028 26.1963 16.0358 26.3421L15.7688 26.8966L15.4197 27.5949C15.3823 27.913 15.2596 28.197 15.1449 28.4779Z" fill="#231F20"/>
<path d="M12.8732 31.1271V31.353L13.3866 31.6406L13.6946 31.8254C13.849 31.6853 13.9931 31.5343 14.1259 31.3736C14.2421 31.1928 14.3384 31 14.4134 30.7986C14.575 30.3824 14.575 29.9209 14.4134 29.5048C14.3545 29.3286 14.2579 29.1675 14.1301 29.0327C14.0024 28.8979 13.8468 28.7927 13.6741 28.7244C13.4869 28.6659 13.2863 28.6659 13.0991 28.7244C12.9015 28.7404 12.7143 28.8196 12.5651 28.9503C12.4316 29.1383 12.3148 29.3375 12.216 29.5458C12.1118 29.7491 11.988 29.9417 11.8463 30.1209C11.7747 30.1956 11.6812 30.2459 11.5794 30.2646C11.4718 30.2944 11.3583 30.2944 11.2508 30.2646C11.1671 30.2316 11.0912 30.1817 11.0276 30.1181C10.964 30.0545 10.9142 29.9786 10.8811 29.895C10.8106 29.6956 10.8106 29.4782 10.8811 29.2789C10.9356 29.1164 11.027 28.9688 11.1481 28.8476C11.2332 28.7707 11.3303 28.7082 11.4356 28.6628L11.9079 28.8065V28.5806L11.4561 28.3752L11.1892 28.1904L10.8606 28.6011C10.7667 28.7664 10.6843 28.9379 10.6141 29.1146C10.4644 29.5116 10.4644 29.9497 10.6141 30.3468C10.6807 30.4974 10.7768 30.6332 10.8967 30.746C11.0166 30.8589 11.158 30.9466 11.3124 31.0039C11.4926 31.062 11.6866 31.062 11.8669 31.0039C12.0274 30.9785 12.1772 30.9072 12.2981 30.7986C12.5106 30.5758 12.6841 30.3189 12.8115 30.0387C12.8989 29.8325 13.0501 29.6598 13.2428 29.5458C13.3893 29.4958 13.5482 29.4958 13.6946 29.5458C13.7892 29.5796 13.8752 29.6339 13.9462 29.705C14.0173 29.776 14.0716 29.8619 14.1054 29.9566C14.1878 30.1679 14.1878 30.4024 14.1054 30.6137C14.0423 30.7505 13.9667 30.8812 13.8795 31.0039C13.7929 31.11 13.6887 31.2003 13.5714 31.2709C13.4971 31.2884 13.4198 31.2884 13.3455 31.2709L12.8732 31.1271Z" fill="#231F20"/>
<path d="M12.0722 34.68V34.9059L12.5651 35.1523L12.9142 35.3782C13.0513 35.2221 13.1685 35.0496 13.2634 34.8648C13.3563 34.6684 13.4252 34.4616 13.4687 34.2487C13.6284 33.8322 13.6284 33.3714 13.4687 32.9549C13.3832 32.7917 13.2639 32.6487 13.1187 32.5354C12.9735 32.422 12.8058 32.341 12.6267 32.2977C12.4316 32.2454 12.2262 32.2454 12.0312 32.2977C11.8627 32.3496 11.7175 32.4586 11.6204 32.6058C11.5134 32.7957 11.424 32.995 11.3535 33.2013C11.2097 33.5094 11.0659 33.7148 11.0659 33.8174C10.9986 33.8966 10.9144 33.9598 10.8195 34.0023C10.7121 34.0331 10.5983 34.0331 10.4909 34.0023C10.4035 33.9787 10.3219 33.9374 10.2512 33.8809C10.1806 33.8243 10.1223 33.7538 10.0802 33.6737C10.0043 33.4753 10.0043 33.2559 10.0802 33.0576C10.1175 32.8908 10.1951 32.7357 10.3061 32.6058C10.3594 32.5041 10.4466 32.4242 10.5525 32.3799H11.0249V32.1334L10.5525 31.9897L10.2445 31.8665C10.1405 32.0077 10.0511 32.1591 9.9775 32.3183C9.90768 32.4913 9.85272 32.6699 9.81321 32.8522C9.73187 33.0474 9.68999 33.2568 9.68999 33.4683C9.68999 33.6798 9.73187 33.8892 9.81321 34.0844C9.89467 34.2304 10.0065 34.3573 10.1411 34.4565C10.2757 34.5557 10.43 34.6249 10.5936 34.6594C10.7748 34.7114 10.9669 34.7114 11.1481 34.6594C11.3095 34.6155 11.4532 34.5222 11.5588 34.3925C11.7166 34.1327 11.8473 33.8574 11.949 33.571C12.0137 33.3641 12.1346 33.1793 12.2981 33.037C12.3727 33.0048 12.4531 32.9882 12.5343 32.9882C12.6155 32.9882 12.6959 33.0048 12.7705 33.037C12.8672 33.0575 12.9581 33.0995 13.0363 33.16C13.1145 33.2204 13.1781 33.2977 13.2223 33.3862C13.3068 33.5971 13.3068 33.8324 13.2223 34.0433C13.18 34.1849 13.1251 34.3224 13.058 34.4541C12.9905 34.5736 12.8997 34.6783 12.791 34.7621C12.7252 34.8186 12.6482 34.8606 12.5651 34.8853L12.0722 34.68Z" fill="#231F20"/>
<path d="M11.3945 38.4176L10.0186 37.6988L11.3945 37.2265V37.8426V38.4176Z" fill="#231F20"/>
<path fill-rule="evenodd" clip-rule="evenodd" d="M66.8021 67.1277C66.7436 67.2225 66.7019 67.3267 66.6789 67.4358C66.9459 67.867 67.254 68.2983 67.5825 68.7296L68.3424 69.6948C68.4315 69.8225 68.5349 69.9396 68.6504 70.0439L68.9996 69.8385L69.1433 70.0234L68.3424 70.6189L67.6647 71.1324L67.5209 70.9475C67.7263 70.7832 67.829 70.6805 67.829 70.6189V70.5162L67.4593 69.7975L66.6584 68.709L66.1039 68.0108L65.6726 68.3188C65.4318 68.4919 65.2113 68.6917 65.0155 68.9144C65.0876 69.1102 65.1698 69.3021 65.2619 69.4894L65.0565 69.6332C64.9003 69.3437 64.7289 69.0626 64.5431 68.7912C64.6552 68.6697 64.779 68.5597 64.9128 68.4626L65.7342 67.867L66.0834 67.6001L66.8021 67.0456V67.1277ZM68.6094 65.4643L68.7737 65.6285C68.5888 65.8134 68.4861 65.9366 68.4861 65.9777C68.4962 66.0557 68.5324 66.1281 68.5888 66.183C68.7326 66.3679 69.0406 66.717 69.4924 67.2099L70.2523 68.0313L70.6219 68.4215L70.9711 68.1751L71.1148 68.3394L70.4576 68.9144L69.7594 69.5716L69.6156 69.3867C69.7257 69.2961 69.8165 69.1844 69.8826 69.0582C69.8826 69.0582 69.8826 69.0582 69.8826 68.8939C69.8826 68.7296 69.5335 68.4831 69.1639 68.0724L68.1576 66.9429C68.0461 66.813 67.9144 66.702 67.7674 66.6143V66.6143C67.6561 66.6772 67.5527 66.753 67.4593 66.8402L67.295 66.6554L67.5415 66.45L67.9727 66.0804L68.6094 65.4643ZM69.4514 65.608L69.3281 65.3205C69.3851 65.1059 69.4679 64.8991 69.5746 64.7044C69.7013 64.5122 69.8384 64.3271 69.9853 64.1499C70.2662 63.8328 70.618 63.5865 71.0121 63.4311C71.3609 63.3296 71.7313 63.3296 72.08 63.4311C72.4445 63.5178 72.7782 63.7024 73.0453 63.9651C73.2498 64.1382 73.4118 64.356 73.5186 64.6017C73.6255 64.8474 73.6743 65.1145 73.6614 65.3821C73.6246 66.0001 73.3527 66.5806 72.9015 67.0045C72.7403 67.1725 72.5689 67.3302 72.3881 67.4768C72.1879 67.6196 71.9747 67.7434 71.7515 67.8465C71.7139 67.7541 71.658 67.6703 71.5872 67.6001C71.4699 67.4388 71.3394 67.2877 71.197 67.1483L71.3407 66.9634C71.5666 67.1688 71.6898 67.2715 71.7309 67.2715H71.9363C72.0695 67.2429 72.1954 67.1869 72.3059 67.1072C72.4609 67.0224 72.5999 66.9112 72.7167 66.7786C72.8551 66.6428 72.9632 66.4793 73.034 66.2988C73.1048 66.1183 73.1366 65.9249 73.1274 65.7312C73.0893 65.3106 72.8908 64.9209 72.5729 64.6428C72.2311 64.3106 71.7762 64.1198 71.2996 64.1088C71.0791 64.1224 70.8636 64.1804 70.666 64.2792C70.4684 64.378 70.2928 64.5156 70.1496 64.6839C70.0157 64.8151 69.9046 64.9678 69.821 65.1357C69.6633 65.295 69.5378 65.4833 69.4514 65.6902V65.608Z" fill="#231F20"/>
<path d="M46.7585 85.4052C54.2543 86.6374 68.9174 82.2015 76.8445 83.7007C71.0121 83.4953 68.6299 83.7007 68.8969 85.0972C69.4924 87.5616 74.1953 87.8491 79.1651 86.0008C81.3456 84.9828 83.8055 84.7296 86.1476 85.282C87.811 85.816 89.7209 86.3704 90.7478 85.4052C91.7746 84.44 91.4871 83.3516 90.2754 83.9882C89.495 84.3579 88.6325 84.9329 88.0369 83.865C86.4145 82.3453 83.3546 82.2426 79.8223 82.5712C81.876 81.1542 84.9359 80.9899 88.7968 80.6818C92.6577 80.3738 93.664 77.8683 88.92 77.3754C88.5914 77.6629 90.5629 78.3406 90.2754 79.2442C89.454 79.7782 87.8932 79.2442 86.7842 78.9157C85.4618 78.3533 84.022 78.1229 82.5902 78.2446C81.1584 78.3663 79.7781 78.8364 78.5696 79.6139C78.7339 78.546 78.8776 77.5603 79.0419 76.4307C71.5255 74.603 54.3981 78.0326 46.5531 78.1969C38.6876 78.0326 21.5806 74.603 14.0643 76.4307C14.208 77.4986 14.3723 78.4844 14.5366 79.6139C13.3281 78.8364 11.9478 78.3663 10.516 78.2446C9.08419 78.1229 7.64434 78.3533 6.32197 78.9157C5.213 79.2442 3.65222 79.7782 2.83076 79.2442C2.54325 78.3406 4.51476 77.6629 4.18617 77.3754C-0.557772 77.8683 0.427982 80.3738 4.30939 80.6818C8.1908 80.9899 11.2713 81.1542 13.2839 82.5712C9.81319 82.2426 6.75324 82.3453 5.06924 83.865C4.47368 84.9329 3.61115 84.3579 2.83076 83.9882C1.6191 83.4132 1.04408 84.173 2.35842 85.4052C3.67276 86.6374 5.29515 85.816 6.95861 85.282C9.3008 84.7312 11.7602 84.9844 13.941 86.0008C18.993 87.8491 23.6959 87.5616 24.2093 85.0972C24.5379 83.7623 22.1557 83.4953 16.2617 83.7007C24.5995 82.1194 39.2626 86.6374 46.7585 85.4052Z" stroke="#ED1C24" stroke-miterlimit="2.61"/>
<path d="M79.2884 76.862L75.715 76.7183" stroke="#ED1C24" stroke-width="0.3" stroke-miterlimit="2.61"/>
<path d="M79.1651 77.3343L76.2079 77.2111" stroke="#ED1C24" stroke-width="0.3" stroke-miterlimit="2.61"/>
<path d="M79.0625 77.8273L76.6186 77.6836" stroke="#ED1C24" stroke-width="0.3" stroke-miterlimit="2.61"/>
<path d="M78.9393 78.2996L75.8588 78.1764" stroke="#ED1C24" stroke-width="0.3" stroke-miterlimit="2.61"/>
<path d="M78.816 78.7925L76.0641 78.6487" stroke="#ED1C24" stroke-width="0.3" stroke-miterlimit="2.61"/>
<path d="M78.7133 79.2648L76.2695 79.1416" stroke="#ED1C24" stroke-width="0.3" stroke-miterlimit="2.61"/>
<path d="M78.5491 79.6961L82.184 79.5523" stroke="#ED1C24" stroke-width="0.3" stroke-miterlimit="2.61"/>
<path d="M78.4464 80.1684L81.4652 80.0452" stroke="#ED1C24" stroke-width="0.3" stroke-miterlimit="2.61"/>
<path d="M78.3231 80.6614L83.2108 80.5176" stroke="#ED1C24" stroke-width="0.3" stroke-miterlimit="2.61"/>
<path d="M78.2205 81.1337L81.3626 81.0105" stroke="#ED1C24" stroke-width="0.3" stroke-miterlimit="2.61"/>
<path d="M78.1178 81.6265L80.9313 81.4828" stroke="#ED1C24" stroke-width="0.3" stroke-miterlimit="2.61"/>
<path d="M77.9945 82.0988L80.5 81.9551" stroke="#ED1C24" stroke-width="0.3" stroke-miterlimit="2.61"/>
<path d="M77.6454 82.6123L80.8081 82.489" stroke="#ED1C24" stroke-width="0.3" stroke-miterlimit="2.61"/>
<path d="M77.5427 83.1052L80.1303 82.9615" stroke="#ED1C24" stroke-width="0.3" stroke-miterlimit="2.61"/>
<path d="M76.7829 83.4543H79.391" stroke="#ED1C24" stroke-width="0.3" stroke-miterlimit="2.61"/>
<path d="M76.5981 83.9677L80.1509 83.9266" stroke="#ED1C24" stroke-width="0.3" stroke-miterlimit="2.61"/>
<path d="M68.9995 84.5427L79.5964 84.4195" stroke="#ED1C24" stroke-width="0.3" stroke-miterlimit="2.61"/>
<path d="M46.0191 1.00001C54.9453 0.994078 63.6181 3.96748 70.6629 9.44894C77.7078 14.9304 82.7217 22.6063 84.9099 31.2601C87.0981 39.9139 86.3355 49.0505 82.7428 57.2218C79.1502 65.393 72.9332 72.1315 65.077 76.3692C58.2589 77.0263 51.0916 78.1148 46.7584 78.1969C42.035 78.0942 34.0052 76.821 26.6942 76.1433C18.9345 71.8393 12.822 65.0824 9.31488 56.9315C5.80771 48.7806 5.10403 39.6964 7.31413 31.1027C9.52422 22.5089 14.5232 14.8913 21.5275 9.44366C28.5319 3.99606 37.1457 1.02636 46.0191 1.00001V1.00001Z" stroke="#ED1C24" stroke-miterlimit="2.61"/>
<path fill-rule="evenodd" clip-rule="evenodd" d="M49.5309 78.5255C51.4972 77.0099 53.9561 76.2781 56.4312 76.4718L55.9589 75.9584C57.4375 75.3834 58.3822 74.6236 58.0125 73.5146C56.8188 74.1819 55.5081 74.6141 54.1516 74.7879C54.1516 74.4182 54.1516 74.0691 54.1516 73.7199C51.8921 74.8264 49.9493 76.4866 48.5041 78.546H49.572" fill="#ED1C24"/>
<path fill-rule="evenodd" clip-rule="evenodd" d="M47.6415 73.4325C47.8589 73.6431 48.0317 73.8952 48.1497 74.1739C48.2677 74.4526 48.3286 74.7522 48.3286 75.0549C48.3286 75.3575 48.2677 75.6571 48.1497 75.9358C48.0317 76.2145 47.8589 76.4666 47.6415 76.6773C47.4215 76.4681 47.2464 76.2165 47.1267 75.9376C47.007 75.6587 46.9453 75.3584 46.9453 75.0549C46.9453 74.7514 47.007 74.451 47.1267 74.1721C47.2464 73.8932 47.4215 73.6416 47.6415 73.4325V73.4325ZM47.929 78.5255C48.2271 77.2255 48.8649 76.0278 49.7773 75.0549C50.455 74.3977 50.6809 73.5146 49.9827 73.1244C49.7157 73.453 49.4692 73.8021 49.2023 74.1513C49.0241 73.1125 48.4682 72.1763 47.6415 71.5226C46.8158 72.1804 46.2544 73.1135 46.0602 74.1513C45.8137 73.8021 45.5673 73.453 45.3003 73.1244C44.6021 73.5146 44.828 74.3977 45.5057 75.0549C46.418 76.0278 47.0558 77.2255 47.354 78.5255C47.5417 78.5803 47.7412 78.5803 47.929 78.5255Z" fill="#ED1C24"/>
<path fill-rule="evenodd" clip-rule="evenodd" d="M45.095 78.5256C43.1314 77.0046 40.6704 76.2722 38.1947 76.4719L38.7492 75.8763C37.2705 75.3013 36.3464 74.5415 36.6955 73.4325C37.8907 74.0965 39.2006 74.5285 40.5564 74.7058V73.6379C42.8104 74.7442 44.7466 76.4048 46.1834 78.464H45.1155" fill="#ED1C24"/>
<path d="M68.9995 85.1178L78.9597 84.9946" stroke="#ED1C24" stroke-width="0.3" stroke-miterlimit="2.61"/>
<path d="M68.8763 85.6927L78.3231 85.5695" stroke="#ED1C24" stroke-width="0.3" stroke-miterlimit="2.61"/>
<path d="M69.7799 86.2884L77.6659 86.1446" stroke="#ED1C24" stroke-width="0.3" stroke-miterlimit="2.61"/>
<path d="M14.0233 76.862L17.5966 76.7183" stroke="#ED1C24" stroke-width="0.3" stroke-miterlimit="2.61"/>
<path d="M14.1465 77.3343L17.1037 77.2111" stroke="#ED1C24" stroke-width="0.3" stroke-miterlimit="2.61"/>
<path d="M14.2491 77.8273L16.6929 77.6836" stroke="#ED1C24" stroke-width="0.3" stroke-miterlimit="2.61"/>
<path d="M14.3723 78.2996L17.4528 78.1764" stroke="#ED1C24" stroke-width="0.3" stroke-miterlimit="2.61"/>
<path d="M14.475 78.7925L17.2474 78.6487" stroke="#ED1C24" stroke-width="0.3" stroke-miterlimit="2.61"/>
<path d="M14.5982 79.2648L17.0421 79.1416" stroke="#ED1C24" stroke-width="0.3" stroke-miterlimit="2.61"/>
<path d="M14.7625 79.6961L11.1275 79.5523" stroke="#ED1C24" stroke-width="0.3" stroke-miterlimit="2.61"/>
<path d="M14.8652 80.1684L11.8464 80.0452" stroke="#ED1C24" stroke-width="0.3" stroke-miterlimit="2.61"/>
<path d="M14.9884 80.6614L10.1007 80.5176" stroke="#ED1C24" stroke-width="0.3" stroke-miterlimit="2.61"/>
<path d="M15.0911 81.1337L11.9285 81.0105" stroke="#ED1C24" stroke-width="0.3" stroke-miterlimit="2.61"/>
<path d="M15.1937 81.6265L12.3802 81.4828" stroke="#ED1C24" stroke-width="0.3" stroke-miterlimit="2.61"/>
<path d="M15.2964 82.0988L12.8115 81.9551" stroke="#ED1C24" stroke-width="0.3" stroke-miterlimit="2.61"/>
<path d="M15.6455 82.6123L12.5034 82.489" stroke="#ED1C24" stroke-width="0.3" stroke-miterlimit="2.61"/>
<path d="M15.7688 83.1052L13.1606 82.9615" stroke="#ED1C24" stroke-width="0.3" stroke-miterlimit="2.61"/>
<path d="M16.5286 83.4543H13.9205" stroke="#ED1C24" stroke-width="0.3" stroke-miterlimit="2.61"/>
<path d="M16.7135 83.9677L13.1606 83.9266" stroke="#ED1C24" stroke-width="0.3" stroke-miterlimit="2.61"/>
<path d="M24.312 84.5427L13.7151 84.4195" stroke="#ED1C24" stroke-width="0.3" stroke-miterlimit="2.61"/>
<path d="M24.312 85.1178L14.3517 84.9946" stroke="#ED1C24" stroke-width="0.3" stroke-miterlimit="2.61"/>
<path d="M24.4352 85.6927L14.9884 85.5695" stroke="#ED1C24" stroke-width="0.3" stroke-miterlimit="2.61"/>
<path d="M23.5316 86.2884L15.6456 86.1446" stroke="#ED1C24" stroke-width="0.3" stroke-miterlimit="2.61"/>
<path d="M33.4919 82.4685V82.7971H33.5535L34.2312 82.9409L35.1553 83.1257V82.1194H35.0116V82.3248C35.0569 82.4579 35.0569 82.6023 35.0116 82.7355H34.7035H34.416V81.7703H34.5598C34.5785 81.7595 34.5997 81.7538 34.6214 81.7538C34.643 81.7538 34.6642 81.7595 34.683 81.7703C34.686 81.8182 34.686 81.8662 34.683 81.914V82.1194H34.9294V81.1953H34.683V81.3801C34.6878 81.4279 34.6878 81.476 34.683 81.5238C34.6642 81.5347 34.643 81.5403 34.6214 81.5403C34.5997 81.5403 34.5785 81.5347 34.5598 81.5238H34.416V80.6818H34.7241C34.8364 80.7129 34.9367 80.7773 35.0116 80.8667C35.0486 80.9941 35.0486 81.1294 35.0116 81.2569V81.3801H35.258V80.4559L34.3339 80.23L33.6561 80.0657V80.4559V80.5792V82.4685H33.4919Z" fill="#231F20"/>
<path d="M33.307 82.1194C33.3279 81.9352 33.3279 81.7492 33.307 81.5649L32.9579 81.4828C32.9978 81.7138 32.9978 81.95 32.9579 82.181C32.953 82.2082 32.9427 82.2342 32.9275 82.2573C32.9124 82.2805 32.8927 82.3003 32.8697 82.3156C32.8467 82.331 32.8208 82.3415 32.7936 82.3466C32.7664 82.3517 32.7385 82.3513 32.7115 82.3453C32.6449 82.3337 32.5836 82.3018 32.5358 82.254C32.488 82.2062 32.4561 82.1449 32.4445 82.0783C32.4307 81.9624 32.4307 81.8452 32.4445 81.7292V81.1336V80.5586C32.4272 80.4498 32.4272 80.3389 32.4445 80.23C32.4856 80.0658 32.5677 80.0657 32.6909 80.0657C32.7603 80.0735 32.8261 80.1008 32.8806 80.1444C32.9351 80.1881 32.9761 80.2462 32.999 80.3122C33.0305 80.5232 33.0305 80.7378 32.999 80.9488H33.2249V79.8809H33.0401V80.0863C33.0141 80.001 32.9663 79.924 32.9015 79.8628C32.8367 79.8015 32.757 79.7583 32.6704 79.7372C32.5613 79.7081 32.4454 79.719 32.3437 79.7679C32.242 79.8169 32.1612 79.9007 32.1159 80.0041C32.0577 80.1566 32.0164 80.315 31.9927 80.4765C31.9697 80.7155 31.9697 80.9562 31.9927 81.1953C31.9701 81.4 31.9701 81.6066 31.9927 81.8114C32.0034 81.9621 32.0453 82.109 32.1159 82.2426C32.1702 82.3553 32.2507 82.4533 32.3508 82.5284C32.4509 82.6035 32.5675 82.6534 32.6909 82.6739C32.785 82.7033 32.886 82.7011 32.9787 82.6677C33.0714 82.6344 33.1506 82.5716 33.2043 82.4891C33.2562 82.3714 33.2908 82.2469 33.307 82.1194Z" fill="#231F20"/>
<path d="M72.2238 81.2158V81.5239L72.3881 81.5444L73.0864 81.6882L74.031 81.9141V80.9283H73.7846V81.0721C73.8177 81.2001 73.8177 81.3343 73.7846 81.4623H73.456H73.1685V80.5176H73.3328H73.4355C73.4486 80.5716 73.4486 80.6279 73.4355 80.6819V80.7846H73.6819V79.7372H73.4355V79.9426V80.0658H73.3328H73.1685V79.4702H73.4766C73.5991 79.5029 73.7074 79.5751 73.7846 79.6756C73.8124 79.8042 73.8124 79.9372 73.7846 80.0658H74.031V79.3059L73.0864 79.039C72.8599 78.9558 72.6261 78.8939 72.3881 78.8541V79.1622V79.2854V81.1132V81.2158H72.2238Z" fill="#231F20"/>
<path d="M72.1622 80.8873C72.1738 80.7095 72.1738 80.5311 72.1622 80.3533L71.9569 80.2917C71.9944 80.516 71.9944 80.7451 71.9569 80.9694C71.9423 81.026 71.9063 81.0748 71.8565 81.1054C71.8067 81.136 71.747 81.1462 71.6899 81.1337C71.6287 81.1223 71.5724 81.0927 71.5285 81.0487C71.4845 81.0047 71.4548 80.9484 71.4434 80.8873C71.4363 80.771 71.4363 80.6544 71.4434 80.5381V79.9631V79.3881C71.4434 79.2443 71.4024 79.2238 71.4434 79.0595C71.4845 78.8952 71.5667 78.8952 71.7104 78.8952H71.7104C71.7664 78.9109 71.8178 78.9395 71.8606 78.9787C71.9035 79.018 71.9364 79.0667 71.9569 79.1211C71.9765 79.3329 71.9765 79.546 71.9569 79.7577H72.2033V78.6898H71.9979C72.0029 78.7582 72.0029 78.8268 71.9979 78.8952C71.9667 78.8094 71.9147 78.7326 71.8466 78.6717C71.7786 78.6108 71.6965 78.5676 71.6077 78.5461C71.4938 78.524 71.3758 78.5427 71.2744 78.5991C71.1729 78.6554 71.0946 78.7457 71.0532 78.8541C70.983 79.0025 70.9412 79.1627 70.93 79.3265C70.907 79.5587 70.907 79.7925 70.93 80.0247C70.9055 80.2294 70.9055 80.4362 70.93 80.6408C70.9407 80.7916 70.9827 80.9384 71.0532 81.0721C71.1094 81.1821 71.1946 81.2747 71.2995 81.3399C71.4045 81.405 71.5253 81.4403 71.6488 81.4417C71.745 81.4692 71.8477 81.4639 71.9406 81.4268C72.0335 81.3896 72.1115 81.3226 72.1622 81.2364C72.1794 81.1206 72.1794 81.003 72.1622 80.8873Z" fill="#231F20"/>
<path d="M69.3487 80.7532V81.0721H68.671V80.7435H68.8353V78.6898H68.671V78.3613H69.3692C69.4925 78.6898 69.5952 79.0184 69.6978 79.3265L70.0059 80.3122V78.8747V78.5461H70.3345H70.6836V78.8747V81.2569H70.2318L69.8827 80.2301C69.7594 79.9015 69.6568 79.5524 69.5335 79.2238V80.764L69.3487 80.7532Z" fill="#231F20"/>
<path d="M67.2129 79.5524L66.9665 80.7846L66.8022 80.764C66.8212 80.7747 66.8379 80.789 66.8513 80.8062C66.8647 80.8234 66.8746 80.8431 66.8803 80.8641C66.886 80.8851 66.8875 80.9071 66.8847 80.9287C66.8818 80.9503 66.8747 80.9711 66.8638 80.9899V81.3185H67.521V80.9899H67.3567V80.8873V80.4971H67.8495V80.8667H67.6853V81.1953H68.5683V80.8667H68.404C68.4005 80.8257 68.4005 80.7845 68.404 80.7435C68.3219 80.3533 68.2603 79.922 68.1781 79.5318C68.096 79.1417 67.9522 78.7309 67.9522 78.3202H67.4593L67.2129 79.5524Z" fill="#231F20"/>
<path fill-rule="evenodd" clip-rule="evenodd" d="M36.4697 80.5586L36.7161 81.1541L37.3117 80.9693L37.0036 81.5238L37.517 81.8935L36.9009 81.9961L36.942 82.6122L36.4697 82.181L35.9973 82.6122L36.0384 81.9961L35.4223 81.8935L35.9357 81.5238L35.6277 80.9693L36.2232 81.1541L36.4697 80.5586Z" fill="#231F20"/>
<path fill-rule="evenodd" clip-rule="evenodd" d="M56.2464 80.3533L56.4928 80.9489L57.0884 80.764L56.7803 81.3185L57.2937 81.6676L56.6776 81.7703L56.7187 82.407L56.2464 81.9757L55.774 82.407L55.8151 81.7703L55.199 81.6676L55.7124 81.3185L55.4044 80.764L56.0205 80.9489L56.2464 80.3533Z" fill="#231F20"/>
<path fill-rule="evenodd" clip-rule="evenodd" d="M37.0037 68.8118C35.8675 67.7193 35.1423 66.2688 34.95 64.7044C34.3544 63.6982 35.0527 62.6508 33.7383 62.199C33.7383 61.7677 33.533 61.2132 33.1428 60.9873C33.1428 60.6998 33.0196 60.2069 32.8142 60.1248C32.8158 59.4613 32.6073 58.8143 32.2186 58.2765C32.2186 57.6604 32.0543 57.1059 32.0338 56.5514C31.7668 56.5514 31.0481 54.4978 30.9454 54.046C30.7114 53.7628 30.5393 53.4338 30.4402 53.0801C30.3412 52.7264 30.3174 52.3558 30.3703 51.9923L30.1239 51.7048C30.1239 49.6512 29.6516 47.7413 29.5694 45.7287C29.8569 45.4822 29.6721 45.2563 29.6926 44.9894C30.0611 44.5896 30.2789 44.0741 30.3087 43.5313C29.9391 43.0795 29.9596 42.8741 29.9391 42.1964C29.4051 42.1964 29.0765 42.6071 28.8301 43.0589C28.3497 43.2787 27.8893 43.5398 27.4542 43.8393C26.4273 43.7366 25.4005 43.7161 25.2978 42.5455C24.846 42.2991 23.2442 40.7794 23.4495 40.307C23.9835 40.307 25.1541 40.307 25.5032 39.9374C25.5032 39.9374 25.38 39.7936 25.2978 39.7936L24.4558 39.9168C23.7576 39.3007 22.7924 39.3623 22.6281 38.1096C22.4581 38.0268 22.2789 37.9648 22.0941 37.9248C22.0941 37.5757 22.0941 37.3087 22.0941 37.0417C22.0941 36.7747 22.6075 36.8158 22.854 37.0417C23.737 36.3024 24.5996 36.7131 25.5443 36.7953L27.2283 36.5488C27.2612 36.3359 27.3234 36.1286 27.4131 35.9327C27.2693 35.3782 27.105 34.8854 26.9407 34.3925L26.0577 34.105C26.0577 33.0165 26.222 32.4621 25.1335 32.2978C25.1335 31.4147 25.9139 31.2709 26.1809 30.5316C26.4175 30.223 26.6937 29.9468 27.0024 29.7102C27.5568 29.7102 27.4747 29.8334 27.7211 30.1209C28.3578 30.1209 29.0355 30.1209 29.7748 30.0182C29.9253 29.6593 30.0968 29.3096 30.2882 28.9708C30.8672 28.5519 31.4707 28.1679 32.0954 27.8208C32.3829 27.0199 32.4856 26.5475 33.2044 26.1984C33.6032 25.7039 34.0355 25.2373 34.4982 24.8019C34.7652 23.467 34.7446 22.7483 36.0795 22.5429V22.0706C35.3568 21.8037 34.7088 21.367 34.1901 20.7973L33.5124 20.5098C33.5124 19.5446 33.5124 18.5793 33.6357 17.6347C33.874 17.4278 34.1445 17.2613 34.4366 17.1418C34.4459 16.938 34.4875 16.737 34.5598 16.5462C34.1843 16.2584 33.7935 15.9911 33.3892 15.7453C33.3892 15.4167 32.5472 15.1908 32.3419 15.1087C32.3595 14.8831 32.3595 14.6565 32.3419 14.431C32.7115 14.1845 33.7178 12.9729 34.2107 13.5479C34.3506 13.3933 34.5016 13.2492 34.6625 13.1166L36.0795 12.8291C36.2643 13.055 36.2438 13.1988 36.5929 13.2193C36.6522 13.1238 36.7289 13.0402 36.8188 12.9729C37.4349 12.9729 37.7019 13.7943 38.0716 14.2461C38.3802 14.276 38.6756 14.3866 38.9279 14.5669C39.1803 14.7471 39.3807 14.9907 39.5091 15.273C39.9546 15.5163 40.3865 15.7837 40.8029 16.0739C41.3897 15.7768 42.0357 15.6151 42.6932 15.6009C43.3508 15.5867 44.0031 15.7203 44.6022 15.9917C44.7106 16.5191 44.8477 17.0401 45.0129 17.5525C44.8281 17.8811 44.6638 18.2097 44.4995 18.5383C43.9245 18.9695 43.6575 19.5035 42.9593 19.5651C42.9593 20.1196 43.1236 20.2017 43.4932 20.5098C43.4932 20.8589 43.7602 22.317 43.4932 22.5634C42.9083 22.5913 42.3254 22.653 41.7476 22.7483C41.9119 23.2617 42.0762 23.7546 42.3021 24.309C42.4848 24.3261 42.6644 24.3675 42.836 24.4323C42.836 25.2537 43.8013 25.2126 44.4174 25.3359C44.6022 25.6234 44.8486 25.9109 45.0951 26.2805L46.0192 26.5681C46.0192 26.835 45.8344 27.102 45.7522 27.369H45.4236C44.9134 27.9391 44.6034 28.6602 44.5406 29.4226C44.8865 29.5151 45.2233 29.6389 45.5469 29.7923L46.7996 31.0656L48.73 31.8665C48.73 32.2772 49.8801 32.0924 50.0238 32.0513C50.7015 32.0513 51.3792 32.2361 52.0775 32.3594C52.0763 32.5582 52.1296 32.7535 52.2317 32.9242C52.3337 33.0948 52.4805 33.2343 52.6561 33.3274C52.8318 33.4205 53.0296 33.4637 53.2281 33.4524C53.4265 33.441 53.6181 33.3755 53.782 33.263C53.9189 33.4527 54.0425 33.6517 54.1517 33.8585C55.3839 33.8585 56.6161 33.8585 57.8483 34.0434C57.8713 33.6358 57.9263 33.2307 58.0126 32.8317C57.9155 32.7659 57.8319 32.6823 57.7661 32.5853C57.854 31.953 58.1254 31.3604 58.5465 30.8807C58.8408 30.9169 59.1301 30.9858 59.409 31.0861C59.1831 33.6737 61.1752 33.0371 62.8797 33.1398C63.311 32.7701 64.1324 32.9139 64.6869 32.8317C64.9128 31.8049 63.9271 32.0719 64.0092 31.1066L65.837 30.8602C65.837 29.7718 66.9254 29.4432 67.8906 29.1762C68.4451 27.7181 69.2461 27.8619 70.622 27.9851C70.7567 27.8256 70.9082 27.681 71.0738 27.5538C72.7167 27.6976 72.6346 27.7592 72.6962 29.4021C72.9632 29.4021 73.99 29.5869 73.9489 30.0593L74.2775 30.2441C74.2775 30.9834 73.3944 30.9218 73.9079 31.9281C73.8257 31.9883 73.7675 32.0756 73.7436 32.1745C73.2096 32.1745 73.1685 31.846 72.7578 31.7433C72.3846 31.9222 72.0213 32.121 71.6694 32.3388C71.3549 32.5902 71.0598 32.8648 70.7863 33.1603C70.6521 33.7638 70.5492 34.3739 70.4783 34.988C69.7389 35.6041 70.2524 36.6104 69.6773 37.0417C69.5336 38.4793 69.3282 38.6025 68.0344 38.4793C68.0008 39.1386 67.8257 39.783 67.521 40.3686C67.521 40.9847 67.3978 41.6008 67.3567 42.1964C67.0358 42.163 66.7123 42.163 66.3915 42.1964C66.2865 41.6677 66.2179 41.1325 66.1861 40.5945C65.7343 40.2865 65.8986 39.8141 65.8781 39.4034H65.2003C65.1058 39.7311 65.0506 40.0689 65.0361 40.4097L63.8039 40.307C63.4958 39.0543 63.578 38.2534 64.9334 37.8016C65.2701 37.3577 65.4571 36.8183 65.4673 36.2613C64.1735 36.1586 62.2636 36.7337 61.093 36.0149C61.0637 35.6252 61.0637 35.2339 61.093 34.8443C60.7368 34.7525 60.3721 34.6974 60.0046 34.68C59.9589 34.533 59.904 34.3889 59.8403 34.2487C59.368 34.2487 58.1768 34.3719 58.4644 35.1523C58.9615 35.2384 59.4203 35.4749 59.7787 35.83V36.364C59.2242 36.364 58.3001 36.9185 58.7108 37.6373C58.8956 37.8016 59.1626 37.9659 59.409 38.1918C59.6555 38.4177 59.409 39.0748 59.409 39.5677C59.9564 40.5499 60.0965 41.7076 59.7992 42.7919C59.31 42.9303 58.8354 43.116 58.3822 43.3464C58.3559 43.2524 58.3559 43.1529 58.3822 43.0589C57.8683 43.2361 57.3674 43.4488 56.883 43.6956C56.8041 43.9129 56.7625 44.142 56.7598 44.3733L57.0679 44.5992V45.1536C57.0152 45.1462 56.9615 45.1517 56.9115 45.1696C56.8614 45.1875 56.8164 45.2172 56.7804 45.2563C56.7473 45.6698 56.5898 46.0636 56.3286 46.3858C56.4791 46.4806 56.6371 46.563 56.8009 46.6323C56.6162 46.7355 56.444 46.8595 56.2875 47.0019C56.2165 47.5531 56.0043 48.0766 55.6714 48.5216C55.1901 48.5198 54.7267 48.7037 54.3776 49.0351C52.8784 48.8913 53.1043 51.0887 51.7284 50.986C51.6814 50.8815 51.6191 50.7846 51.5435 50.6985C50.7034 50.6164 49.8584 50.7951 49.1235 51.2103C48.3886 51.6256 47.7994 52.2572 47.4362 53.0191C46.9647 53.051 46.4972 53.1266 46.0397 53.245C45.7732 53.4015 45.5252 53.5875 45.3004 53.7995C45.1506 54.0186 45.0395 54.2617 44.9718 54.5183C44.6617 54.4391 44.3458 54.3842 44.0272 54.354C43.741 54.6813 43.5347 55.0704 43.4242 55.4909C43.3137 55.9114 43.3022 56.3517 43.3905 56.7773C43.4776 57.2767 43.5942 57.7704 43.7396 58.256C43.7396 58.9337 43.7396 59.6935 43.7396 60.4534C42.4048 61.5624 42.6101 63.1642 42.7334 64.8277L41.6244 64.9303C41.6244 65.2179 41.3574 65.6697 41.152 65.7107C41.0572 66.088 40.9954 66.4728 40.9672 66.8608H39.4475C38.893 68.4626 38.7493 68.6475 37.2296 68.7296" fill="white"/>
<path fill-rule="evenodd" clip-rule="evenodd" d="M36.9625 60.0015C36.7571 60.0015 36.7776 59.5703 36.7982 59.4471C37.0408 59.3091 37.3044 59.212 37.5786 59.1595C37.548 59.3017 37.548 59.4487 37.5786 59.5908C37.342 59.6974 37.1209 59.8356 36.9214 60.0015" fill="#1F1A18"/>
<path fill-rule="evenodd" clip-rule="evenodd" d="M68.3835 56.346C68.0483 56.9134 67.7532 57.5036 67.5004 58.1122C67.4766 57.7768 67.3708 57.4524 67.1924 57.1675C67.0902 56.9803 66.9323 56.8296 66.7406 56.7362C66.5383 56.6099 66.3 56.5536 66.0626 56.5759C65.8251 56.5981 65.6015 56.6978 65.4262 56.8595C65.1741 57.1341 64.9832 57.4593 64.8664 57.8134C64.7496 58.1674 64.7094 58.5423 64.7485 58.9131C64.718 59.5502 64.845 60.185 65.1182 60.7614C65.2298 61.0041 65.4096 61.209 65.6357 61.3513C65.8618 61.4935 66.1244 61.5668 66.3914 61.5623C66.5726 61.5691 66.7531 61.5358 66.9199 61.4648C67.0868 61.3938 67.2359 61.2869 67.3567 61.1516C67.617 60.8322 67.7617 60.4341 67.7674 60.0221C67.7674 59.8989 67.7674 59.8373 67.9317 59.8373C68.096 59.8373 68.096 59.8373 68.096 60.1248C68.0841 60.3769 68.0357 60.6259 67.9522 60.8641C67.8437 61.1992 67.6176 61.4837 67.3156 61.665C66.9906 61.8495 66.6213 61.9418 66.2477 61.932C65.8087 61.9332 65.3769 61.8199 64.995 61.6034C64.5605 61.318 64.2293 60.9004 64.0503 60.4123C63.9017 59.9829 63.8253 59.5318 63.8244 59.0774C63.811 58.4741 63.9599 57.8783 64.2556 57.3523C64.4293 56.9618 64.7205 56.6351 65.0886 56.4179C65.4567 56.2007 65.8835 56.1038 66.3093 56.1407C66.4729 56.1187 66.6386 56.1187 66.8022 56.1407C66.9997 56.1822 67.1924 56.2442 67.3772 56.3255C67.5468 56.3969 67.7274 56.4386 67.9112 56.4487H68.1576C68.2721 56.4094 68.3771 56.3464 68.4656 56.2639L68.3835 56.346ZM60.7439 57.147L60.0457 59.0158C60.3402 59.3481 60.6145 59.6979 60.8671 60.0632L61.1752 59.6935C61.2939 59.5462 61.4244 59.4089 61.5654 59.2828L60.7439 57.147ZM62.0172 56.2639L61.5448 56.7773L62.2841 58.7077C62.5154 58.5621 62.7232 58.382 62.9002 58.1738C62.9388 58.3205 62.9869 58.4645 63.044 58.6051L63.2494 58.9953H63.0029C62.811 58.9926 62.6211 59.0348 62.4484 59.1185L63.2494 61.2954L63.886 61.7882H61.6475L62.2225 61.2954L61.6475 59.714L61.3395 60.0221C61.1321 60.236 60.9463 60.4699 60.785 60.7203C60.506 60.2847 60.175 59.8847 59.7992 59.5292V59.5292L59.4912 60.4739C59.483 60.6107 59.483 60.7478 59.4912 60.8846C59.48 61.1022 59.5536 61.3157 59.6965 61.4802L59.984 61.8088H57.7456C57.9847 61.7003 58.2008 61.5469 58.3822 61.357C58.5793 61.1694 58.7395 60.9464 58.8545 60.6998C58.9817 60.5076 59.0851 60.3007 59.1626 60.0837C59.1626 59.9194 59.3269 59.6319 59.4501 59.2212L59.142 59.0569H58.7929C58.8773 58.9394 58.9528 58.8159 59.0188 58.6872L59.1626 58.3792C59.2396 58.4854 59.3293 58.582 59.4296 58.6667C59.5063 58.7183 59.5755 58.7806 59.6349 58.8515L60.3948 56.7978L59.9224 56.2844L62.0172 56.2639ZM55.0553 57.147L54.3365 59.0158C54.6373 59.3429 54.9119 59.6931 55.1579 60.0632L55.466 59.6935C55.5847 59.5462 55.7152 59.4089 55.8562 59.2828L55.0553 57.147ZM56.308 56.2639L55.6919 56.8595L56.4312 58.7899C56.6625 58.6442 56.8703 58.4642 57.0473 58.2559C57.0859 58.4026 57.1339 58.5467 57.1911 58.6872L57.3964 59.0774H57.15C56.9581 59.0747 56.7682 59.1169 56.5955 59.2006L57.3964 61.3775L58.0331 61.8704H55.9383L56.5339 61.3775L55.9383 59.7962L55.6303 60.1042C55.4229 60.3181 55.2372 60.552 55.0758 60.8025C54.8103 60.332 54.4859 59.8972 54.1106 59.5087V59.5087L53.8025 60.4534C53.7856 60.5897 53.7856 60.7277 53.8025 60.8641C53.7913 61.0817 53.865 61.2952 54.0079 61.4596L54.2954 61.7882H52.0569C52.2992 61.6746 52.5213 61.522 52.7141 61.3364C52.8985 61.1381 53.0572 60.9173 53.1864 60.6793C53.2997 60.4825 53.3958 60.2763 53.474 60.0632C53.474 59.8989 53.6382 59.6114 53.7615 59.2006L53.474 59.0363H53.1043C53.1887 58.9189 53.2642 58.7953 53.3302 58.6667C53.388 58.5689 53.4362 58.4657 53.474 58.3586C53.551 58.4649 53.6406 58.5615 53.7409 58.6461C53.8177 58.6978 53.8869 58.76 53.9463 58.831L54.7061 56.7773L54.2338 56.2639H56.308ZM51.2149 60.7409V57.8658C51.2403 57.4868 51.1771 57.107 51.0301 56.7568C50.8623 56.5157 50.6152 56.3413 50.3319 56.2639H52.3855C52.099 56.3343 51.8496 56.5103 51.6873 56.7568C51.5403 57.107 51.477 57.4868 51.5024 57.8658V61.7882H50.8042L48.422 57.2702V60.2685C48.3965 60.6475 48.4598 61.0272 48.6068 61.3775C48.6816 61.5004 48.78 61.6072 48.8963 61.6918C49.0126 61.7764 49.1446 61.8371 49.2845 61.8704H47.2308C47.5113 61.787 47.7566 61.6139 47.9291 61.3775C48.076 61.0272 48.1393 60.6475 48.1139 60.2685V56.8595L47.4978 56.346H49.7363L49.1202 56.8595L51.2149 60.7409Z" fill="white"/>
<path fill-rule="evenodd" clip-rule="evenodd" d="M43.1235 49.5074L28.8917 39.4444L43.2056 29.9976L56.8008 39.3623L43.1235 49.5074Z" fill="#231F20"/>
<path d="M43.1235 49.5074L28.8917 39.4444L43.2056 29.9976L56.8008 39.3623L43.1235 49.5074Z" stroke="#231F20" stroke-width="0.22" stroke-miterlimit="2.61"/>
<path fill-rule="evenodd" clip-rule="evenodd" d="M44.9924 44.291C44.4078 43.497 43.5571 42.9397 42.5956 42.721C41.6341 42.5023 40.6261 42.6368 39.7555 43.0999C40.5121 43.1009 41.2588 43.271 41.9411 43.598C42.6233 43.9249 43.2238 44.4002 43.6986 44.9893C43.3876 45.0952 43.0618 45.1506 42.7333 45.1536C41.4858 44.9794 40.3529 44.3322 39.5692 43.3459C38.7856 42.3596 38.4111 41.1098 38.5234 39.8551C38.3774 38.61 38.7259 37.3573 39.494 36.3664C40.2621 35.3756 41.3884 34.7257 42.6307 34.5567C43.8617 34.7499 44.9724 35.406 45.7359 36.3908C46.4993 37.3756 46.8578 38.6148 46.738 39.8551C46.788 40.6771 46.6577 41.5 46.3561 42.2663C46.0546 43.0326 45.5891 43.7236 44.9924 44.291V44.291ZM42.7333 33.5915C44.4147 33.5915 46.0278 34.2566 47.2206 35.4416C48.4133 36.6267 49.0888 38.2354 49.0997 39.9168C49.0971 41.0294 48.7991 42.1214 48.2363 43.0812C47.6734 44.0409 46.8658 44.8341 45.896 45.3795L46.0808 45.6054C46.9844 46.8581 49.0997 46.817 51.5846 45.6054C51.8471 45.4085 52.1486 45.2701 52.469 45.1993C52.7893 45.1286 53.1211 45.1272 53.4421 45.1953C53.763 45.2634 54.0657 45.3993 54.3298 45.594C54.5938 45.7887 54.8132 46.0377 54.9731 46.3242C53.4726 46.2499 52.0013 46.7575 50.8658 47.7412C50.0677 48.3781 49.0526 48.6786 48.0363 48.5789C47.0201 48.4792 46.0828 47.9871 45.4236 47.2072C45.1156 46.817 44.8281 46.3858 44.5406 45.9956C43.9714 46.1507 43.3849 46.2335 42.795 46.242C41.1174 46.242 39.5085 45.5756 38.3223 44.3894C37.1361 43.2032 36.4697 41.5943 36.4697 39.9168C36.4697 38.2392 37.1361 36.6303 38.3223 35.4441C39.5085 34.2579 41.1174 33.5915 42.795 33.5915H42.7333Z" fill="#D2AB67"/>
<path d="M44.9924 44.291C44.4078 43.497 43.5571 42.9397 42.5956 42.721C41.6341 42.5023 40.6261 42.6368 39.7555 43.0999C40.5121 43.1009 41.2588 43.271 41.9411 43.598C42.6233 43.9249 43.2238 44.4002 43.6986 44.9893C43.3876 45.0952 43.0618 45.1506 42.7333 45.1536C41.4858 44.9794 40.3529 44.3322 39.5692 43.3459C38.7856 42.3596 38.4111 41.1098 38.5234 39.8551C38.3774 38.61 38.7259 37.3573 39.494 36.3664C40.2621 35.3756 41.3884 34.7257 42.6307 34.5567C43.8617 34.7499 44.9724 35.406 45.7359 36.3908C46.4993 37.3756 46.8578 38.6148 46.738 39.8551C46.788 40.6771 46.6577 41.5 46.3561 42.2663C46.0546 43.0326 45.5891 43.7236 44.9924 44.291V44.291ZM42.7333 33.5915C44.4147 33.5915 46.0278 34.2566 47.2206 35.4416C48.4133 36.6267 49.0888 38.2354 49.0997 39.9168C49.0971 41.0294 48.7991 42.1214 48.2363 43.0812C47.6734 44.0409 46.8658 44.8341 45.896 45.3795L46.0808 45.6054C46.9844 46.8581 49.0997 46.817 51.5846 45.6054C51.8471 45.4085 52.1486 45.2701 52.469 45.1993C52.7893 45.1286 53.1211 45.1272 53.4421 45.1953C53.763 45.2634 54.0657 45.3993 54.3298 45.594C54.5938 45.7887 54.8132 46.0377 54.9731 46.3242C53.4726 46.2499 52.0013 46.7575 50.8658 47.7412C50.0677 48.3781 49.0526 48.6786 48.0363 48.5789C47.0201 48.4792 46.0828 47.9871 45.4236 47.2072C45.1156 46.817 44.8281 46.3858 44.5406 45.9956C43.9714 46.1507 43.3849 46.2335 42.795 46.242C41.1174 46.242 39.5085 45.5756 38.3223 44.3894C37.1361 43.2032 36.4697 41.5943 36.4697 39.9168C36.4697 38.2392 37.1361 36.6303 38.3223 35.4441C39.5085 34.2579 41.1174 33.5915 42.795 33.5915H42.7333Z" stroke="#D2AB67" stroke-width="0.5" stroke-miterlimit="2.61"/>
<path fill-rule="evenodd" clip-rule="evenodd" d="M30.9042 65.0947C31.0274 64.8072 31.356 64.7456 31.2944 64.1911C31.2328 63.6366 30.781 63.8214 30.5756 64.0678C30.0622 64.2321 30.1649 64.5813 30.9042 65.0947Z" fill="white"/>
<path d="M30.9042 65.0947C31.0274 64.8072 31.356 64.7456 31.2944 64.1911C31.2328 63.6366 30.781 63.8214 30.5756 64.0678C30.0622 64.2321 30.1649 64.5813 30.9042 65.0947Z" stroke="white" stroke-width="0.22" stroke-miterlimit="2.61"/>
<path fill-rule="evenodd" clip-rule="evenodd" d="M67.0075 49.1377C67.2939 48.6894 67.4503 48.1705 67.4593 47.6386C67.2745 47.351 66.7406 46.7555 66.5352 47.0019C66.3298 47.2484 66.2888 48.6038 67.0075 49.1377Z" fill="white"/>
<path d="M67.0075 49.1377C67.2939 48.6894 67.4503 48.1705 67.4593 47.6386C67.2745 47.351 66.7406 46.7555 66.5352 47.0019C66.3298 47.2484 66.2888 48.6038 67.0075 49.1377Z" stroke="white" stroke-width="0.22" stroke-miterlimit="2.61"/>
<path fill-rule="evenodd" clip-rule="evenodd" d="M67.1512 51.4789C67.3953 51.0456 67.5292 50.559 67.5414 50.0619C67.3361 49.7744 67.028 49.6922 66.8226 49.9387C66.6173 50.1851 66.4119 50.9655 67.1512 51.4789Z" fill="white"/>
<path d="M67.1512 51.4789C67.3953 51.0456 67.5292 50.559 67.5414 50.0619C67.3361 49.7744 67.028 49.6922 66.8226 49.9387C66.6173 50.1851 66.4119 50.9655 67.1512 51.4789Z" stroke="white" stroke-width="0.22" stroke-miterlimit="2.61"/>
<path fill-rule="evenodd" clip-rule="evenodd" d="M67.2128 53.3683C67.336 53.0602 67.9932 52.1977 67.9316 51.6432C67.87 51.0887 67.0896 52.0745 66.8842 52.3209C66.3708 52.5263 66.4735 52.8754 67.2128 53.3683Z" fill="white"/>
<path d="M67.2128 53.3683C67.336 53.0602 67.9932 52.1977 67.9316 51.6432C67.87 51.0887 67.0896 52.0745 66.8842 52.3209C66.3708 52.5263 66.4735 52.8754 67.2128 53.3683Z" stroke="white" stroke-width="0.22" stroke-miterlimit="2.61"/>
<path fill-rule="evenodd" clip-rule="evenodd" d="M68.0138 54.929C68.137 54.6415 68.7941 53.7584 68.712 53.2245C68.6299 52.6905 67.8905 53.6557 67.6852 53.9022C67.4798 54.1486 67.1718 54.4156 68.0138 54.929Z" fill="white"/>
<path d="M68.0138 54.929C68.137 54.6415 68.7941 53.7584 68.712 53.2245C68.6299 52.6905 67.8905 53.6557 67.6852 53.9022C67.4798 54.1486 67.1718 54.4156 68.0138 54.929Z" stroke="white" stroke-width="0.22" stroke-miterlimit="2.61"/>
<path d="M105.452 2.02686H113.194L122.641 26.6707H122.826V2.02686H129.623V44.6608H122.744L112.27 17.3266H112.147V44.6608H105.452V2.02686Z" fill="#ED1C24"/>
<path d="M142.315 2.02686H152.583L160.798 44.7429H153.199L151.146 34.4746H142.541L140.631 44.7429H133.731L142.315 2.02686ZM150.16 28.211L147.1 10.4879H146.915L143.753 28.211H150.16Z" fill="#ED1C24"/>
<path d="M172.216 2.02686H182.485L190.699 44.7429H183.101L181.047 34.4746H172.463L170.553 44.7429H163.55L172.216 2.02686ZM180.061 28.2931L177.001 10.4879H176.858L173.674 28.211L180.061 28.2931Z" fill="#ED1C24"/>
<path d="M193.882 34.5567V11.9665C193.882 5.14838 199.037 1.26697 205.732 1.26697C212.016 1.26697 216.678 4.96355 216.678 11.1861V15.9917H209.86V11.9871C209.84 11.4382 209.711 10.8988 209.483 10.3995C209.254 9.90017 208.929 9.4508 208.527 9.07703C208.124 8.70326 207.652 8.4124 207.138 8.22106C206.623 8.02973 206.075 7.94166 205.527 7.96189C204.978 7.98211 204.438 8.11024 203.939 8.33895C203.44 8.56766 202.99 8.89248 202.617 9.29485C202.243 9.69723 201.952 10.1693 201.761 10.6841C201.569 11.1989 201.481 11.7463 201.501 12.2951V34.1255C201.419 34.714 201.471 35.3134 201.652 35.8795C201.832 36.4455 202.138 36.9636 202.546 37.3954C202.955 37.8273 203.455 38.1618 204.01 38.3743C204.565 38.5868 205.16 38.6718 205.752 38.623C206.294 38.668 206.84 38.5961 207.352 38.4122C207.863 38.2283 208.33 37.9367 208.719 37.557C209.108 37.1774 209.412 36.7185 209.609 36.2116C209.805 35.7046 209.891 35.1613 209.86 34.6183V30.511H216.678V34.9264C216.678 41.3338 212.078 45.1947 205.67 45.1947C198.791 45.2563 193.882 41.7445 193.882 34.5567Z" fill="#ED1C24"/>
<path d="M238.611 2.02686H248.879L257.094 44.7429H249.495L247.442 34.4746H238.632L236.722 44.7429H229.719L238.611 2.02686ZM246.435 28.2931L243.396 10.4879H243.211L240.049 28.211L246.435 28.2931Z" fill="#58595B"/>
<path d="M268.943 28.0878H261.057V23.1796H269.026V14.6774H273.934V23.1796H281.943V28.0878H273.996V36.4667H269.087L268.943 28.0878Z" fill="#58595B"/>
<path d="M294.614 28.0878H286.646V23.1796H294.614V14.6774H299.522V23.1796H307.532V28.0878H299.584V36.4667H294.676L294.614 28.0878Z" fill="#58595B"/>
<path d="M111.531 51.6637H117.014L124.161 87.3562H120.053L118 76.7183H110.093L108.04 87.3562H104.24L111.531 51.6637ZM117.302 73.3297L114.139 56.4076H113.995L110.812 73.3297H117.302Z" fill="#58595B"/>
<path d="M127.447 79.881V59.3444C127.447 54.4157 130.897 51.1298 136.134 51.1298C141.37 51.1298 144.225 54.1692 144.225 58.3792V62.4865H140.528V59.0569C140.557 58.4734 140.46 57.8906 140.245 57.3474C140.03 56.8042 139.702 56.313 139.282 55.9068C138.862 55.5006 138.36 55.1886 137.81 54.9916C137.26 54.7947 136.675 54.7174 136.093 54.7648C135.468 54.7093 134.839 54.7975 134.254 55.0227C133.668 55.248 133.143 55.6042 132.716 56.0641C132.29 56.5241 131.975 57.0755 131.795 57.6761C131.615 58.2768 131.574 58.9107 131.677 59.5293V79.4497C131.606 80.0695 131.673 80.6973 131.872 81.2885C132.071 81.8798 132.398 82.4199 132.829 82.8707C133.26 83.3215 133.785 83.6719 134.367 83.897C134.949 84.1221 135.573 84.2164 136.195 84.1731C136.753 84.2039 137.312 84.1204 137.836 83.9278C138.361 83.7352 138.841 83.4375 139.247 83.053C139.652 82.6685 139.975 82.2053 140.196 81.6916C140.416 81.178 140.529 80.6248 140.528 80.0658V76.5746H144.225V80.2712C144.264 81.3266 144.078 82.3783 143.68 83.3565C143.281 84.3347 142.68 85.2171 141.915 85.9452C141.15 86.6734 140.239 87.2306 139.242 87.5801C138.245 87.9296 137.186 88.0633 136.134 87.9724C130.958 87.8697 127.447 85.0151 127.447 79.881Z" fill="#58595B"/>
<path d="M148.722 79.881V59.3444C148.722 54.4157 152.173 51.1298 157.409 51.1298C162.646 51.1298 165.501 54.1692 165.501 58.3792V62.4865H161.804V59.0569C161.832 58.4734 161.736 57.8906 161.521 57.3474C161.306 56.8042 160.978 56.313 160.558 55.9068C160.138 55.5006 159.636 55.1886 159.086 54.9916C158.536 54.7947 157.951 54.7174 157.368 54.7648C156.737 54.6957 156.099 54.7738 155.503 54.993C154.907 55.2122 154.37 55.5666 153.934 56.0283C153.499 56.4899 153.176 57.0463 152.991 57.6538C152.807 58.2612 152.765 58.9032 152.871 59.5293V79.4497C152.795 80.0758 152.86 80.711 153.061 81.3088C153.262 81.9065 153.594 82.4518 154.033 82.9046C154.472 83.3574 155.007 83.7063 155.598 83.9258C156.19 84.1453 156.822 84.2298 157.451 84.1731C158.01 84.2068 158.571 84.1255 159.098 83.9342C159.625 83.7429 160.108 83.4457 160.515 83.0609C160.923 82.6761 161.248 82.2118 161.47 81.6967C161.691 81.1816 161.805 80.6266 161.804 80.0658V76.5746H165.501V80.2712C165.54 81.3266 165.354 82.3783 164.956 83.3565C164.557 84.3347 163.956 85.2171 163.191 85.9452C162.426 86.6734 161.515 87.2306 160.518 87.5801C159.521 87.9296 158.462 88.0633 157.409 87.9724C152.214 87.8697 148.722 85.0151 148.722 79.881Z" fill="#58595B"/>
<path d="M170.491 51.7664H178.336C183.963 51.7664 186.756 55.3603 186.756 61.6445C186.756 66.6965 184.908 69.8592 182.012 70.886L187.105 87.3152H183.019L178.172 71.8512H174.64V87.3768H170.532L170.491 51.7664ZM178.233 68.6475C181.17 68.6475 182.628 66.2858 182.628 61.9937C182.628 58.5024 181.581 55.2577 178.069 55.2577H174.64V68.6475H178.233Z" fill="#58595B"/>
<path d="M192.014 51.7664H206.143V55.2577H196.1V66.984H204.13V70.5369H196.1V83.7624H206.184V87.3563H192.014V51.7664Z" fill="#58595B"/>
<path d="M210.928 51.7664H219.368C224.051 51.7664 227.583 54.1487 227.583 59.2418V79.2649C227.583 84.7687 223.989 87.3563 219.204 87.3563H210.866L210.928 51.7664ZM218.957 83.7624C219.567 83.8243 220.183 83.7491 220.759 83.5423C221.336 83.3355 221.859 83.0024 222.29 82.5672C222.721 82.1321 223.05 81.606 223.251 81.0275C223.453 80.449 223.522 79.8327 223.455 79.2238V59.6525C223.494 59.0583 223.402 58.4628 223.188 57.9074C222.974 57.3519 222.641 56.8497 222.213 56.4356C221.785 56.0214 221.273 55.7052 220.71 55.5089C220.148 55.3127 219.55 55.2409 218.957 55.2987H215.014V83.7624H218.957Z" fill="#58595B"/>
<path d="M232.943 51.7664H237.05V87.3563H232.943V51.7664Z" fill="#58595B"/>
<path d="M247.873 55.2577H241.075V51.7664H258.757V55.2577H251.96V87.3563H247.852L247.873 55.2577Z" fill="#58595B"/>
<path d="M262.741 51.7664H276.871V55.2577H266.828V66.984H274.879V70.5369H266.828V83.7624H276.912V87.3563H262.741V51.7664Z" fill="#58595B"/>
<path d="M281.594 51.7664H290.035C294.737 51.7664 298.249 54.1487 298.249 59.2418V79.2649C298.249 84.7687 294.655 87.3563 289.85 87.3563H281.594V51.7664ZM289.809 83.7624C290.418 83.8243 291.034 83.7491 291.61 83.5423C292.187 83.3355 292.71 83.0024 293.141 82.5672C293.573 82.1321 293.901 81.606 294.102 81.0275C294.304 80.449 294.374 79.8327 294.306 79.2238V59.6525C294.345 59.0583 294.254 58.4628 294.039 57.9074C293.825 57.3519 293.492 56.8497 293.064 56.4356C292.636 56.0214 292.124 55.7052 291.562 55.5089C290.999 55.3127 290.401 55.2409 289.809 55.2987H285.701V83.7624H289.809Z" fill="#58595B"/>
</svg>
