<svg width="609" height="121" viewBox="0 0 609 121" fill="none" xmlns="http://www.w3.org/2000/svg">
<g clip-path="url(#clip0_1_66)">
<path d="M479.243 41.6997H288.103V78.9078H479.243V41.6997Z" fill="#1B1B1B"/>
<path d="M444.168 0H288.103V37.2081H444.168V0Z" fill="#1B1B1B"/>
<path d="M141.052 0V16.346H153.561V120.632H175.058V16.346H188.005V0H141.052Z" fill="#E31E29"/>
<path d="M217.785 0V45.6512H212.489V0H192.182L192.327 120.632H212.489V62.0217H217.785V120.632H237.945V0H217.785Z" fill="#B81D81"/>
<path d="M242.949 0V120.632H282.978V102.47H263.862V62.0217H279.893V47.2954H263.862V16.346H282.978V0H242.949Z" fill="#2650A3"/>
<path d="M296.727 4.76147H293.666V32.5939H296.727V4.76147Z" fill="white"/>
<path d="M301.585 4.76147H306.442L310.037 19.2422C310.646 21.6966 311.228 24.5436 311.689 27.7097C312.103 24.9363 312.66 22.1138 313.365 19.2668L317.009 4.76147H321.866V32.5939H319.147V6.72496L312.71 32.5939H310.814L304.282 6.72496V32.5939H301.585V4.76147Z" fill="white"/>
<path d="M326.506 4.76147H331.365C337.802 4.76147 341.08 7.21583 341.08 12.2964C341.08 17.3769 337.897 19.8559 331.365 19.8559H329.421V32.5939H326.384L326.506 4.76147ZM332.165 17.4996C336.199 17.4996 338.213 15.7815 338.213 12.5909C338.213 9.40021 336.199 7.36309 332.165 7.36309H329.542V17.4996H332.165Z" fill="white"/>
<path d="M347.128 4.76147H351.33L357.864 32.5939H354.633L352.91 24.3963H345.404L343.654 32.5939H340.644L347.128 4.76147ZM352.351 21.7702L349.217 7.21583L346.132 21.7702H352.351Z" fill="white"/>
<path d="M376.349 24.0773C376.349 29.9433 373.459 33.1339 368.552 33.1339C362.989 33.1339 360.124 28.4462 360.124 19.0459C360.124 9.03213 362.771 4.17249 368.673 4.17249C373.168 4.17249 375.96 7.38771 375.96 12.91H372.997C372.804 8.81124 371.176 6.67594 368.552 6.67594C364.617 6.67594 363.209 10.6029 363.209 18.7759C363.209 26.9489 364.739 30.5814 369.039 30.5814C371.71 30.5814 373.484 28.2743 373.484 24.0527V23.4637H376.253L376.349 24.0773Z" fill="white"/>
<path d="M384.608 7.1422H378.656V4.76147H393.644V7.1422H387.619V32.5939H384.608V7.1422Z" fill="white"/>
<path d="M293.569 46.4611H299.034C305.471 46.4611 308.629 48.9154 308.629 53.8242C308.736 55.3138 308.326 56.7948 307.472 58.0131C306.616 59.2314 305.368 60.1106 303.941 60.4999L308.799 74.3425H305.496L301.001 61.1136C299.982 61.1136 298.889 61.1136 297.82 61.1136H296.629V74.269H293.569V46.4611ZM299.228 58.7328C303.309 58.7328 305.373 57.1129 305.373 53.8242C305.373 50.5353 303.359 48.9154 299.228 48.9154H296.629V58.61L299.228 58.7328Z" fill="white"/>
<path d="M317.883 46.4611H322.084L328.619 74.2936H325.388L323.664 66.0959H316.159L314.409 74.2936H311.398L317.883 46.4611ZM323.032 63.4698L319.899 48.94L316.814 63.4698H323.032Z" fill="white"/>
<path d="M334.862 48.6208V74.2936H332.165V46.4611H336.635L342.781 62.2425C343.654 64.5252 344.481 66.8323 345.209 69.1885C345.021 67.1653 344.941 65.1335 344.966 63.1016V46.4611H347.637V74.2936H344.627L337.122 55.0513C336.222 52.7442 335.469 50.5843 334.862 48.6208Z" fill="white"/>
<path d="M351.914 46.4611H354.999V61.3345L363.839 46.4611H366.901L360.949 56.2786L367.847 74.2936H364.544L358.982 59.2483L354.974 65.9486V74.2936H351.914V46.4611Z" fill="white"/>
<path d="M374.625 46.4611H371.565V74.2936H374.625V46.4611Z" fill="white"/>
<path d="M381.232 48.6208V74.2936H378.56V46.4611H383.028L389.174 62.2425C390.024 64.5252 390.85 66.8323 391.604 69.1885C391.415 67.1653 391.334 65.1335 391.361 63.1016V46.4611H394.033V74.2936H391.02L383.515 55.0513C382.592 52.7442 381.864 50.5843 381.232 48.6208Z" fill="white"/>
<path d="M411.837 72.6738C411.19 73.4088 410.386 73.9854 409.485 74.3597C408.583 74.7338 407.611 74.8959 406.64 74.8335C400.988 74.8335 398.154 70.1376 398.137 60.7455C398.137 50.7317 400.785 45.8721 406.687 45.8721C411.18 45.8721 413.974 49.0872 413.974 54.6342H411.012C410.792 50.5108 409.189 48.3754 406.542 48.3754C402.534 48.3754 401.247 52.3515 401.247 60.6473C401.247 68.4522 402.825 72.281 406.906 72.281C409.554 72.281 411.326 70.3911 411.326 67.004V63.8135H407.003V61.3591H414.29V74.3918H412.153L411.837 72.6738Z" fill="white"/>
<path d="M420.995 66.9059C421.214 70.5384 422.694 72.2564 425.852 72.2564C426.449 72.2792 427.045 72.1738 427.598 71.9474C428.152 71.7209 428.652 71.3783 429.065 70.9423C429.477 70.5063 429.795 69.9868 429.994 69.4179C430.195 68.849 430.274 68.2438 430.224 67.6422C430.224 64.6234 428.087 62.8562 424.444 60.2791C420.8 57.702 418.663 55.9102 418.663 52.1306C418.674 51.2831 418.856 50.4466 419.195 49.6713C419.534 48.8959 420.024 48.1976 420.635 47.6179C421.248 47.0383 421.97 46.5892 422.757 46.2978C423.546 46.0063 424.383 45.8782 425.22 45.921C426.21 45.8609 427.2 46.0169 428.125 46.3783C429.048 46.7396 429.885 47.2979 430.576 48.0153C431.268 48.7326 431.798 49.5921 432.131 50.5352C432.465 51.4784 432.593 52.4829 432.509 53.4804H429.667C429.399 50.0444 427.966 48.3018 425.318 48.3018C424.793 48.2556 424.264 48.3235 423.766 48.5012C423.268 48.6791 422.815 48.9623 422.435 49.3321C422.056 49.7018 421.759 50.1495 421.564 50.6448C421.371 51.1403 421.284 51.672 421.309 52.2042C421.325 52.8192 421.461 53.4251 421.711 53.986C421.96 54.5468 422.32 55.051 422.767 55.4685C424.527 56.9918 426.384 58.3938 428.33 59.6655C429.718 60.4545 430.881 61.5917 431.706 62.9676C432.532 64.3436 432.991 65.9114 433.043 67.5195C433.102 68.5023 432.955 69.4868 432.61 70.4078C432.266 71.3289 431.731 72.1651 431.042 72.8616C430.352 73.5578 429.525 74.0981 428.613 74.4465C427.702 74.7949 426.727 74.9435 425.756 74.8825C421.068 74.8825 418.299 72.0355 418.201 66.9549L420.995 66.9059Z" fill="white"/>
<path d="M301.39 83.3992H288.103V120.607H301.39V83.3992Z" fill="#E4243C"/>
<path d="M314.652 83.3992H301.365V120.607H314.652V83.3992Z" fill="#DEA63A"/>
<path d="M327.964 83.3992H314.677V120.607H327.964V83.3992Z" fill="#4C9E45"/>
<path d="M341.226 83.3992H327.939V120.607H341.226V83.3992Z" fill="#C4202F"/>
<path d="M354.538 83.3992H341.251V120.607H354.538V83.3992Z" fill="#EF412B"/>
<path d="M367.823 83.3992H354.538V120.607H367.823V83.3992Z" fill="#26BDE3"/>
<path d="M381.109 83.3992H367.823V120.607H381.109V83.3992Z" fill="#FAC212"/>
<path d="M394.396 83.3992H381.109V120.607H394.396V83.3992Z" fill="#A31D43"/>
<path d="M407.683 83.3992H394.396V120.607H407.683V83.3992Z" fill="#F26A2C"/>
<path d="M420.97 83.3992H407.683V120.607H420.97V83.3992Z" fill="#DE1767"/>
<path d="M434.257 83.3992H420.97V120.607H434.257V83.3992Z" fill="#F99E26"/>
<path d="M447.544 83.3992H434.257V120.607H447.544V83.3992Z" fill="#BF8C2C"/>
<path d="M460.829 83.3992H447.544V120.607H460.829V83.3992Z" fill="#DE1767"/>
<path d="M474.116 83.3992H460.829V120.607H474.116V83.3992Z" fill="#1B95D3"/>
<path d="M487.403 83.3992H474.116V120.607H487.403V83.3992Z" fill="#5BBA47"/>
<path d="M500.69 83.3992H487.403V120.607H500.69V83.3992Z" fill="#006A9E"/>
<path d="M513.977 83.3992H500.69V120.607H513.977V83.3992Z" fill="#18486B"/>
<path d="M0 2.01257H13.9911L30.9941 46.5101H31.3099V2.01257H43.2848V79.0305H31.1398L12.2908 29.6733H12.145V79.0305H0V2.01257Z" fill="#58595B"/>
<path d="M52.1507 63.1507V37.4535C52.1507 26.2126 60.3609 20.2731 69.9796 20.2731C79.5986 20.2731 87.9543 25.6726 87.9543 37.0118V63.0525C87.9543 74.7108 79.8171 80.233 69.9796 80.233C59.7293 80.1103 52.1507 74.7108 52.1507 63.1507ZM75.2992 63.8133V36.8153C75.3919 36.0471 75.3224 35.2677 75.0951 34.5286C74.8677 33.7895 74.488 33.1075 73.9807 32.5277C73.4734 31.9478 72.8502 31.4832 72.1521 31.1646C71.4541 30.8462 70.697 30.6808 69.931 30.6795C66.1904 30.6795 64.7087 33.5756 64.7087 36.938V63.8133C64.6067 64.5764 64.6697 65.3525 64.8932 66.0887C65.1167 66.8246 65.4953 67.503 66.0033 68.0769C66.5112 68.6508 67.1361 69.1065 67.8353 69.4129C68.5343 69.7192 69.2908 69.8687 70.0526 69.851C74.1576 69.9493 75.2992 66.9305 75.2992 63.8133Z" fill="#58595B"/>
<path d="M96.0671 63.2734H108.042V79.0305H96.0671V63.2734Z" fill="#58595B"/>
<path d="M122.155 15.3152L116.592 16.7142L114.892 6.89676L127.62 1.98804H134.907V79.0305H122.155V15.3152Z" fill="#58595B"/>
<path d="M0 85.9027H6.1211V121H0V85.9027Z" fill="#58595B"/>
<path d="M11.6591 85.9027H17.9745L25.6502 106.151H25.7959V85.9027H31.2369V121H25.6988L17.1972 98.5426H17.0029V121H11.6591V85.9027Z" fill="#58595B"/>
<path d="M44.7908 85.9027H51.0091V121H44.7908V85.9027Z" fill="#58595B"/>
<path d="M56.4501 85.9027H62.7655L70.4412 106.225H70.5869V85.9027H76.0279V121H70.4412L61.9397 98.5426V121H56.4501V85.9027Z" fill="#58595B"/>
<path d="M81.5173 85.9027H91.0876C96.1398 85.9027 100.172 88.5534 100.172 94.0512V112.287C100.172 118.178 96.1398 120.926 90.9903 120.926H81.5173V85.9027ZM90.456 115.625C90.935 115.652 91.4142 115.574 91.8604 115.397C92.3068 115.219 92.7099 114.946 93.0422 114.596C93.3744 114.247 93.6278 113.829 93.7852 113.371C93.9425 112.913 94.0001 112.426 93.9538 111.943V94.763C93.9969 94.2857 93.934 93.805 93.7695 93.3555C93.6052 92.9061 93.3434 92.4995 93.0035 92.1653C92.6636 91.8313 92.2541 91.5782 91.8048 91.4247C91.3557 91.2711 90.8783 91.2209 90.4074 91.2778H87.5897V115.821L90.456 115.625Z" fill="#58595B"/>
<path d="M105.322 85.9027H111.443V121H105.322V85.9027Z" fill="#58595B"/>
<path d="M122.811 85.9027H131.166L137.919 121H131.749L130.146 112.508H123.005L121.45 121H115.766L122.811 85.9027ZM129.174 107.477L126.746 92.9222H126.551L123.879 107.501L129.174 107.477Z" fill="#58595B"/>
<path d="M521.763 120V115.786L530.363 102.499C530.994 101.524 531.581 100.593 532.126 99.704C532.699 98.8153 533.158 97.898 533.502 96.952C533.875 95.9773 534.061 94.9167 534.061 93.77C534.061 92.48 533.832 91.491 533.373 90.803C532.914 90.115 532.198 89.771 531.223 89.771C530.306 89.771 529.589 90.029 529.073 90.545C528.557 91.061 528.199 91.7347 527.998 92.566C527.826 93.3973 527.74 94.3147 527.74 95.318V96.78H521.892V95.232C521.892 93.168 522.193 91.362 522.795 89.814C523.426 88.2373 524.415 87.0047 525.762 86.116C527.109 85.2273 528.872 84.783 531.051 84.783C534.032 84.783 536.268 85.5857 537.759 87.191C539.25 88.7963 539.995 91.0323 539.995 93.899C539.995 95.3323 539.794 96.6367 539.393 97.812C538.992 98.9587 538.461 100.062 537.802 101.123C537.143 102.184 536.426 103.273 535.652 104.391L528.514 115.227H539.092V120H521.763ZM552.855 120.516C550.82 120.516 549.128 120.086 547.781 119.226C546.462 118.366 545.459 117.176 544.771 115.657C544.112 114.138 543.782 112.389 543.782 110.411V94.974C543.782 92.9387 544.097 91.1613 544.728 89.642C545.387 88.094 546.376 86.89 547.695 86.03C549.042 85.17 550.762 84.74 552.855 84.74C554.948 84.74 556.653 85.17 557.972 86.03C559.319 86.89 560.308 88.094 560.939 89.642C561.598 91.1613 561.928 92.9387 561.928 94.974V110.411C561.928 112.389 561.584 114.138 560.896 115.657C560.237 117.176 559.233 118.366 557.886 119.226C556.567 120.086 554.89 120.516 552.855 120.516ZM552.855 115.399C553.744 115.399 554.403 115.127 554.833 114.582C555.263 114.037 555.55 113.378 555.693 112.604C555.836 111.83 555.908 111.07 555.908 110.325V95.06C555.908 94.2573 555.836 93.469 555.693 92.695C555.578 91.8923 555.306 91.2187 554.876 90.674C554.446 90.1293 553.772 89.857 552.855 89.857C551.938 89.857 551.264 90.1293 550.834 90.674C550.404 91.2187 550.117 91.8923 549.974 92.695C549.859 93.469 549.802 94.2573 549.802 95.06V110.325C549.802 111.07 549.874 111.83 550.017 112.604C550.189 113.378 550.49 114.037 550.92 114.582C551.35 115.127 551.995 115.399 552.855 115.399ZM566.107 120V115.786L574.707 102.499C575.337 101.524 575.925 100.593 576.47 99.704C577.043 98.8153 577.502 97.898 577.846 96.952C578.218 95.9773 578.405 94.9167 578.405 93.77C578.405 92.48 578.175 91.491 577.717 90.803C577.258 90.115 576.541 89.771 575.567 89.771C574.649 89.771 573.933 90.029 573.417 90.545C572.901 91.061 572.542 91.7347 572.342 92.566C572.17 93.3973 572.084 94.3147 572.084 95.318V96.78H566.236V95.232C566.236 93.168 566.537 91.362 567.139 89.814C567.769 88.2373 568.758 87.0047 570.106 86.116C571.453 85.2273 573.216 84.783 575.395 84.783C578.376 84.783 580.612 85.5857 582.103 87.191C583.593 88.7963 584.339 91.0323 584.339 93.899C584.339 95.3323 584.138 96.6367 583.737 97.812C583.335 98.9587 582.805 100.062 582.146 101.123C581.486 102.184 580.77 103.273 579.996 104.391L572.858 115.227H583.436V120H566.107ZM596.468 120.516C594.289 120.516 592.526 120.115 591.179 119.312C589.86 118.481 588.9 117.32 588.298 115.829C587.696 114.31 587.395 112.547 587.395 110.54V109.336H593.286C593.286 109.422 593.286 109.565 593.286 109.766C593.286 109.967 593.286 110.167 593.286 110.368C593.314 111.457 593.415 112.389 593.587 113.163C593.759 113.937 594.074 114.525 594.533 114.926C595.02 115.327 595.679 115.528 596.511 115.528C597.399 115.528 598.059 115.313 598.489 114.883C598.947 114.453 599.248 113.822 599.392 112.991C599.564 112.16 599.65 111.171 599.65 110.024C599.65 108.247 599.363 106.856 598.79 105.853C598.245 104.821 597.17 104.262 595.565 104.176C595.507 104.176 595.364 104.176 595.135 104.176C594.934 104.176 594.748 104.176 594.576 104.176V99.403C594.719 99.403 594.862 99.403 595.006 99.403C595.178 99.403 595.335 99.403 595.479 99.403C597.055 99.3743 598.145 98.9587 598.747 98.156C599.349 97.3247 599.65 96.006 599.65 94.2C599.65 92.738 599.42 91.5913 598.962 90.76C598.532 89.9287 597.686 89.513 596.425 89.513C595.192 89.513 594.361 89.9717 593.931 90.889C593.529 91.8063 593.314 92.996 593.286 94.458C593.286 94.6587 593.286 94.8737 593.286 95.103C593.286 95.3037 593.286 95.5187 593.286 95.748H587.395V94.071C587.395 92.093 587.739 90.416 588.427 89.04C589.143 87.6353 590.175 86.5747 591.523 85.858C592.87 85.1127 594.504 84.74 596.425 84.74C598.403 84.74 600.065 85.0983 601.413 85.815C602.76 86.5317 603.778 87.578 604.466 88.954C605.182 90.3013 605.541 91.964 605.541 93.942C605.541 96.006 605.111 97.6973 604.251 99.016C603.391 100.335 602.287 101.195 600.94 101.596C601.857 101.883 602.66 102.384 603.348 103.101C604.036 103.789 604.566 104.706 604.939 105.853C605.34 106.971 605.541 108.333 605.541 109.938C605.541 112.031 605.24 113.88 604.638 115.485C604.064 117.062 603.104 118.294 601.757 119.183C600.438 120.072 598.675 120.516 596.468 120.516Z" fill="#6D6E71"/>
</g>
<defs>
<clipPath id="clip0_1_66">
<rect width="609" height="121" fill="white"/>
</clipPath>
</defs>
</svg>
