<svg id="Layer_1" data-name="Layer 1" xmlns="http://www.w3.org/2000/svg" viewBox="0 0 187.29 85.37"><defs><style>.cls-1{fill:#282425;}.cls-1,.cls-10,.cls-11,.cls-12,.cls-14,.cls-15,.cls-16,.cls-17,.cls-18,.cls-19,.cls-2,.cls-20,.cls-21,.cls-22,.cls-23,.cls-24,.cls-25,.cls-26,.cls-27,.cls-28,.cls-29,.cls-3,.cls-30,.cls-31,.cls-32,.cls-33,.cls-34,.cls-35,.cls-4,.cls-5,.cls-6,.cls-7,.cls-8,.cls-9{fill-rule:evenodd;}.cls-2{fill:#2a2729;}.cls-3{fill:#2a2627;}.cls-4{fill:#2a2728;}.cls-5{fill:#272425;}.cls-6{fill:#292526;}.cls-7{fill:#262223;}.cls-8{fill:#252122;}.cls-9{fill:#282526;}.cls-10{fill:#252223;}.cls-11{fill:#262324;}.cls-12,.cls-13{fill:#010101;}.cls-14{fill:#5c0a39;}.cls-15{fill:#5b0a38;}.cls-16{fill:#cde4d1;}.cls-17{fill:#cae1ce;}.cls-18{fill:#5d0b3b;}.cls-19{fill:#cee2d1;}.cls-20{fill:#c9e1cd;}.cls-21{fill:#cbe2cf;}.cls-22{fill:#5a0937;}.cls-23{fill:#d1e5d3;}.cls-24{fill:#cae3cf;}.cls-25{fill:#c7e0cc;}.cls-26{fill:#eaf0e9;}.cls-27{fill:#d1e5d5;}.cls-28{fill:#c4dec9;}.cls-29{fill:#cfe4d3;}.cls-30{fill:#cce2d0;}.cls-31{fill:#d4e6d6;}.cls-32{fill:#c6d4c8;}.cls-33{fill:#d4e6d7;}.cls-34{fill:#5d0c3a;}.cls-35{fill:#5e0e3b;}.cls-36{fill:#c2d150;}</style></defs><path class="cls-1" d="M88.34,5.21a2.34,2.34,0,0,1,.29.41.6.6,0,0,1-.21.76.65.65,0,0,1-1-.75,2.13,2.13,0,0,1,.27-.42Z"/><path class="cls-2" d="M88.69,8.21A.66.66,0,1,1,88,7.48C88.4,7.47,88.66,7.71,88.69,8.21Z"/><path class="cls-1" d="M88,33.75c-.44,0-.68-.28-.67-.68a.66.66,0,0,1,1.32,0A.62.62,0,0,1,88,33.75Z"/><path class="cls-3" d="M88.7,39.66c0,.37-.23.67-.64.68a.62.62,0,0,1-.68-.63A.6.6,0,0,1,88,39,.66.66,0,0,1,88.7,39.66Z"/><path class="cls-4" d="M88.69,58a.64.64,0,0,1-.66.68.61.61,0,0,1-.66-.65.62.62,0,0,1,.65-.67A.64.64,0,0,1,88.69,58Z"/><path class="cls-4" d="M88,15.15a.6.6,0,0,1,.66.68.66.66,0,1,1-1.31-.06A.6.6,0,0,1,88,15.15Z"/><path class="cls-1" d="M88.06,35.65a.62.62,0,0,1,.62.67.66.66,0,0,1-1.31,0A.62.62,0,0,1,88.06,35.65Z"/><path class="cls-1" d="M88,11.27a.59.59,0,0,1-.62-.67.6.6,0,0,1,.67-.63.61.61,0,0,1,.63.69A.59.59,0,0,1,88,11.27Z"/><path class="cls-3" d="M88,13.76a.59.59,0,0,1-.6-.65.66.66,0,0,1,1.31,0C88.68,13.52,88.45,13.76,88,13.76Z"/><path class="cls-5" d="M87.94,30.6a.6.6,0,0,1-.57-.67.66.66,0,0,1,1.31.05C88.67,30.37,88.43,30.61,87.94,30.6Z"/><path class="cls-6" d="M88.7,43.42c0,.45-.22.73-.65.74a.61.61,0,0,1-.68-.63.6.6,0,0,1,.63-.68A.66.66,0,0,1,88.7,43.42Z"/><path class="cls-7" d="M88.69,18.48c0,.41-.27.66-.68.65a.66.66,0,0,1,0-1.31C88.46,17.82,88.65,18.1,88.69,18.48Z"/><path class="cls-7" d="M88,21.89a.66.66,0,1,1,.65-.69A.63.63,0,0,1,88,21.89Z"/><path class="cls-8" d="M88,24.64a.66.66,0,0,1,0-1.31.59.59,0,0,1,.65.64A.61.61,0,0,1,88,24.64Z"/><path class="cls-6" d="M88,64.81a.6.6,0,0,1-.6-.69.6.6,0,0,1,.68-.62.62.62,0,0,1,.63.69A.63.63,0,0,1,88,64.81Z"/><path class="cls-9" d="M88.7,47.7c-.07.44-.3.69-.7.67a.66.66,0,0,1,.06-1.31C88.49,47.07,88.64,47.36,88.7,47.7Z"/><path class="cls-3" d="M88,70.4c.46,0,.7.25.7.65a.66.66,0,1,1-.7-.65Z"/><path class="cls-10" d="M88,78a.62.62,0,0,1,.64.66.58.58,0,0,1-.64.65.59.59,0,0,1-.65-.64C87.37,78.31,87.63,78.09,88,78Z"/><path class="cls-6" d="M87.92,52c.51,0,.75.23.76.62a.65.65,0,1,1-1.3.05A.58.58,0,0,1,87.92,52Z"/><path class="cls-11" d="M88.69,26.94c0,.4-.22.67-.64.68a.59.59,0,0,1-.67-.62.6.6,0,0,1,.62-.68C88.42,26.3,88.62,26.56,88.69,26.94Z"/><path class="cls-12" d="M57.9,47.79H35.61c-.26,0-.67.17-.75-.17a4.72,4.72,0,0,1,0-1.3s.14-.09.21-.1H80.26c.24,0,.64-.15.7.13a3.89,3.89,0,0,1,0,1.36c0,.16-.31.08-.48.08H57.9Z"/><path class="cls-12" d="M76.86,19.8,69.6,17.61,58.21,14.17a1.48,1.48,0,0,0-1,0l-18,5.5-.28.07c0-.52,0-1,0-1.49s.35-.34.57-.41q7.34-2.28,14.68-4.53c1.06-.33,2.13-.64,3.19-1a1.52,1.52,0,0,1,1,0C64.28,14.19,70.13,16,76,17.77c.69.21,1,.49.87,1.2A5.73,5.73,0,0,0,76.86,19.8Z"/><path class="cls-12" d="M57.83,45.1c-6.8,0-13.6,0-20.4,0-.76,0-.64-.38-.64-.83s-.08-.78.63-.78q20.43,0,40.86,0c.58,0,.67.19.65.7,0,.89,0,.89-.9.89Z"/><path class="cls-12" d="M57.9,42.37c-6.1,0-12.2,0-18.3,0-.53,0-.66-.14-.64-.65,0-.94,0-.94.93-.94H76.16c.23,0,.61-.18.67.18a3.5,3.5,0,0,1,0,1.29c0,.21-.39.09-.6.09Z"/><path class="cls-12" d="M57.9,20.82c6.1,0,12.2,0,18.3,0,.55,0,.73.14.67.68s.16.91-.67.91q-18.27,0-36.54,0c-.52,0-.73-.09-.7-.67,0-.89,0-.9.89-.9Z"/><path class="cls-12" d="M73.29,19.71a17.16,17.16,0,0,1-8.09-1c-2.24-.79-4.54-1.39-6.8-2.1a1.69,1.69,0,0,0-1,0l-10,3a5,5,0,0,1-1.54.23c-1.2,0-2.41,0-3.63-.11,1.57-.48,3.14-1,4.71-1.44l10.5-3.2a1.28,1.28,0,0,1,.82,0L72.9,19.55C73,19.59,73.16,19.66,73.29,19.71Z"/><path class="cls-12" d="M43.83,31.29V38.5c0,1-.38,1.45-1.25,1.46s-1.37-.45-1.37-1.43q0-7.31,0-14.62c0-.44.1-.62.57-.59s.46.12.45.46c0,.81,0,1.62,0,2.42V38.53c0,.21-.06.5.26.51s.34-.25.33-.51V24c0-.35-.09-.67.49-.67s.55.32.54.7Z"/><path class="cls-12" d="M49.21,31.25c0-2.44,0-4.89,0-7.34,0-.38,0-.64.51-.58.26,0,.34.12.32.36V24c0,5.09,0,10.19,0,15.28,0,.24.23.63-.33.68s-.54-.3-.57-.64c-.25-2.48-.49-5-.74-7.52a1.47,1.47,0,0,0-.14.89V39.4c0,.33,0,.58-.46.58s-.39-.28-.39-.56V23.88c0-.28-.09-.56.39-.56s.49.22.52.56q.4,3.68.82,7.35Z"/><path class="cls-12" d="M61.07,36.28c.26-1.77-.43-3.68-1-5.59a20.18,20.18,0,0,1-.49-6.24c0-.72.61-1.14,1.42-1.11a1.08,1.08,0,0,1,1.14,1.16c0,1.14,0,2.27,0,3.41,0,.47-.27.39-.54.4s-.55,0-.53-.42c0-1,0-2,0-3,0-.23.12-.62-.26-.61s-.19.37-.21.59a20.42,20.42,0,0,0,1.17,8.09c.62,2,.32,4,.33,6,0,.67-.59,1.06-1.35,1a1.09,1.09,0,0,1-1.2-1.11c0-1.31,0-2.62,0-3.93,0-.46.31-.32.55-.34s.52-.06.51.37c0,1.07,0,2.14,0,3.21a4.51,4.51,0,0,0,0,.52c0,.16,0,.35.24.34s.22-.18.23-.35Z"/><path class="cls-12" d="M65.75,31.61c0-2.29,0-4.59,0-6.89,0-.89.44-1.35,1.23-1.38a1.23,1.23,0,0,1,1.38,1.24c0,1.12,0,2.23,0,3.35,0,.49-.31.36-.57.37s-.49,0-.48-.38c0-1.05,0-2.1,0-3.15,0-.25,0-.54-.33-.54s-.33.29-.33.53V38.47c0,.28,0,.58.38.56s.27-.33.27-.57c0-1.11,0-2.23,0-3.34,0-.42.09-.55.53-.56s.52.21.51.59c0,1.13,0,2.27,0,3.41,0,.93-.48,1.41-1.35,1.4s-1.26-.46-1.27-1.39C65.74,36.25,65.75,33.93,65.75,31.61Z"/><path class="cls-12" d="M53.72,31.6c0-2.51,0-5,0-7.54,0-.63.19-.8.77-.73a4.71,4.71,0,0,0,.92,0c.33,0,.56,0,.56.47s-.23.45-.54.41-.55.08-.54.53q0,2.69,0,5.37c0,.44.12.6.54.54s.53,0,.54.47-.19.52-.54.46-.55.1-.54.53c0,2.12,0,4.24,0,6.36,0,.5.12.67.61.6a1.45,1.45,0,0,1,.72,0c.23.1.08.39.1.59S56.14,40,56,40c-.57,0-1.14,0-1.71,0s-.53-.15-.53-.56C53.73,36.81,53.72,34.21,53.72,31.6Z"/><path class="cls-13" d="M74.67,24.65a1.16,1.16,0,0,0-1.28-1.31c-1,0-1.45.47-1.45,1.51V38.48c0,1,.45,1.48,1.33,1.48s1.4-.49,1.4-1.49V31.66C74.67,29.32,74.68,27,74.67,24.65Zm-1.34,14.4c-.41,0-.36-.36-.36-.64V24.84c0-.23-.07-.54.25-.6.49-.08.44.29.44.6,0,2.27,0,4.55,0,6.82s0,4.5,0,6.75C73.66,38.67,73.77,39.05,73.33,39.05Z"/><path class="cls-13" d="M45.14,54.78h.59v2.59a3.14,3.14,0,0,1-.15,1.08,1.33,1.33,0,0,1-.55.65,2,2,0,0,1-1.05.25,2.14,2.14,0,0,1-1-.22,1.21,1.21,0,0,1-.57-.63,3.09,3.09,0,0,1-.17-1.13V54.78h.59v2.59a2.55,2.55,0,0,0,.11.86.8.8,0,0,0,.38.43,1.26,1.26,0,0,0,.64.15,1.25,1.25,0,0,0,.94-.3,1.67,1.67,0,0,0,.28-1.14Z"/><path class="cls-13" d="M46.55,59.27V56H47v.46a1.18,1.18,0,0,1,1-.54,1.37,1.37,0,0,1,.54.11.83.83,0,0,1,.37.28,1,1,0,0,1,.17.4,3.31,3.31,0,0,1,0,.54v2h-.55v-2a1.57,1.57,0,0,0-.06-.5.6.6,0,0,0-.23-.27.71.71,0,0,0-.39-.1,1,1,0,0,0-.61.22,1.12,1.12,0,0,0-.25.85v1.78Z"/><path class="cls-13" d="M49.93,55.41v-.63h.56v.63Zm0,3.86V56h.56v3.25Z"/><path class="cls-13" d="M52.42,58.78l.08.49a2.1,2.1,0,0,1-.41,0,1,1,0,0,1-.47-.09.5.5,0,0,1-.23-.25,1.81,1.81,0,0,1-.07-.65V56.45h-.4V56h.4v-.81l.55-.33V56h.55v.43h-.55v1.9a.88.88,0,0,0,0,.3.24.24,0,0,0,.09.11.36.36,0,0,0,.19,0Z"/><path class="cls-13" d="M55.08,58.22l.58.07a1.44,1.44,0,0,1-.5.78,1.56,1.56,0,0,1-.94.27,1.47,1.47,0,0,1-1.13-.44,1.7,1.7,0,0,1-.42-1.23,1.75,1.75,0,0,1,.43-1.27,1.51,1.51,0,0,1,2.16,0,1.73,1.73,0,0,1,.41,1.25v.14H53.24a1.23,1.23,0,0,0,.31.83.88.88,0,0,0,.68.28.8.8,0,0,0,.51-.16A.94.94,0,0,0,55.08,58.22Zm-1.81-.89h1.82a1.06,1.06,0,0,0-.21-.62.83.83,0,0,0-.68-.31.87.87,0,0,0-.64.25A1,1,0,0,0,53.27,57.33Z"/><path class="cls-13" d="M58.35,59.27v-.41a1,1,0,0,1-.91.48,1.26,1.26,0,0,1-.71-.21,1.37,1.37,0,0,1-.51-.6,2.07,2.07,0,0,1-.18-.88,2.52,2.52,0,0,1,.16-.89,1.3,1.3,0,0,1,.49-.61,1.32,1.32,0,0,1,.73-.21,1,1,0,0,1,.52.13,1.08,1.08,0,0,1,.38.32V54.78h.54v4.49Zm-1.74-1.62a1.43,1.43,0,0,0,.26.93.79.79,0,0,0,1.24,0,1.37,1.37,0,0,0,.25-.91,1.49,1.49,0,0,0-.26-1,.78.78,0,0,0-.63-.31.74.74,0,0,0-.61.3A1.46,1.46,0,0,0,56.61,57.65Z"/><path class="cls-13" d="M61.33,59.27V54.78h.61l2.36,3.53V54.78h.57v4.49h-.61L61.9,55.74v3.53Z"/><path class="cls-13" d="M67.81,58.87a2,2,0,0,1-.59.37,1.68,1.68,0,0,1-.6.1,1.17,1.17,0,0,1-.83-.26.87.87,0,0,1-.29-.67.89.89,0,0,1,.11-.43.82.82,0,0,1,.29-.32,1.27,1.27,0,0,1,.39-.18,3.1,3.1,0,0,1,.49-.08,6,6,0,0,0,1-.19v-.15a.58.58,0,0,0-.16-.47A.89.89,0,0,0,67,56.4a.94.94,0,0,0-.58.14.85.85,0,0,0-.27.48l-.54-.08a1.33,1.33,0,0,1,.24-.55,1,1,0,0,1,.49-.33,2.09,2.09,0,0,1,.74-.12,1.82,1.82,0,0,1,.67.1.91.91,0,0,1,.39.25.84.84,0,0,1,.17.37,3,3,0,0,1,0,.51v.74a9.18,9.18,0,0,0,0,1,1.07,1.07,0,0,0,.14.39h-.58A1.45,1.45,0,0,1,67.81,58.87Zm0-1.23a4.29,4.29,0,0,1-.9.21,1.9,1.9,0,0,0-.48.11.48.48,0,0,0-.3.44.5.5,0,0,0,.17.37.75.75,0,0,0,.49.14,1,1,0,0,0,.56-.14.85.85,0,0,0,.37-.38,1.3,1.3,0,0,0,.09-.55Z"/><path class="cls-13" d="M70.28,58.78l.08.49a2.27,2.27,0,0,1-.42,0,1,1,0,0,1-.46-.09.58.58,0,0,1-.24-.25,2.19,2.19,0,0,1-.06-.65V56.45h-.41V56h.41v-.81l.54-.33V56h.56v.43h-.56v1.9a.88.88,0,0,0,0,.3.21.21,0,0,0,.1.11.34.34,0,0,0,.19,0Z"/><path class="cls-13" d="M70.72,55.41v-.63h.55v.63Zm0,3.86V56h.55v3.25Z"/><path class="cls-13" d="M71.79,57.64a1.67,1.67,0,0,1,.51-1.34,1.51,1.51,0,0,1,1-.36,1.48,1.48,0,0,1,1.1.44,1.71,1.71,0,0,1,.42,1.22,2.24,2.24,0,0,1-.18,1,1.41,1.41,0,0,1-.55.56,1.62,1.62,0,0,1-.79.19,1.46,1.46,0,0,1-1.1-.43A1.75,1.75,0,0,1,71.79,57.64Zm.57,0a1.41,1.41,0,0,0,.27.94.89.89,0,0,0,.69.31.86.86,0,0,0,.68-.31,1.38,1.38,0,0,0,.28-.95,1.32,1.32,0,0,0-.28-.92.86.86,0,0,0-.68-.31.89.89,0,0,0-.69.31A1.39,1.39,0,0,0,72.36,57.64Z"/><path class="cls-13" d="M75.38,59.27V56h.5v.46a1.18,1.18,0,0,1,1-.54,1.41,1.41,0,0,1,.54.11.83.83,0,0,1,.37.28,1,1,0,0,1,.17.4,3.31,3.31,0,0,1,0,.54v2h-.55v-2a1.29,1.29,0,0,0-.07-.5.58.58,0,0,0-.22-.27.71.71,0,0,0-.39-.1,1,1,0,0,0-.61.22,1.12,1.12,0,0,0-.25.85v1.78Z"/><path class="cls-13" d="M78.55,58.3l.54-.09a.79.79,0,0,0,.26.51.94.94,0,0,0,.59.17.87.87,0,0,0,.56-.15.49.49,0,0,0,.18-.37.33.33,0,0,0-.16-.29,2.36,2.36,0,0,0-.56-.19,5.1,5.1,0,0,1-.84-.26.85.85,0,0,1-.36-.31.83.83,0,0,1-.12-.44.79.79,0,0,1,.1-.4.91.91,0,0,1,.27-.31,1.14,1.14,0,0,1,.35-.16,1.51,1.51,0,0,1,.48-.07,2,2,0,0,1,.67.11,1,1,0,0,1,.43.3,1.33,1.33,0,0,1,.19.51l-.54.07a.58.58,0,0,0-.21-.39.76.76,0,0,0-.5-.14.92.92,0,0,0-.54.12.38.38,0,0,0-.17.3.34.34,0,0,0,.07.19.57.57,0,0,0,.21.15l.49.14a8.16,8.16,0,0,1,.82.25.94.94,0,0,1,.36.29.81.81,0,0,1,.13.47.89.89,0,0,1-.16.52,1,1,0,0,1-.46.38,1.7,1.7,0,0,1-.69.13,1.52,1.52,0,0,1-1-.26A1.19,1.19,0,0,1,78.55,58.3Z"/><path class="cls-13" d="M11.13,65.72V61.23h3.25v.53H11.72v1.38h2.49v.52H11.72v1.53h2.76v.53Z"/><path class="cls-13" d="M17.24,65.72v-.41a1,1,0,0,1-.91.49,1.25,1.25,0,0,1-.72-.22,1.42,1.42,0,0,1-.5-.6,2,2,0,0,1-.18-.88,2.31,2.31,0,0,1,.16-.89,1.27,1.27,0,0,1,.49-.6,1.22,1.22,0,0,1,.72-.22,1.12,1.12,0,0,1,.53.13,1,1,0,0,1,.37.32V61.23h.55v4.49ZM15.5,64.1a1.36,1.36,0,0,0,.26.93.79.79,0,0,0,.62.31.81.81,0,0,0,.62-.29,1.43,1.43,0,0,0,.25-.91,1.55,1.55,0,0,0-.26-1,.81.81,0,0,0-.63-.31.78.78,0,0,0-.62.3A1.52,1.52,0,0,0,15.5,64.1Z"/><path class="cls-13" d="M20.65,65.72v-.47a1.22,1.22,0,0,1-1,.55,1.41,1.41,0,0,1-.54-.11,1,1,0,0,1-.37-.28,1.18,1.18,0,0,1-.17-.41,3.13,3.13,0,0,1,0-.51v-2h.55v1.8a2.58,2.58,0,0,0,0,.59.53.53,0,0,0,.22.34.69.69,0,0,0,.41.12.88.88,0,0,0,.47-.13.73.73,0,0,0,.31-.34,1.78,1.78,0,0,0,.09-.64V62.47h.55v3.25Z"/><path class="cls-13" d="M24,64.53l.54.07a1.41,1.41,0,0,1-.45.88,1.36,1.36,0,0,1-.9.32,1.42,1.42,0,0,1-1.08-.44,1.77,1.77,0,0,1-.4-1.25,2.36,2.36,0,0,1,.17-.92,1.25,1.25,0,0,1,.53-.6,1.62,1.62,0,0,1,.78-.2,1.35,1.35,0,0,1,.87.27,1.26,1.26,0,0,1,.43.76l-.53.09a1,1,0,0,0-.28-.5.69.69,0,0,0-.47-.16.85.85,0,0,0-.67.3,1.37,1.37,0,0,0-.26.94,1.47,1.47,0,0,0,.25,1,.81.81,0,0,0,.65.29.76.76,0,0,0,.55-.2A1,1,0,0,0,24,64.53Z"/><path class="cls-13" d="M27.05,65.32a1.85,1.85,0,0,1-.59.37,1.74,1.74,0,0,1-.61.11,1.16,1.16,0,0,1-.82-.27.85.85,0,0,1-.29-.66.93.93,0,0,1,.11-.44.89.89,0,0,1,.29-.32,1.27,1.27,0,0,1,.39-.18,2.91,2.91,0,0,1,.49-.08,6,6,0,0,0,1-.19v-.15a.58.58,0,0,0-.16-.47.89.89,0,0,0-.62-.19,1,1,0,0,0-.58.14.85.85,0,0,0-.27.48l-.54-.07a1.38,1.38,0,0,1,.24-.56,1.06,1.06,0,0,1,.49-.33,2.09,2.09,0,0,1,.74-.12,2.06,2.06,0,0,1,.67.1,1,1,0,0,1,.39.25.84.84,0,0,1,.17.37,3,3,0,0,1,0,.51v.74a9,9,0,0,0,0,1,1.07,1.07,0,0,0,.14.39h-.58A1.36,1.36,0,0,1,27.05,65.32Zm0-1.23a4.29,4.29,0,0,1-.9.21,1.9,1.9,0,0,0-.48.11.44.44,0,0,0-.22.18.47.47,0,0,0-.08.26.48.48,0,0,0,.17.37.7.7,0,0,0,.49.14,1.13,1.13,0,0,0,.56-.13.87.87,0,0,0,.37-.39,1.27,1.27,0,0,0,.09-.55Z"/><path class="cls-13" d="M29.52,65.23l.08.49a2.37,2.37,0,0,1-.42,0,1,1,0,0,1-.46-.1.53.53,0,0,1-.24-.25,2.08,2.08,0,0,1-.07-.65V62.9H28v-.43h.4v-.81l.55-.33v1.14h.56v.43H29v1.9a.88.88,0,0,0,0,.3.18.18,0,0,0,.1.11.32.32,0,0,0,.19,0Z"/><path class="cls-13" d="M30,61.86v-.63h.56v.63Zm0,3.86V62.47h.56v3.25Z"/><path class="cls-13" d="M31,64.1a1.66,1.66,0,0,1,.51-1.34,1.52,1.52,0,0,1,1-.37,1.48,1.48,0,0,1,1.1.44,1.71,1.71,0,0,1,.42,1.22,2.24,2.24,0,0,1-.18,1,1.41,1.41,0,0,1-.55.56,1.66,1.66,0,0,1-.79.2,1.45,1.45,0,0,1-1.1-.44A1.7,1.7,0,0,1,31,64.1Zm.57,0a1.39,1.39,0,0,0,.27.93.88.88,0,0,0,.69.31.86.86,0,0,0,.68-.31,1.38,1.38,0,0,0,.28-1,1.32,1.32,0,0,0-.28-.92.89.89,0,0,0-.68-.31.88.88,0,0,0-.69.31A1.41,1.41,0,0,0,31.6,64.1Z"/><path class="cls-13" d="M34.62,65.72V62.47h.5v.46a1.17,1.17,0,0,1,1-.54,1.41,1.41,0,0,1,.54.11.83.83,0,0,1,.37.28,1,1,0,0,1,.17.41,3.16,3.16,0,0,1,0,.53v2h-.55v-2a1.29,1.29,0,0,0-.07-.5.54.54,0,0,0-.23-.27.74.74,0,0,0-.38-.1.89.89,0,0,0-.61.23,1.11,1.11,0,0,0-.25.85v1.77Z"/><path class="cls-13" d="M40.13,65.32a1.85,1.85,0,0,1-.59.37,1.74,1.74,0,0,1-.61.11,1.16,1.16,0,0,1-.82-.27.85.85,0,0,1-.29-.66.93.93,0,0,1,.11-.44.89.89,0,0,1,.29-.32,1.27,1.27,0,0,1,.39-.18,2.91,2.91,0,0,1,.49-.08,6,6,0,0,0,1-.19v-.15a.58.58,0,0,0-.16-.47.89.89,0,0,0-.62-.19,1,1,0,0,0-.58.14.85.85,0,0,0-.27.48l-.54-.07a1.38,1.38,0,0,1,.24-.56,1.06,1.06,0,0,1,.49-.33,2,2,0,0,1,.73-.12,2.08,2.08,0,0,1,.68.1.77.77,0,0,1,.56.62,3.27,3.27,0,0,1,0,.51v.74a8.07,8.07,0,0,0,0,1,1.07,1.07,0,0,0,.14.39h-.58A1.36,1.36,0,0,1,40.13,65.32Zm0-1.23a4.29,4.29,0,0,1-.9.21,2.13,2.13,0,0,0-.49.11.46.46,0,0,0-.21.18.47.47,0,0,0-.08.26.48.48,0,0,0,.17.37.7.7,0,0,0,.49.14,1.13,1.13,0,0,0,.56-.13.87.87,0,0,0,.37-.39,1.27,1.27,0,0,0,.09-.55Z"/><path class="cls-13" d="M41.38,65.72V61.23h.55v4.49Z"/><path class="cls-13" d="M42.83,65.72V65.1h.62v.62a1.13,1.13,0,0,1-.12.56.76.76,0,0,1-.39.33l-.15-.23a.58.58,0,0,0,.26-.23,1.11,1.11,0,0,0,.09-.43Z"/><path class="cls-13" d="M45.82,64.28l.57,0a1.09,1.09,0,0,0,.18.55,1,1,0,0,0,.45.35,1.74,1.74,0,0,0,.69.14,1.79,1.79,0,0,0,.6-.1.79.79,0,0,0,.39-.28.63.63,0,0,0,.13-.39.61.61,0,0,0-.12-.37,1,1,0,0,0-.41-.26,7.45,7.45,0,0,0-.8-.22,4.21,4.21,0,0,1-.87-.28,1.24,1.24,0,0,1-.48-.42,1.07,1.07,0,0,1-.15-.56,1.09,1.09,0,0,1,.19-.63,1.2,1.2,0,0,1,.56-.45,2,2,0,0,1,.83-.16,2.42,2.42,0,0,1,.88.16,1.34,1.34,0,0,1,.59.48,1.42,1.42,0,0,1,.22.71l-.57,0a1,1,0,0,0-.31-.65,1.26,1.26,0,0,0-.79-.21,1.18,1.18,0,0,0-.78.2.58.58,0,0,0-.25.47.53.53,0,0,0,.17.4,2.56,2.56,0,0,0,.9.32,6.1,6.1,0,0,1,1,.29,1.25,1.25,0,0,1,.58.46,1,1,0,0,1,.19.63,1.28,1.28,0,0,1-.2.68,1.36,1.36,0,0,1-.59.49,2.05,2.05,0,0,1-.87.18,2.52,2.52,0,0,1-1-.18,1.42,1.42,0,0,1-.65-.53A1.52,1.52,0,0,1,45.82,64.28Z"/><path class="cls-13" d="M52.16,64.53l.54.07a1.41,1.41,0,0,1-.45.88,1.36,1.36,0,0,1-.9.32,1.41,1.41,0,0,1-1.08-.44,1.77,1.77,0,0,1-.4-1.25,2.36,2.36,0,0,1,.17-.92,1.25,1.25,0,0,1,.53-.6,1.62,1.62,0,0,1,.78-.2,1.35,1.35,0,0,1,.87.27,1.26,1.26,0,0,1,.43.76l-.54.09a.9.9,0,0,0-.27-.5.69.69,0,0,0-.47-.16.85.85,0,0,0-.67.3,1.37,1.37,0,0,0-.26.94,1.47,1.47,0,0,0,.25,1,.81.81,0,0,0,.65.29.72.72,0,0,0,.54-.2A1,1,0,0,0,52.16,64.53Z"/><path class="cls-13" d="M53.07,61.86v-.63h.55v.63Zm0,3.86V62.47h.55v3.25Z"/><path class="cls-13" d="M56.59,64.68l.57.07a1.39,1.39,0,0,1-.5.77,1.69,1.69,0,0,1-2.07-.16,1.74,1.74,0,0,1-.42-1.24,1.76,1.76,0,0,1,.43-1.27,1.43,1.43,0,0,1,1.09-.46,1.39,1.39,0,0,1,1.07.45,1.75,1.75,0,0,1,.41,1.25v.15H54.74a1.22,1.22,0,0,0,.31.82.9.9,0,0,0,.68.28.8.8,0,0,0,.51-.16A1,1,0,0,0,56.59,64.68Zm-1.82-.9h1.82a1,1,0,0,0-.21-.61.81.81,0,0,0-.68-.32.87.87,0,0,0-.64.25A1,1,0,0,0,54.77,63.78Z"/><path class="cls-13" d="M57.74,65.72V62.47h.5v.46a1.16,1.16,0,0,1,1-.54,1.33,1.33,0,0,1,.54.11.78.78,0,0,1,.37.28,1,1,0,0,1,.18.41,3.16,3.16,0,0,1,0,.53v2h-.56v-2a1.57,1.57,0,0,0-.06-.5.54.54,0,0,0-.23-.27.8.8,0,0,0-.38-.1.89.89,0,0,0-.61.23,1.1,1.1,0,0,0-.26.85v1.77Z"/><path class="cls-13" d="M62.33,65.23l.08.49a2.27,2.27,0,0,1-.42,0,1,1,0,0,1-.46-.1.58.58,0,0,1-.24-.25,2.19,2.19,0,0,1-.06-.65V62.9h-.41v-.43h.41v-.81l.55-.33v1.14h.55v.43h-.55v1.9a1.53,1.53,0,0,0,0,.3.22.22,0,0,0,.1.11.34.34,0,0,0,.19,0Z"/><path class="cls-13" d="M62.77,61.86v-.63h.55v.63Zm0,3.86V62.47h.55v3.25Z"/><path class="cls-13" d="M64.18,65.72V62.9H63.7v-.43h.48v-.35a1.5,1.5,0,0,1,.06-.49.71.71,0,0,1,.28-.34,1,1,0,0,1,.56-.14,2.52,2.52,0,0,1,.52.06l-.08.48-.33,0a.43.43,0,0,0-.35.11.56.56,0,0,0-.11.4v.3h.64v.43h-.64v2.82Z"/><path class="cls-13" d="M65.69,61.86v-.63h.55v.63Zm0,3.86V62.47h.55v3.25Z"/><path class="cls-13" d="M69.1,64.53l.54.07a1.41,1.41,0,0,1-.45.88,1.36,1.36,0,0,1-.9.32,1.41,1.41,0,0,1-1.08-.44,1.77,1.77,0,0,1-.4-1.25,2.36,2.36,0,0,1,.17-.92,1.25,1.25,0,0,1,.53-.6,1.62,1.62,0,0,1,.78-.2,1.35,1.35,0,0,1,.87.27,1.26,1.26,0,0,1,.43.76l-.53.09a1,1,0,0,0-.28-.5.69.69,0,0,0-.47-.16.85.85,0,0,0-.67.3,1.37,1.37,0,0,0-.26.94,1.47,1.47,0,0,0,.25,1,.81.81,0,0,0,.65.29.76.76,0,0,0,.55-.2A1,1,0,0,0,69.1,64.53Z"/><path class="cls-13" d="M73.77,65.32a1.85,1.85,0,0,1-.59.37,1.74,1.74,0,0,1-.61.11,1.14,1.14,0,0,1-.82-.27.85.85,0,0,1-.29-.66.93.93,0,0,1,.11-.44,1,1,0,0,1,.28-.32,1.32,1.32,0,0,1,.4-.18,2.91,2.91,0,0,1,.49-.08,5.81,5.81,0,0,0,1-.19,1.14,1.14,0,0,0,0-.15.58.58,0,0,0-.16-.47.9.9,0,0,0-.63-.19,1,1,0,0,0-.57.14.8.8,0,0,0-.28.48l-.54-.07a1.26,1.26,0,0,1,.25-.56,1.08,1.08,0,0,1,.48-.33,2.13,2.13,0,0,1,.74-.12,2.08,2.08,0,0,1,.68.1.93.93,0,0,1,.38.25.84.84,0,0,1,.17.37,3,3,0,0,1,0,.51v.74a6.31,6.31,0,0,0,0,1,1.07,1.07,0,0,0,.14.39h-.58A1.11,1.11,0,0,1,73.77,65.32Zm0-1.23a4.29,4.29,0,0,1-.9.21,2.15,2.15,0,0,0-.48.11.55.55,0,0,0-.22.18.46.46,0,0,0-.07.26.47.47,0,0,0,.16.37.73.73,0,0,0,.49.14,1.14,1.14,0,0,0,.57-.13.87.87,0,0,0,.37-.39,1.48,1.48,0,0,0,.08-.55Z"/><path class="cls-13" d="M75,65.72V62.47h.5v.46a1.16,1.16,0,0,1,1-.54,1.33,1.33,0,0,1,.54.11.78.78,0,0,1,.37.28,1,1,0,0,1,.18.41,3.16,3.16,0,0,1,0,.53v2h-.56v-2a1.57,1.57,0,0,0-.06-.5.54.54,0,0,0-.23-.27.8.8,0,0,0-.38-.1.89.89,0,0,0-.61.23,1.1,1.1,0,0,0-.26.85v1.77Z"/><path class="cls-13" d="M80.53,65.72v-.41a1,1,0,0,1-.91.49,1.25,1.25,0,0,1-.72-.22,1.35,1.35,0,0,1-.5-.6,2,2,0,0,1-.18-.88,2.31,2.31,0,0,1,.16-.89,1.27,1.27,0,0,1,.49-.6,1.2,1.2,0,0,1,.72-.22,1.11,1.11,0,0,1,.9.45V61.23H81v4.49ZM78.78,64.1a1.36,1.36,0,0,0,.27.93.78.78,0,0,0,1.23,0,1.37,1.37,0,0,0,.26-.91,1.55,1.55,0,0,0-.26-1,.81.81,0,0,0-.64-.31.76.76,0,0,0-.61.3A1.52,1.52,0,0,0,78.78,64.1Z"/><path class="cls-13" d="M28.35,70.6l.59.15a2,2,0,0,1-.67,1.12,1.88,1.88,0,0,1-1.19.38A2.19,2.19,0,0,1,25.9,72a1.92,1.92,0,0,1-.69-.86A3,3,0,0,1,25,69.9a2.65,2.65,0,0,1,.27-1.23,1.81,1.81,0,0,1,.76-.79,2.26,2.26,0,0,1,1.09-.27,1.86,1.86,0,0,1,1.14.34,1.82,1.82,0,0,1,.64,1l-.59.14a1.37,1.37,0,0,0-.45-.71,1.22,1.22,0,0,0-.75-.23,1.51,1.51,0,0,0-.87.25,1.38,1.38,0,0,0-.49.67,2.82,2.82,0,0,0-.14.86,2.75,2.75,0,0,0,.17,1,1.24,1.24,0,0,0,.52.64,1.48,1.48,0,0,0,.76.21,1.28,1.28,0,0,0,.85-.28A1.5,1.5,0,0,0,28.35,70.6Z"/><path class="cls-13" d="M31.63,72.18V71.7a1.18,1.18,0,0,1-1,.55,1.41,1.41,0,0,1-.54-.11.84.84,0,0,1-.37-.28,1,1,0,0,1-.17-.41,3.13,3.13,0,0,1,0-.51v-2H30v1.81a3.64,3.64,0,0,0,0,.58.62.62,0,0,0,.22.34.7.7,0,0,0,.42.12,1,1,0,0,0,.47-.12.73.73,0,0,0,.3-.35,1.78,1.78,0,0,0,.09-.64V68.92h.56v3.26Z"/><path class="cls-13" d="M32.87,72.18v-4.5h.55v4.5Z"/><path class="cls-13" d="M35.38,71.68l.08.49a2.37,2.37,0,0,1-.42,0,.89.89,0,0,1-.47-.1.47.47,0,0,1-.23-.25,1.81,1.81,0,0,1-.07-.65V69.35h-.4v-.43h.4v-.81l.55-.33v1.14h.56v.43h-.56v1.9a1,1,0,0,0,0,.31.19.19,0,0,0,.1.1.3.3,0,0,0,.18,0A1.19,1.19,0,0,0,35.38,71.68Z"/><path class="cls-13" d="M37.94,72.18V71.7a1.18,1.18,0,0,1-1,.55,1.41,1.41,0,0,1-.54-.11.84.84,0,0,1-.37-.28,1,1,0,0,1-.17-.41,3.13,3.13,0,0,1,0-.51v-2h.55v1.81a3.64,3.64,0,0,0,0,.58.62.62,0,0,0,.22.34.72.72,0,0,0,.42.12,1,1,0,0,0,.47-.12.73.73,0,0,0,.3-.35,1.78,1.78,0,0,0,.09-.64V68.92h.56v3.26Z"/><path class="cls-13" d="M39.19,72.18V68.92h.49v.49A1.42,1.42,0,0,1,40,69a.59.59,0,0,1,.36-.11A1.17,1.17,0,0,1,41,69l-.19.52a.81.81,0,0,0-.41-.12.46.46,0,0,0-.32.11.55.55,0,0,0-.21.3,2.15,2.15,0,0,0-.09.64v1.71Z"/><path class="cls-13" d="M43.3,71.77a1.85,1.85,0,0,1-.59.37,1.74,1.74,0,0,1-.61.11,1.2,1.2,0,0,1-.82-.26.88.88,0,0,1-.29-.67.93.93,0,0,1,.11-.44,1,1,0,0,1,.28-.32,1.32,1.32,0,0,1,.4-.18,4.51,4.51,0,0,1,.49-.08,5.08,5.08,0,0,0,1-.19V70a.59.59,0,0,0-.16-.48,1.18,1.18,0,0,0-1.2,0,.79.79,0,0,0-.27.48l-.54-.07a1.25,1.25,0,0,1,.24-.56,1.06,1.06,0,0,1,.49-.33,2.29,2.29,0,0,1,.73-.11,1.84,1.84,0,0,1,.68.1.78.78,0,0,1,.38.24.9.9,0,0,1,.18.38,5,5,0,0,1,0,.51v.73a8.42,8.42,0,0,0,0,1,1.22,1.22,0,0,0,.14.39h-.58A1.23,1.23,0,0,1,43.3,71.77Zm0-1.23a4.26,4.26,0,0,1-.91.21,2.15,2.15,0,0,0-.48.11.46.46,0,0,0-.21.18.42.42,0,0,0-.08.26.45.45,0,0,0,.17.37.7.7,0,0,0,.49.15,1.13,1.13,0,0,0,.56-.14.9.9,0,0,0,.37-.38,1.36,1.36,0,0,0,.09-.56Z"/><path class="cls-13" d="M44.55,72.18v-4.5h.55v4.5Z"/><path class="cls-13" d="M47.38,70a2.43,2.43,0,0,1,.6-1.75,2,2,0,0,1,1.55-.64,2.13,2.13,0,0,1,1.12.3,1.91,1.91,0,0,1,.76.83,2.63,2.63,0,0,1,.26,1.21,2.7,2.7,0,0,1-.27,1.22,2,2,0,0,1-.78.82,2.29,2.29,0,0,1-1.09.27,2.16,2.16,0,0,1-1.14-.3,2.12,2.12,0,0,1-.76-.84A2.55,2.55,0,0,1,47.38,70ZM48,70a1.82,1.82,0,0,0,.44,1.28,1.53,1.53,0,0,0,2.2,0,1.89,1.89,0,0,0,.43-1.34,2.42,2.42,0,0,0-.18-1,1.47,1.47,0,0,0-.55-.63,1.44,1.44,0,0,0-.8-.23,1.5,1.5,0,0,0-1.08.44A1.91,1.91,0,0,0,48,70Z"/><path class="cls-13" d="M52.26,72.18V68.92h.49v.49a1.29,1.29,0,0,1,.36-.45.54.54,0,0,1,.35-.11A1.17,1.17,0,0,1,54,69l-.19.52a.81.81,0,0,0-.41-.12.46.46,0,0,0-.32.11.55.55,0,0,0-.21.3,2.15,2.15,0,0,0-.09.64v1.71Z"/><path class="cls-13" d="M54.15,72.45l.53.08a.57.57,0,0,0,.19.36.93.93,0,0,0,.56.15,1,1,0,0,0,.59-.15.74.74,0,0,0,.28-.43,2.92,2.92,0,0,0,0-.71,1.15,1.15,0,0,1-.9.43,1.26,1.26,0,0,1-1-.49A1.88,1.88,0,0,1,54,70.53a2.2,2.2,0,0,1,.16-.86,1.43,1.43,0,0,1,.49-.61,1.38,1.38,0,0,1,.76-.21,1.17,1.17,0,0,1,.95.46v-.39h.51v2.81a2.71,2.71,0,0,1-.16,1.08,1.13,1.13,0,0,1-.49.5,1.86,1.86,0,0,1-1.77-.07A.88.88,0,0,1,54.15,72.45Zm.45-2a1.38,1.38,0,0,0,.26.93.8.8,0,0,0,.64.3.82.82,0,0,0,.63-.29,1.38,1.38,0,0,0,.26-.92,1.36,1.36,0,0,0-.26-.9.81.81,0,0,0-.64-.31.8.8,0,0,0-.63.3A1.35,1.35,0,0,0,54.6,70.49Z"/><path class="cls-13" d="M59.76,71.77a2,2,0,0,1-.59.37,1.78,1.78,0,0,1-.61.11,1.23,1.23,0,0,1-.83-.26.88.88,0,0,1-.28-.67.92.92,0,0,1,.1-.44,1,1,0,0,1,.29-.32,1.32,1.32,0,0,1,.4-.18,4.12,4.12,0,0,1,.49-.08,5.11,5.11,0,0,0,1-.19V70a.63.63,0,0,0-.15-.48,1,1,0,0,0-.63-.19,1,1,0,0,0-.58.14.85.85,0,0,0-.27.48l-.54-.07a1.38,1.38,0,0,1,.24-.56,1.18,1.18,0,0,1,.49-.33,2.35,2.35,0,0,1,.74-.11,1.88,1.88,0,0,1,.68.1.83.83,0,0,1,.38.24.89.89,0,0,1,.17.38,2.81,2.81,0,0,1,0,.51v.73a9.42,9.42,0,0,0,0,1,1.53,1.53,0,0,0,.14.39h-.57A1,1,0,0,1,59.76,71.77Zm0-1.23a4.29,4.29,0,0,1-.9.21,1.9,1.9,0,0,0-.48.11.44.44,0,0,0-.22.18.5.5,0,0,0-.08.26.48.48,0,0,0,.17.37.72.72,0,0,0,.49.15,1.2,1.2,0,0,0,.57-.14.94.94,0,0,0,.36-.38,1.36,1.36,0,0,0,.09-.56Z"/><path class="cls-13" d="M61,72.18V68.92h.49v.46a1.19,1.19,0,0,1,1-.53,1.33,1.33,0,0,1,.54.1.84.84,0,0,1,.37.28,1,1,0,0,1,.17.41,3.16,3.16,0,0,1,0,.53v2h-.55v-2a1.6,1.6,0,0,0-.06-.51.6.6,0,0,0-.23-.27.8.8,0,0,0-.39-.09.92.92,0,0,0-.61.22,1.11,1.11,0,0,0-.25.85v1.78Z"/><path class="cls-13" d="M64.41,68.32v-.64H65v.64Zm0,3.86V68.92H65v3.26Z"/><path class="cls-13" d="M65.4,72.18v-.45l2.07-2.38-.62,0H65.52v-.45h2.66v.37l-1.76,2.06-.34.38.69,0h1.51v.48Z"/><path class="cls-13" d="M70.85,71.77a2,2,0,0,1-.59.37,1.78,1.78,0,0,1-.61.11,1.23,1.23,0,0,1-.83-.26.88.88,0,0,1-.28-.67.92.92,0,0,1,.1-.44,1,1,0,0,1,.29-.32,1.32,1.32,0,0,1,.4-.18,4.12,4.12,0,0,1,.49-.08,5.11,5.11,0,0,0,1-.19V70a.63.63,0,0,0-.15-.48A1,1,0,0,0,70,69.3a1,1,0,0,0-.58.14.85.85,0,0,0-.27.48l-.54-.07a1.38,1.38,0,0,1,.24-.56,1.12,1.12,0,0,1,.49-.33,2.35,2.35,0,0,1,.74-.11,1.88,1.88,0,0,1,.68.1.83.83,0,0,1,.38.24.89.89,0,0,1,.17.38,2.81,2.81,0,0,1,0,.51v.73a9.42,9.42,0,0,0,0,1,1.53,1.53,0,0,0,.14.39H71A1,1,0,0,1,70.85,71.77Zm0-1.23a4.29,4.29,0,0,1-.9.21,1.9,1.9,0,0,0-.48.11.44.44,0,0,0-.22.18.5.5,0,0,0-.08.26.48.48,0,0,0,.17.37.7.7,0,0,0,.49.15,1.2,1.2,0,0,0,.57-.14.94.94,0,0,0,.36-.38,1.36,1.36,0,0,0,.09-.56Z"/><path class="cls-13" d="M73.31,71.68l.08.49a2.18,2.18,0,0,1-.42,0,.85.85,0,0,1-.46-.1.47.47,0,0,1-.23-.25,1.81,1.81,0,0,1-.07-.65V69.35H71.8v-.43h.41v-.81l.55-.33v1.14h.55v.43h-.55v1.9a1,1,0,0,0,0,.31.18.18,0,0,0,.09.1.34.34,0,0,0,.19,0A1.15,1.15,0,0,0,73.31,71.68Z"/><path class="cls-13" d="M73.75,68.32v-.64h.55v.64Zm0,3.86V68.92h.55v3.26Z"/><path class="cls-13" d="M74.83,70.55a1.67,1.67,0,0,1,.5-1.34,1.51,1.51,0,0,1,1-.36,1.43,1.43,0,0,1,1.1.44,1.69,1.69,0,0,1,.43,1.21,2.23,2.23,0,0,1-.19,1,1.35,1.35,0,0,1-.55.56,1.63,1.63,0,0,1-.79.2,1.47,1.47,0,0,1-1.1-.44A1.74,1.74,0,0,1,74.83,70.55Zm.56,0a1.31,1.31,0,0,0,.28.93.87.87,0,0,0,.68.32.89.89,0,0,0,.69-.32,1.42,1.42,0,0,0,.27-1,1.33,1.33,0,0,0-.28-.92.9.9,0,0,0-1.36,0A1.35,1.35,0,0,0,75.39,70.55Z"/><path class="cls-13" d="M78.42,72.18V68.92h.49v.46a1.19,1.19,0,0,1,1-.53,1.33,1.33,0,0,1,.54.1.91.91,0,0,1,.37.28,1,1,0,0,1,.17.41,3.16,3.16,0,0,1,0,.53v2h-.55v-2a1.6,1.6,0,0,0-.06-.51.6.6,0,0,0-.23-.27.8.8,0,0,0-.39-.09.9.9,0,0,0-.61.22,1.11,1.11,0,0,0-.25.85v1.78Z"/><path class="cls-14" d="M109.47,26.07a3.53,3.53,0,0,0,0-.46c-.06-.37.1-.47.46-.47,1.31,0,2.62,0,3.93,0h8.72c.41.85.19,1.24-.76,1.25-2.23,0-4.46,0-6.69,0-.22,0-.44,0-.65,0-.54,0-.74.21-.73.74,0,1.53,0,3.06,0,4.59,0,.24,0,.48,0,.72-.06.77-.36,1-1.07.68a.81.81,0,0,1-.3-.13c0-2.14,0-4.27,0-6.41-.23-.34-.59-.33-.94-.33A5.31,5.31,0,0,1,109.47,26.07Z"/><path class="cls-15" d="M120.76,32.12a1,1,0,0,0,.8-1.11c0-1,0-1.92,0-2.87,0-.17-.11-.48.18-.47s.7-.29.87.23a.83.83,0,0,1,.16.61c0,.81,0,1.62,0,2.42a2.3,2.3,0,0,1-3.6,2,.73.73,0,0,0-.88,0,2.11,2.11,0,0,1-2.78-.39,3,3,0,0,1-.55-1.75c0-.86,0-1.73,0-2.6,0-.51.12-.71.63-.63a1.82,1.82,0,0,0,.33,0c.53,1,.26,2.05.31,3.09a1.46,1.46,0,0,0,.49,1.22.66.66,0,0,0,.77.15,1,1,0,0,0,.79-1.13c0-.78,0-1.57,0-2.35,0-1,0-1,1-1a1.07,1.07,0,0,1,.22.86c0,.81,0,1.62,0,2.42A1.17,1.17,0,0,0,120.76,32.12Z"/><path class="cls-14" d="M126.4,33.14c-.22,0-.39-.09-.38-.4,0-1,0-1.91,0-2.86.17-2.09,1.83-2.92,3.76-1.95.92.44,1,1.31,1.1,2.15s0,1.4,0,2.1c0,1.1-.19,1.23-1.23.85,0-1,0-2,0-2.92a1.15,1.15,0,0,0-.13-.75,2.18,2.18,0,0,0-.4-.34,1.14,1.14,0,0,0-1.89.95c-.05.89,0,1.78,0,2.67C127.2,33.26,127,33.38,126.4,33.14Z"/><path class="cls-15" d="M96.21,32.67a3,3,0,0,1-.75-2.27c0-.67,0-1.35,0-2s.18-.93,1-.61a1.25,1.25,0,0,1,.17.82c0,.54,0,1.08,0,1.62a2.14,2.14,0,0,0,.85,1.94,1.27,1.27,0,0,0,1.59-1.28c0-.85.05-1.7,0-2.54,0-.59.15-.78.71-.69a1.67,1.67,0,0,0,.32,0,.42.42,0,0,1,.17.28,10.38,10.38,0,0,1-.16,3.77A2.36,2.36,0,0,1,96.21,32.67Z"/><path class="cls-14" d="M104.9,33c0-.78,0-1.56,0-2.34a3.91,3.91,0,0,0-.18-1.44c-1.39-1-2.37-.28-2.28,1.27a20.81,20.81,0,0,1,0,2.09c0,.32,0,.72-.52.65s-.7-.15-.66-.69c.07-1,0-2,0-3.06.34-1.46,1-1.94,2.77-2a1.74,1.74,0,0,1,1.39.68,2.87,2.87,0,0,1,.65,1.81c0,.74,0,1.49,0,2.23C106.11,33.2,105.84,33.36,104.9,33Z"/><path class="cls-16" d="M112.37,33a3.54,3.54,0,0,1,.45.08c.56.12.69-.13.68-.66,0-1.9,0-3.8,0-5.7,0-.45.14-.59.59-.59,2.53,0,5.06,0,7.59,0,1,0,1,0,.92-1,.63.08.56.54.55,1s-.38.42-.71.46c-2.39.26-4.8.05-7.19.11-1,0-1,.07-1,1.06,0,1.53,0,3.06,0,4.59,0,.5.16,1.07-.56,1.29S112.7,33.4,112.37,33Z"/><path class="cls-17" d="M115.51,32.62a2.86,2.86,0,0,0,2.08.53c.49-.09.83-.69,1.21-.63s.72.52,1.18.62A2.1,2.1,0,0,0,122.59,31c0-.8,0-1.61,0-2.42,0-.22,0-.43,0-.65.35-.13.5,0,.5.36,0,1.42,0,2.84,0,4.26,0,.52-1,1.27-1.7,1.29a2.41,2.41,0,0,1-1.75-.34c-.35-.29-.7,0-1,.1a2.66,2.66,0,0,1-3-.47A.58.58,0,0,1,115.51,32.62Z"/><path class="cls-18" d="M123.79,33c0-1.63,0-3.26,0-4.88,0-.17-.11-.48.19-.46s.7-.29.86.23a1.32,1.32,0,0,1,.19.88c0,1.16,0,2.32,0,3.47S124.8,33.49,123.79,33Z"/><path class="cls-19" d="M108.15,27.65c.77.31.83.94.8,1.66,0,1.06,0,2.13,0,3.2,0,.58-.1,1.08-.67,1.27s-.82-.33-1.11-.69a.56.56,0,0,1-.07-.18,3.48,3.48,0,0,1,0-2.52c0-.71,0-1.43,0-2.14,0-.2-.09-.44.14-.59a1.21,1.21,0,0,1,.19.87c0,1.18,0,2.36,0,3.54,0,.25-.1.69.3.67s.2-.43.2-.67c0-1.18,0-2.36,0-3.54A1.25,1.25,0,0,1,108.15,27.65Z"/><path class="cls-20" d="M96.21,32.67a3,3,0,0,0,1.71.51A2.12,2.12,0,0,0,100,31.39a22.12,22.12,0,0,0,.09-3.73.86.86,0,0,1,.57.92c0,.93,0,1.86,0,2.79a2.38,2.38,0,0,1-3.2,2.37A1.61,1.61,0,0,1,96.21,32.67Z"/><path class="cls-21" d="M101.31,29.49c0,1.05,0,2.09,0,3.14,0,.48.28.43.58.47s.4-.2.4-.48c0-.94,0-1.88,0-2.81a1.2,1.2,0,0,1,1-1.24,1.16,1.16,0,0,1,1.46.66c-.42.11-.88-.31-1.28.16a1.64,1.64,0,0,0-.41,1.07,13.61,13.61,0,0,1-.09,2.47.78.78,0,0,1-.81.7,1,1,0,0,1-.89-.7A12,12,0,0,1,101.31,29.49Z"/><path class="cls-22" d="M108.15,27.65c0,1.66,0,3.32,0,5,0,.29,0,.52-.41.48s-.57,0-.56-.47c0-1.66,0-3.32,0-5Z"/><path class="cls-23" d="M126.4,33.14c.5,0,.72-.15.68-.71a25.44,25.44,0,0,1,0-2.62,1.26,1.26,0,0,1,1-1.26,1.2,1.2,0,0,1,1.44.81c-1.2-.36-1.82.11-1.83,1.39,0,.72,0,1.44,0,2.15,0,.38-.2.75-.66.77S126.37,33.61,126.4,33.14Z"/><path class="cls-24" d="M129.69,33l.57.06c.32,0,.43-.08.43-.4,0-1,0-1.95,0-2.93a2.77,2.77,0,0,0-.86-1.83,1.33,1.33,0,0,1,1.17.81,3.17,3.17,0,0,1,.55,1.91c-.06.67,0,1.35,0,2,0,.34,0,.73-.36.82s-.87.23-1.21-.19C129.87,33.21,129.77,33.12,129.69,33Z"/><path class="cls-25" d="M123.79,33l.45.08c.44.09.61-.05.6-.54,0-1.55,0-3.1,0-4.65.48,0,.63.29.63.73,0,1.43,0,2.87,0,4.31a.72.72,0,0,1-.47.77.77.77,0,0,1-.87-.26A5.28,5.28,0,0,1,123.79,33Z"/><path class="cls-26" d="M107.1,30.39v2.52c-.28.16-.36.48-.56.71a.64.64,0,0,1-.8.24c-.3-.13-.69-.17-.61-.66.16-.23.31,0,.45,0,.46.14.68,0,.69-.49a26.2,26.2,0,0,0,0-2.94,2,2,0,0,0-1-1.62,3.54,3.54,0,0,0-1.19-.65,2.21,2.21,0,0,1,2.52,1.94A1.44,1.44,0,0,0,107.1,30.39Z"/><path class="cls-27" d="M120.76,32.12A1.07,1.07,0,0,1,119.31,31c0-1.12,0-2.23,0-3.34.69.28.76.88.78,1.5s0,1.39,0,2.08C120.11,31.69,120.24,32.06,120.76,32.12Z"/><path class="cls-28" d="M105.27,28.17a1.76,1.76,0,0,1,1.18,1.68q0,1.44,0,2.88c0,.26.06.55-.26.68a.64.64,0,0,1-.82-.15c-.05,0-.16,0-.24-.06s-.23,0-.23-.19c1,.17,1,.17,1-.83,0-.63,0-1.26,0-1.88A3.3,3.3,0,0,0,105.27,28.17Z"/><path class="cls-29" d="M117.48,32.11A1.07,1.07,0,0,1,116,31c0-.87,0-1.74,0-2.61,0-.26,0-.51-.07-.77,1.18.7.72,1.85.74,2.85,0,.36,0,.73.07,1.08S117.08,32.14,117.48,32.11Z"/><path class="cls-30" d="M97.51,32.15a1.24,1.24,0,0,1-1-1.32c0-1,0-2,0-3.06a.9.9,0,0,1,.65,1,10.69,10.69,0,0,0,.1,2.59C97.33,31.62,97.42,31.88,97.51,32.15Z"/><path class="cls-31" d="M124.79,25.17a.71.71,0,0,1,.82.72.69.69,0,0,1-.53.8c-.42.11-.89.1-1-.48A1,1,0,0,0,124.79,25.17Z"/><path class="cls-32" d="M109.47,26.07c.82,0,1.64.05,2.46.05.35,0,.54.09.42.48-.39,0-.78,0-1.16,0A2.32,2.32,0,0,1,109.47,26.07Z"/><path class="cls-33" d="M108.15,25.16a.69.69,0,0,1,.78.68.74.74,0,0,1-.5.82c-.51.2-.82,0-1.05-.47A.93.93,0,0,0,108.15,25.16Z"/><path class="cls-34" d="M108.15,25.16c.31.82.1,1.09-.77,1-.26-.27-.41-.58-.16-.93S107.82,25,108.15,25.16Z"/><path class="cls-35" d="M124.79,25.17c.3.79.1,1.06-.75,1-.29-.28-.47-.6-.18-1S124.46,25,124.79,25.17Z"/><path class="cls-36" d="M130.57,35.15a.87.87,0,0,0-1.14.49,17.76,17.76,0,0,1-3.68,5.76c-.15.16-.27.37-.47,0a5.7,5.7,0,0,0-2.29-2c-.41-.21-.32-.39-.11-.69a23.85,23.85,0,0,0,1.85-3.17c.06-.13.26-.29,0-.43a1.15,1.15,0,0,0-1.23.39,26.19,26.19,0,0,1-1.65,2.74.63.63,0,0,1-.86.3,22,22,0,0,0-6.12-1c-.33,0-.66,0-1,0s-.52-.15-.49-.53,0-.92,0-1.38-.06-.59-.52-.59-.58.12-.56.56,0,1.05,0,1.57c0,.34-.11.45-.44.48a20.33,20.33,0,0,0-2.47.31c-.46.09-.56-.09-.63-.47-.12-.68-.29-1.36-.42-2s-.59-.41-.93-.39-.2.35-.17.56c.07.45.17.9.27,1.35s.36.9.24,1.25-.77.38-1.16.59l-.12.05c-.26.1-.29.22-.19.5.2.6.54.62,1,.36s.81-.35,1,.39a15.61,15.61,0,0,0,2,4.54C111.92,47,111.3,47,114,46a18.06,18.06,0,0,0,7.6-5.53c.14-.16.22-.44.56-.26A6,6,0,0,1,124.31,42a.59.59,0,0,1-.14,1,17.77,17.77,0,0,1-4,2.44,16.38,16.38,0,0,1-6.24,1.31c-.58,0-.45.35-.49.69s.15.43.49.42A18.67,18.67,0,0,0,119,47a17.87,17.87,0,0,0,10.15-8.31,15.2,15.2,0,0,0,1.45-3.08C130.65,35.45,130.84,35.27,130.57,35.15ZM111.7,44.77a21.49,21.49,0,0,1-2.4-5.29c-.09-.26.07-.31.25-.33l2.32-.34c.22,0,.38,0,.37.31A45.61,45.61,0,0,1,111.7,44.77Zm1.08.48c.14-1.3.29-2.52.41-3.75.07-.78.11-1.57.16-2.35,0-.3.11-.48.47-.47a23.67,23.67,0,0,1,7,1A18.35,18.35,0,0,1,112.78,45.25Z"/><path class="cls-36" d="M113.42,21.05c0-.25.14-.55-.38-.56a18.19,18.19,0,0,1-3.12-.28c-1.53-.3-1.51-.29-1.16-1.8a15.86,15.86,0,0,1,2.86-6.14c-.6.09-1,.14-1.46.22a18.84,18.84,0,0,0-11.87,7.43,20.19,20.19,0,0,0-2.65,4.65c0,.14-.24.31,0,.44a1,1,0,0,0,1.19-.43A20.74,20.74,0,0,1,99,20.85a13.66,13.66,0,0,1,1.8-2.08,22.24,22.24,0,0,0-1.58,5.7c0,.23-.25.59.24.54.3,0,.75.26.84-.39a18.24,18.24,0,0,1,1.06-4.17,13.33,13.33,0,0,1,1.47-3.05,5.26,5.26,0,0,0,2.89,2.67c1.18.43,1.75,1,1.4,2.27-.09.32,0,.58.45.58s.67-.07.62-.57c0-.23.09-.47.08-.71,0-.54.19-.6.67-.49a24.39,24.39,0,0,0,4.09.46C113.51,21.64,113.43,21.32,113.42,21.05Zm-6-1.9c0,.21-.1.45-.42.33a5.71,5.71,0,0,1-3.15-2.41c-.27-.48-.26-.8.27-1.11a17.83,17.83,0,0,1,5.09-2.13A18.87,18.87,0,0,0,107.47,19.15Z"/><path class="cls-13" d="M98.23,54.78h.59v2.59a3.14,3.14,0,0,1-.15,1.08,1.33,1.33,0,0,1-.55.65,2,2,0,0,1-1.05.25,2.14,2.14,0,0,1-1-.22,1.21,1.21,0,0,1-.57-.63,3.09,3.09,0,0,1-.17-1.13V54.78h.59v2.59a2.55,2.55,0,0,0,.11.86.8.8,0,0,0,.38.43,1.26,1.26,0,0,0,.64.15,1.25,1.25,0,0,0,.94-.3,1.65,1.65,0,0,0,.28-1.14Z"/><path class="cls-13" d="M99.68,59.27V54.78h.61l2.36,3.53V54.78h.57v4.49h-.61l-2.36-3.53v3.53Z"/><path class="cls-13" d="M104.1,59.27V54.78h3.25v.53h-2.66v1.37h2.49v.53h-2.49v1.53h2.76v.53Z"/><path class="cls-13" d="M107.94,57.83l.56,0a1.23,1.23,0,0,0,.18.55,1,1,0,0,0,.46.35,1.87,1.87,0,0,0,1.29,0,.79.79,0,0,0,.38-.27.63.63,0,0,0,.13-.39.61.61,0,0,0-.12-.37.94.94,0,0,0-.41-.26,6.78,6.78,0,0,0-.8-.22,3.87,3.87,0,0,1-.86-.28,1.11,1.11,0,0,1-.48-.42,1,1,0,0,1-.16-.56,1.14,1.14,0,0,1,.19-.64,1.3,1.3,0,0,1,.57-.45,2.14,2.14,0,0,1,.82-.15,2.19,2.19,0,0,1,.88.16,1.3,1.3,0,0,1,.81,1.18l-.57.05a1,1,0,0,0-.31-.65,1.26,1.26,0,0,0-.79-.21,1.24,1.24,0,0,0-.78.19.58.58,0,0,0-.25.48.52.52,0,0,0,.18.4,2.4,2.4,0,0,0,.89.32,6.26,6.26,0,0,1,1,.28,1.54,1.54,0,0,1,.58.46,1.17,1.17,0,0,1,.18.64,1.2,1.2,0,0,1-.2.68,1.43,1.43,0,0,1-.59.49,2.05,2.05,0,0,1-.87.18,2.55,2.55,0,0,1-1-.18,1.54,1.54,0,0,1-.65-.53A1.51,1.51,0,0,1,107.94,57.83Z"/><path class="cls-13" d="M115.4,57.7l.6.15a2,2,0,0,1-.68,1.11,1.83,1.83,0,0,1-1.19.39,2.13,2.13,0,0,1-1.18-.3,1.84,1.84,0,0,1-.69-.85A3.07,3.07,0,0,1,112,57a2.58,2.58,0,0,1,.27-1.22,1.84,1.84,0,0,1,.76-.8,2.26,2.26,0,0,1,1.09-.27,1.92,1.92,0,0,1,1.14.34,1.85,1.85,0,0,1,.64,1l-.59.14a1.36,1.36,0,0,0-.45-.72,1.21,1.21,0,0,0-.75-.22,1.41,1.41,0,0,0-.86.25,1.23,1.23,0,0,0-.49.67,2.46,2.46,0,0,0-.14.86,2.8,2.8,0,0,0,.16,1,1.28,1.28,0,0,0,.52.64,1.49,1.49,0,0,0,.77.21,1.28,1.28,0,0,0,.84-.29A1.48,1.48,0,0,0,115.4,57.7Z"/><path class="cls-13" d="M116.42,57.08a2.45,2.45,0,0,1,.6-1.75,2,2,0,0,1,1.55-.63,2.13,2.13,0,0,1,1.12.3,1.89,1.89,0,0,1,.76.82,2.92,2.92,0,0,1,0,2.43,1.93,1.93,0,0,1-.78.82,2.22,2.22,0,0,1-1.1.28,2.06,2.06,0,0,1-1.13-.31,1.93,1.93,0,0,1-.76-.84A2.52,2.52,0,0,1,116.42,57.08Zm.61,0a1.76,1.76,0,0,0,.44,1.28,1.43,1.43,0,0,0,1.09.47,1.46,1.46,0,0,0,1.11-.47A1.91,1.91,0,0,0,120.1,57a2.19,2.19,0,0,0-.19-1,1.39,1.39,0,0,0-.54-.63,1.47,1.47,0,0,0-.8-.23,1.53,1.53,0,0,0-1.09.43A2,2,0,0,0,117,57.09Z"/><path class="cls-13" d="M126.17,57.7l.59.15a2,2,0,0,1-.67,1.11,1.85,1.85,0,0,1-1.19.39,2.11,2.11,0,0,1-1.18-.3,1.78,1.78,0,0,1-.69-.85,3.07,3.07,0,0,1-.24-1.21,2.58,2.58,0,0,1,.27-1.22,1.84,1.84,0,0,1,.76-.8,2.23,2.23,0,0,1,1.09-.27A1.87,1.87,0,0,1,126,55a1.79,1.79,0,0,1,.64,1l-.58.14a1.49,1.49,0,0,0-.45-.72,1.21,1.21,0,0,0-.75-.22,1.42,1.42,0,0,0-.87.25,1.34,1.34,0,0,0-.49.67,2.72,2.72,0,0,0-.14.86,2.79,2.79,0,0,0,.17,1,1.23,1.23,0,0,0,.52.64,1.45,1.45,0,0,0,.76.21,1.31,1.31,0,0,0,.85-.29A1.53,1.53,0,0,0,126.17,57.7Z"/><path class="cls-13" d="M127.29,59.27V54.78h.55v1.61a1.25,1.25,0,0,1,1-.45,1.28,1.28,0,0,1,.63.15.84.84,0,0,1,.38.39,2,2,0,0,1,.11.73v2.06h-.55V57.21a.83.83,0,0,0-.18-.6.66.66,0,0,0-.51-.19.87.87,0,0,0-.46.13.66.66,0,0,0-.3.34,1.41,1.41,0,0,0-.1.6v1.78Z"/><path class="cls-13" d="M132.78,58.87a2.35,2.35,0,0,1-.59.37,1.78,1.78,0,0,1-.61.11,1.17,1.17,0,0,1-.83-.27.87.87,0,0,1-.29-.67.89.89,0,0,1,.11-.43.9.9,0,0,1,.29-.32,1.38,1.38,0,0,1,.39-.18,3.06,3.06,0,0,1,.5-.08,6,6,0,0,0,1-.19v-.15a.62.62,0,0,0-.15-.47.9.9,0,0,0-.63-.19.94.94,0,0,0-.58.14.85.85,0,0,0-.27.48l-.54-.08a1.33,1.33,0,0,1,.24-.55,1,1,0,0,1,.49-.33,2.09,2.09,0,0,1,.74-.12,2,2,0,0,1,.67.1.91.91,0,0,1,.39.25.84.84,0,0,1,.17.37,3,3,0,0,1,0,.51v.74a9.18,9.18,0,0,0,0,1,1.3,1.3,0,0,0,.14.39h-.57A1,1,0,0,1,132.78,58.87Zm-.05-1.23a4.29,4.29,0,0,1-.9.21,1.9,1.9,0,0,0-.48.11.48.48,0,0,0-.3.44.48.48,0,0,0,.17.37.75.75,0,0,0,.49.14,1.1,1.1,0,0,0,.57-.14.88.88,0,0,0,.36-.38,1.3,1.3,0,0,0,.09-.55Z"/><path class="cls-13" d="M134,55.41v-.63h.56v.63Zm0,3.86V56h.56v3.25Z"/><path class="cls-13" d="M135.27,59.27V56h.49v.49a1.62,1.62,0,0,1,.35-.46.66.66,0,0,1,.36-.11,1.11,1.11,0,0,1,.57.18l-.19.51a.81.81,0,0,0-.41-.12.52.52,0,0,0-.32.11.55.55,0,0,0-.21.3,2.22,2.22,0,0,0-.09.65v1.7Z"/><path class="cls-13" d="M139,59.27V56.45h-.49V56H139v-.35a1.93,1.93,0,0,1,.05-.49.75.75,0,0,1,.29-.35,1.08,1.08,0,0,1,.56-.13,2.5,2.5,0,0,1,.51.06l-.08.48a1.84,1.84,0,0,0-.33,0,.49.49,0,0,0-.35.1.62.62,0,0,0-.1.41V56h.63v.43h-.63v2.82Z"/><path class="cls-13" d="M140.25,57.64a1.7,1.7,0,0,1,.5-1.34,1.54,1.54,0,0,1,1-.36,1.48,1.48,0,0,1,1.1.44,1.71,1.71,0,0,1,.42,1.22,2.1,2.1,0,0,1-.19,1,1.35,1.35,0,0,1-.55.56,1.62,1.62,0,0,1-.78.2,1.48,1.48,0,0,1-1.11-.44A1.79,1.79,0,0,1,140.25,57.64Zm.57,0a1.41,1.41,0,0,0,.27.94.91.91,0,0,0,1.37,0,1.44,1.44,0,0,0,.27-.95,1.37,1.37,0,0,0-.27-.92.91.91,0,0,0-1.37,0A1.39,1.39,0,0,0,140.82,57.64Z"/><path class="cls-13" d="M143.81,59.27V56h.5v.49a1.32,1.32,0,0,1,.35-.46.63.63,0,0,1,.35-.11,1.06,1.06,0,0,1,.57.18l-.19.51a.81.81,0,0,0-.41-.12.54.54,0,0,0-.32.11.55.55,0,0,0-.21.3,2.22,2.22,0,0,0-.09.65v1.7Z"/><path class="cls-13" d="M147.47,59.27V54.78h3.25v.53h-2.66v1.37h2.49v.53h-2.49v1.53h2.76v.53Z"/><path class="cls-13" d="M151.08,59.27l1.18-1.69L151.16,56h.69l.5.76c.1.14.17.27.23.36.09-.13.17-.25.25-.35l.55-.77H154l-1.13,1.53,1.21,1.72h-.68l-.66-1L152.6,58l-.86,1.28Z"/><path class="cls-13" d="M154.45,60.52V56h.5v.42a1.25,1.25,0,0,1,.4-.37,1,1,0,0,1,.55-.13,1.23,1.23,0,0,1,.73.22,1.2,1.2,0,0,1,.48.6,2.3,2.3,0,0,1,0,1.76,1.36,1.36,0,0,1-.52.61,1.38,1.38,0,0,1-.72.22,1,1,0,0,1-.5-.12,1.31,1.31,0,0,1-.36-.3v1.59Zm.5-2.86a1.42,1.42,0,0,0,.25.93.79.79,0,0,0,.62.3.78.78,0,0,0,.63-.31,1.45,1.45,0,0,0,.26-1,1.47,1.47,0,0,0-.25-.94.76.76,0,0,0-1.24,0A1.48,1.48,0,0,0,155,57.66Z"/><path class="cls-13" d="M160,58.22l.57.07a1.38,1.38,0,0,1-.5.78,1.53,1.53,0,0,1-.93.28,1.51,1.51,0,0,1-1.14-.44,1.74,1.74,0,0,1-.41-1.24,1.79,1.79,0,0,1,.42-1.27,1.41,1.41,0,0,1,1.1-.46,1.37,1.37,0,0,1,1.06.45,1.73,1.73,0,0,1,.42,1.25.82.82,0,0,1,0,.14H158.2a1.28,1.28,0,0,0,.3.83.9.9,0,0,0,.68.28.85.85,0,0,0,.52-.16A1.06,1.06,0,0,0,160,58.22Zm-1.81-.89H160a1.14,1.14,0,0,0-.2-.62.86.86,0,0,0-.69-.31.89.89,0,0,0-.64.25A1,1,0,0,0,158.23,57.33Z"/><path class="cls-13" d="M161.16,59.27V56h.5v.49a1.46,1.46,0,0,1,.35-.46.66.66,0,0,1,.35-.11,1.06,1.06,0,0,1,.57.18l-.19.51a.77.77,0,0,0-.4-.12.57.57,0,0,0-.33.11.59.59,0,0,0-.2.3,2.21,2.21,0,0,0-.1.65v1.7Z"/><path class="cls-13" d="M163.13,55.41v-.63h.55v.63Zm0,3.86V56h.55v3.25Z"/><path class="cls-13" d="M166.62,58.22l.57.07a1.38,1.38,0,0,1-.5.78,1.51,1.51,0,0,1-.93.28,1.48,1.48,0,0,1-1.13-.44,1.74,1.74,0,0,1-.42-1.24,1.79,1.79,0,0,1,.42-1.27,1.41,1.41,0,0,1,1.1-.46,1.37,1.37,0,0,1,1.06.45,1.73,1.73,0,0,1,.42,1.25.82.82,0,0,1,0,.14h-2.42a1.28,1.28,0,0,0,.3.83.9.9,0,0,0,.68.28.83.83,0,0,0,.52-.16A1,1,0,0,0,166.62,58.22Zm-1.81-.89h1.82a1.22,1.22,0,0,0-.21-.62.86.86,0,0,0-.69-.31.89.89,0,0,0-.64.25A1,1,0,0,0,164.81,57.33Z"/><path class="cls-13" d="M167.75,59.27V56h.5v.46a1.16,1.16,0,0,1,1-.54,1.33,1.33,0,0,1,.54.11.78.78,0,0,1,.37.28,1,1,0,0,1,.17.4,2.29,2.29,0,0,1,0,.54v2h-.56v-2a1.57,1.57,0,0,0-.06-.5.54.54,0,0,0-.23-.27.7.7,0,0,0-.38-.1.93.93,0,0,0-.61.22,1.12,1.12,0,0,0-.26.85v1.78Z"/><path class="cls-13" d="M172.31,58.78l.08.49a2.1,2.1,0,0,1-.41,0,1,1,0,0,1-.47-.09.5.5,0,0,1-.23-.25,1.81,1.81,0,0,1-.07-.65V56.45h-.4V56h.4v-.81l.55-.33V56h.55v.43h-.55v1.9a.88.88,0,0,0,0,.3.24.24,0,0,0,.09.11.36.36,0,0,0,.19,0Z"/><path class="cls-13" d="M172.73,55.41v-.63h.55v.63Zm0,3.86V56h.55v3.25Z"/><path class="cls-13" d="M176.11,58.87a2.18,2.18,0,0,1-.59.37,1.74,1.74,0,0,1-.61.11,1.14,1.14,0,0,1-.82-.27.84.84,0,0,1-.29-.67.94.94,0,0,1,.39-.75,1.32,1.32,0,0,1,.4-.18,2.91,2.91,0,0,1,.49-.08,6,6,0,0,0,1-.19,1.14,1.14,0,0,0,0-.15.62.62,0,0,0-.16-.47.9.9,0,0,0-.63-.19.89.89,0,0,0-.57.14.8.8,0,0,0-.28.48l-.54-.08a1.33,1.33,0,0,1,.24-.55,1,1,0,0,1,.49-.33,2.09,2.09,0,0,1,.74-.12,2.12,2.12,0,0,1,.68.1.93.93,0,0,1,.38.25.84.84,0,0,1,.17.37,3,3,0,0,1,0,.51v.74a6.39,6.39,0,0,0,0,1,1.07,1.07,0,0,0,.14.39h-.58A1.17,1.17,0,0,1,176.11,58.87Zm-.05-1.23a4.29,4.29,0,0,1-.9.21,1.9,1.9,0,0,0-.48.11.49.49,0,0,0-.22.18.44.44,0,0,0-.07.26.47.47,0,0,0,.16.37.77.77,0,0,0,.49.14,1.1,1.1,0,0,0,.57-.14.83.83,0,0,0,.36-.38,1.3,1.3,0,0,0,.09-.55Z"/><path class="cls-13" d="M177.33,59.27V54.78h.55v4.49Z"/><path class="cls-13" d="M95.26,65.81V61.32h.59v4h2.21v.53Z"/><path class="cls-13" d="M100.8,64.76l.57.07a1.38,1.38,0,0,1-.5.78,1.55,1.55,0,0,1-.93.27,1.48,1.48,0,0,1-1.14-.44,1.7,1.7,0,0,1-.42-1.23,1.79,1.79,0,0,1,.43-1.27,1.41,1.41,0,0,1,1.09-.46,1.37,1.37,0,0,1,1.07.45,1.73,1.73,0,0,1,.42,1.25s0,.08,0,.14H99a1.34,1.34,0,0,0,.31.83.9.9,0,0,0,.68.28.85.85,0,0,0,.52-.16A1.06,1.06,0,0,0,100.8,64.76ZM99,63.87h1.81a1.06,1.06,0,0,0-.21-.62.83.83,0,0,0-.68-.31.87.87,0,0,0-.64.25A1,1,0,0,0,99,63.87Z"/><path class="cls-13" d="M104.05,65.41a2,2,0,0,1-.59.37,1.74,1.74,0,0,1-.61.1,1.16,1.16,0,0,1-.82-.26.87.87,0,0,1-.29-.67.89.89,0,0,1,.11-.43.82.82,0,0,1,.29-.32,1.17,1.17,0,0,1,.39-.18,2.91,2.91,0,0,1,.49-.08,6,6,0,0,0,1-.19V63.6a.58.58,0,0,0-.16-.47.9.9,0,0,0-.63-.19.91.91,0,0,0-.57.14.85.85,0,0,0-.27.48l-.54-.08a1.33,1.33,0,0,1,.24-.55.93.93,0,0,1,.49-.33,2,2,0,0,1,.73-.12,1.84,1.84,0,0,1,.68.1.77.77,0,0,1,.56.62,3.27,3.27,0,0,1,0,.51v.74a8.2,8.2,0,0,0,0,1,1.07,1.07,0,0,0,.14.39h-.58A1.45,1.45,0,0,1,104.05,65.41Zm0-1.23a4.29,4.29,0,0,1-.9.21,2.13,2.13,0,0,0-.49.11.46.46,0,0,0-.21.18.45.45,0,0,0-.08.26.5.5,0,0,0,.17.37.75.75,0,0,0,.49.14,1,1,0,0,0,.56-.14.85.85,0,0,0,.37-.38,1.3,1.3,0,0,0,.09-.55Z"/><path class="cls-13" d="M105.28,65.81V62.56h.5v.49a1.32,1.32,0,0,1,.35-.46.63.63,0,0,1,.35-.11,1.06,1.06,0,0,1,.57.18l-.19.51a.77.77,0,0,0-.4-.12.55.55,0,0,0-.33.11.54.54,0,0,0-.2.3,1.93,1.93,0,0,0-.1.65v1.7Z"/><path class="cls-13" d="M107.25,65.81V62.56h.49V63a1.18,1.18,0,0,1,1-.54,1.33,1.33,0,0,1,.54.11.83.83,0,0,1,.37.28,1,1,0,0,1,.17.4,3.31,3.31,0,0,1,0,.54v2h-.55v-2a1.57,1.57,0,0,0-.06-.5.6.6,0,0,0-.23-.27.71.71,0,0,0-.39-.1,1,1,0,0,0-.61.22,1.12,1.12,0,0,0-.25.85v1.78Z"/><path class="cls-13" d="M110.61,62v-.63h.55V62Zm0,3.86V62.56h.55v3.25Z"/><path class="cls-13" d="M111.87,65.81V62.56h.5V63a1.15,1.15,0,0,1,1-.54,1.33,1.33,0,0,1,.54.11.78.78,0,0,1,.37.28,1,1,0,0,1,.17.4,3.31,3.31,0,0,1,0,.54v2H114v-2a1.57,1.57,0,0,0-.06-.5.54.54,0,0,0-.23-.27.7.7,0,0,0-.38-.1.93.93,0,0,0-.61.22,1.12,1.12,0,0,0-.26.85v1.78Z"/><path class="cls-13" d="M115.13,66.08l.53.08a.52.52,0,0,0,.19.36.93.93,0,0,0,.56.16,1,1,0,0,0,.59-.16.74.74,0,0,0,.29-.43,4.56,4.56,0,0,0,0-.7,1.17,1.17,0,0,1-.91.42,1.25,1.25,0,0,1-1-.48,1.91,1.91,0,0,1-.36-1.16,2,2,0,0,1,.17-.86,1.29,1.29,0,0,1,.48-.61,1.31,1.31,0,0,1,.76-.22,1.18,1.18,0,0,1,.95.47v-.39h.51v2.81a2.71,2.71,0,0,1-.16,1.08,1.13,1.13,0,0,1-.49.5,1.73,1.73,0,0,1-.83.18,1.61,1.61,0,0,1-.94-.26A.87.87,0,0,1,115.13,66.08Zm.45-2a1.41,1.41,0,0,0,.26.93.84.84,0,0,0,1.27,0,1.31,1.31,0,0,0,.26-.92,1.38,1.38,0,0,0-.26-.9.83.83,0,0,0-.64-.3.8.8,0,0,0-.63.3A1.33,1.33,0,0,0,115.58,64.13Z"/><path class="cls-13" d="M120.33,65.81V63h-.49v-.42h.49v-.35a1.5,1.5,0,0,1,.06-.49.73.73,0,0,1,.28-.35,1.08,1.08,0,0,1,.56-.13,2.52,2.52,0,0,1,.52.06l-.08.48-.33,0a.5.5,0,0,0-.36.1.68.68,0,0,0-.1.41v.3h.64V63h-.64v2.83Z"/><path class="cls-13" d="M121.61,64.18a1.67,1.67,0,0,1,.5-1.34,1.51,1.51,0,0,1,1-.36,1.47,1.47,0,0,1,1.1.44,1.67,1.67,0,0,1,.43,1.22,2.23,2.23,0,0,1-.19,1,1.41,1.41,0,0,1-.55.56,1.62,1.62,0,0,1-.79.19,1.46,1.46,0,0,1-1.1-.43A1.79,1.79,0,0,1,121.61,64.18Zm.56,0a1.41,1.41,0,0,0,.28.94.91.91,0,0,0,1.37,0,1.44,1.44,0,0,0,.27-1,1.37,1.37,0,0,0-.27-.92.88.88,0,0,0-.69-.31.86.86,0,0,0-.68.31A1.4,1.4,0,0,0,122.17,64.18Z"/><path class="cls-13" d="M125.17,65.81V62.56h.49v.49a1.62,1.62,0,0,1,.35-.46.66.66,0,0,1,.36-.11,1.05,1.05,0,0,1,.56.18l-.19.51a.77.77,0,0,0-.4-.12.57.57,0,0,0-.33.11.59.59,0,0,0-.2.3,2.22,2.22,0,0,0-.09.65v1.7Z"/><path class="cls-13" d="M128.61,64.37l.56-.05a1.23,1.23,0,0,0,.19.55,1,1,0,0,0,.45.35,1.67,1.67,0,0,0,.69.13,1.57,1.57,0,0,0,.6-.1.88.88,0,0,0,.39-.27.7.7,0,0,0,.13-.39.62.62,0,0,0-.13-.37.9.9,0,0,0-.4-.26,7.45,7.45,0,0,0-.8-.22,4.93,4.93,0,0,1-.87-.28,1.43,1.43,0,0,1-.48-.42,1.08,1.08,0,0,1-.16-.56,1.15,1.15,0,0,1,.2-.64,1.22,1.22,0,0,1,.56-.45,2.18,2.18,0,0,1,.82-.15,2.24,2.24,0,0,1,.89.16,1.26,1.26,0,0,1,.58.48,1.29,1.29,0,0,1,.22.7l-.57.05a.92.92,0,0,0-.31-.65,1.23,1.23,0,0,0-.78-.22,1.29,1.29,0,0,0-.79.2.6.6,0,0,0-.24.48.51.51,0,0,0,.17.4,2.48,2.48,0,0,0,.9.32,6.38,6.38,0,0,1,1,.28,1.46,1.46,0,0,1,.58.46,1.1,1.1,0,0,1,.19.64,1.21,1.21,0,0,1-.21.68,1.31,1.31,0,0,1-.59.49,2,2,0,0,1-.86.18,2.6,2.6,0,0,1-1-.18,1.41,1.41,0,0,1-.64-.54A1.46,1.46,0,0,1,128.61,64.37Z"/><path class="cls-13" d="M134.93,65.81v-.48a1.18,1.18,0,0,1-1,.55,1.24,1.24,0,0,1-.54-.11.83.83,0,0,1-.37-.27,1,1,0,0,1-.17-.41,3.19,3.19,0,0,1,0-.52v-2h.55v1.8a3.56,3.56,0,0,0,0,.58.64.64,0,0,0,.22.35.7.7,0,0,0,.42.12.9.9,0,0,0,.47-.13.71.71,0,0,0,.3-.34,1.78,1.78,0,0,0,.09-.64V62.56h.56v3.25Z"/><path class="cls-13" d="M135.94,64.84l.54-.09a.79.79,0,0,0,.26.51.92.92,0,0,0,.59.17.87.87,0,0,0,.56-.15.49.49,0,0,0,.18-.37.33.33,0,0,0-.16-.29,2.36,2.36,0,0,0-.56-.19,5.1,5.1,0,0,1-.84-.26.85.85,0,0,1-.36-.31.83.83,0,0,1-.12-.44.79.79,0,0,1,.1-.4.91.91,0,0,1,.27-.31,1.14,1.14,0,0,1,.35-.16,1.51,1.51,0,0,1,.48-.07,2,2,0,0,1,.67.11,1,1,0,0,1,.43.3,1.33,1.33,0,0,1,.19.51l-.54.07a.62.62,0,0,0-.21-.39.76.76,0,0,0-.5-.14.89.89,0,0,0-.54.12.38.38,0,0,0-.17.3.34.34,0,0,0,.07.19.57.57,0,0,0,.21.15l.49.14a8.16,8.16,0,0,1,.82.25.94.94,0,0,1,.36.29.81.81,0,0,1,.13.47.89.89,0,0,1-.16.52,1,1,0,0,1-.46.38,1.73,1.73,0,0,1-.69.13,1.52,1.52,0,0,1-1-.26A1.22,1.22,0,0,1,135.94,64.84Z"/><path class="cls-13" d="M140.37,65.32l.08.49a2.19,2.19,0,0,1-.42,0,1,1,0,0,1-.46-.09.58.58,0,0,1-.24-.25,2.19,2.19,0,0,1-.06-.65V63h-.41v-.42h.41v-.81l.54-.33v1.14h.56V63h-.56v1.91a.88.88,0,0,0,0,.3.27.27,0,0,0,.1.11.34.34,0,0,0,.19,0Z"/><path class="cls-13" d="M142.9,65.41a2,2,0,0,1-.59.37,1.74,1.74,0,0,1-.61.1,1.16,1.16,0,0,1-.82-.26.87.87,0,0,1-.29-.67.94.94,0,0,1,.39-.75,1.32,1.32,0,0,1,.4-.18,2.91,2.91,0,0,1,.49-.08,6,6,0,0,0,1-.19V63.6a.58.58,0,0,0-.16-.47.9.9,0,0,0-.63-.19.89.89,0,0,0-.57.14.85.85,0,0,0-.28.48l-.53-.08a1.21,1.21,0,0,1,.24-.55.93.93,0,0,1,.49-.33,2,2,0,0,1,.73-.12,1.84,1.84,0,0,1,.68.1.93.93,0,0,1,.38.25.86.86,0,0,1,.18.37c0,.1,0,.27,0,.51v.74a8.2,8.2,0,0,0,0,1,1.07,1.07,0,0,0,.14.39H143A1.17,1.17,0,0,1,142.9,65.41Zm0-1.23a4.42,4.42,0,0,1-.91.21,2.15,2.15,0,0,0-.48.11.46.46,0,0,0-.21.18.38.38,0,0,0-.08.26.46.46,0,0,0,.17.37.75.75,0,0,0,.49.14,1,1,0,0,0,.56-.14.85.85,0,0,0,.37-.38,1.3,1.3,0,0,0,.09-.55Z"/><path class="cls-13" d="M144.14,62v-.63h.55V62Zm0,3.86V62.56h.55v3.25Z"/><path class="cls-13" d="M145.4,65.81V62.56h.5V63a1.16,1.16,0,0,1,1-.54,1.33,1.33,0,0,1,.54.11.78.78,0,0,1,.37.28,1,1,0,0,1,.17.4,2.29,2.29,0,0,1,0,.54v2h-.56v-2a1.57,1.57,0,0,0-.06-.5.54.54,0,0,0-.23-.27.7.7,0,0,0-.38-.1.93.93,0,0,0-.61.22A1.12,1.12,0,0,0,146,64v1.78Z"/><path class="cls-13" d="M150.88,65.41a2,2,0,0,1-.59.37,1.74,1.74,0,0,1-.61.1,1.16,1.16,0,0,1-.82-.26.87.87,0,0,1-.29-.67.89.89,0,0,1,.11-.43.82.82,0,0,1,.29-.32,1.27,1.27,0,0,1,.39-.18,2.91,2.91,0,0,1,.49-.08,6,6,0,0,0,1-.19V63.6a.58.58,0,0,0-.16-.47.89.89,0,0,0-.62-.19.92.92,0,0,0-.58.14.85.85,0,0,0-.27.48l-.54-.08a1.33,1.33,0,0,1,.24-.55.93.93,0,0,1,.49-.33,2.09,2.09,0,0,1,.74-.12,1.82,1.82,0,0,1,.67.1,1,1,0,0,1,.39.25.84.84,0,0,1,.17.37,3,3,0,0,1,0,.51v.74a9.18,9.18,0,0,0,0,1,1.07,1.07,0,0,0,.14.39H151A1.45,1.45,0,0,1,150.88,65.41Zm0-1.23a4.29,4.29,0,0,1-.9.21,1.9,1.9,0,0,0-.48.11.48.48,0,0,0-.3.44.5.5,0,0,0,.17.37.75.75,0,0,0,.49.14,1,1,0,0,0,.56-.14.85.85,0,0,0,.37-.38,1.3,1.3,0,0,0,.09-.55Z"/><path class="cls-13" d="M152.63,65.81h-.51V61.32h.55v1.6a1.09,1.09,0,0,1,.89-.44,1.39,1.39,0,0,1,.57.12,1.24,1.24,0,0,1,.44.34,1.76,1.76,0,0,1,.27.53,2.07,2.07,0,0,1,.1.66,1.91,1.91,0,0,1-.41,1.3,1.32,1.32,0,0,1-1,.45,1,1,0,0,1-.9-.48Zm0-1.65a1.68,1.68,0,0,0,.16.85.8.8,0,0,0,.71.42.77.77,0,0,0,.62-.31,1.41,1.41,0,0,0,.26-.94,1.45,1.45,0,0,0-.25-.94.77.77,0,0,0-.61-.3.8.8,0,0,0-.63.31A1.41,1.41,0,0,0,152.62,64.16Z"/><path class="cls-13" d="M155.47,65.81V61.32H156v4.49Z"/><path class="cls-13" d="M159,64.76l.57.07a1.38,1.38,0,0,1-.5.78,1.51,1.51,0,0,1-.93.27,1.44,1.44,0,0,1-1.13-.44,1.7,1.7,0,0,1-.42-1.23,1.79,1.79,0,0,1,.42-1.27,1.41,1.41,0,0,1,1.1-.46,1.37,1.37,0,0,1,1.06.45,1.73,1.73,0,0,1,.42,1.25v.14h-2.43a1.28,1.28,0,0,0,.3.83.9.9,0,0,0,.68.28.83.83,0,0,0,.52-.16A1,1,0,0,0,159,64.76Zm-1.81-.89H159a1.22,1.22,0,0,0-.21-.62.86.86,0,0,0-.69-.31.89.89,0,0,0-.64.25A1,1,0,0,0,157.16,63.87Z"/><path class="cls-13" d="M95.38,72.35V67.86H96v4.49Z"/><path class="cls-13" d="M96.82,72.35V69.1h.5v.46a1.16,1.16,0,0,1,1-.54,1.33,1.33,0,0,1,.54.11.83.83,0,0,1,.37.27,1.17,1.17,0,0,1,.18.41,3.22,3.22,0,0,1,0,.54v2h-.55v-2a1.52,1.52,0,0,0-.07-.5.51.51,0,0,0-.23-.27.7.7,0,0,0-.38-.1.88.88,0,0,0-.61.22,1.12,1.12,0,0,0-.26.85v1.78Z"/><path class="cls-13" d="M100.18,72.35V69.1h.5v.46a1.16,1.16,0,0,1,1-.54,1.33,1.33,0,0,1,.54.11.83.83,0,0,1,.37.27,1.17,1.17,0,0,1,.18.41,3.22,3.22,0,0,1,0,.54v2h-.56v-2a1.57,1.57,0,0,0-.06-.5.51.51,0,0,0-.23-.27.7.7,0,0,0-.38-.1.88.88,0,0,0-.61.22,1.12,1.12,0,0,0-.26.85v1.78Z"/><path class="cls-13" d="M103.34,70.72a1.67,1.67,0,0,1,.5-1.34,1.51,1.51,0,0,1,1-.36,1.48,1.48,0,0,1,1.1.44,1.69,1.69,0,0,1,.43,1.22,2.23,2.23,0,0,1-.19,1,1.33,1.33,0,0,1-.55.55,1.52,1.52,0,0,1-.79.2,1.46,1.46,0,0,1-1.1-.43A1.79,1.79,0,0,1,103.34,70.72Zm.56,0a1.35,1.35,0,0,0,.28.94.86.86,0,0,0,.68.31.88.88,0,0,0,.69-.31,1.45,1.45,0,0,0,.27-1,1.31,1.31,0,0,0-.28-.91.9.9,0,0,0-1.36,0A1.33,1.33,0,0,0,103.9,70.72Z"/><path class="cls-13" d="M107.8,72.35l-1.23-3.25h.58l.7,1.94.21.66a5.38,5.38,0,0,1,.2-.62l.72-2h.57l-1.23,3.25Z"/><path class="cls-13" d="M112,72a2,2,0,0,1-.59.37,1.74,1.74,0,0,1-.61.1,1.16,1.16,0,0,1-.82-.26.87.87,0,0,1-.29-.67.94.94,0,0,1,.39-.75,1.32,1.32,0,0,1,.4-.18,4.06,4.06,0,0,1,.49-.09,4.42,4.42,0,0,0,1-.19v-.14a.58.58,0,0,0-.16-.47.9.9,0,0,0-.63-.19,1,1,0,0,0-.57.13.92.92,0,0,0-.28.49l-.53-.08a1.19,1.19,0,0,1,.24-.56,1,1,0,0,1,.48-.32,2.13,2.13,0,0,1,.74-.12,1.84,1.84,0,0,1,.68.1.84.84,0,0,1,.38.25.86.86,0,0,1,.18.37c0,.1,0,.27,0,.51V71a6.39,6.39,0,0,0,0,1,1.07,1.07,0,0,0,.14.39h-.58A1.17,1.17,0,0,1,112,72Zm0-1.23a3.93,3.93,0,0,1-.91.2,2,2,0,0,0-.48.12.51.51,0,0,0-.21.17.48.48,0,0,0,.09.63A.69.69,0,0,0,111,72a1,1,0,0,0,.57-.14.85.85,0,0,0,.37-.38,1.3,1.3,0,0,0,.09-.55Z"/><path class="cls-13" d="M114.47,71.86l.08.48a1.6,1.6,0,0,1-.42,0,1,1,0,0,1-.46-.09.5.5,0,0,1-.23-.25,1.81,1.81,0,0,1-.07-.65V69.52H113V69.1h.41v-.81l.55-.33V69.1h.55v.42h-.55v1.91a.88.88,0,0,0,0,.3.19.19,0,0,0,.09.11.34.34,0,0,0,.19,0Z"/><path class="cls-13" d="M114.88,68.49v-.63h.55v.63Zm0,3.86V69.1h.55v3.25Z"/><path class="cls-13" d="M115.94,70.72a1.67,1.67,0,0,1,.5-1.34,1.51,1.51,0,0,1,1-.36,1.47,1.47,0,0,1,1.1.44,1.69,1.69,0,0,1,.43,1.22,2.23,2.23,0,0,1-.19,1,1.33,1.33,0,0,1-.55.55,1.52,1.52,0,0,1-.79.2,1.46,1.46,0,0,1-1.1-.43A1.79,1.79,0,0,1,115.94,70.72Zm.56,0a1.35,1.35,0,0,0,.28.94.86.86,0,0,0,.68.31.88.88,0,0,0,.69-.31,1.45,1.45,0,0,0,.27-1,1.31,1.31,0,0,0-.28-.91.9.9,0,0,0-1.36,0A1.33,1.33,0,0,0,116.5,70.72Z"/><path class="cls-13" d="M119.5,72.35V69.1h.5v.46a1.16,1.16,0,0,1,1-.54,1.33,1.33,0,0,1,.54.11.83.83,0,0,1,.37.27,1.17,1.17,0,0,1,.18.41,3.22,3.22,0,0,1,0,.54v2h-.56v-2a1.57,1.57,0,0,0-.06-.5.51.51,0,0,0-.23-.27.7.7,0,0,0-.38-.1.88.88,0,0,0-.61.22,1.12,1.12,0,0,0-.26.85v1.78Z"/><path class="cls-13" d="M127,71.82a2.1,2.1,0,0,1-.59.46,1.66,1.66,0,0,1-.7.15,1.37,1.37,0,0,1-1.09-.47,1.26,1.26,0,0,1-.33-.85,1.15,1.15,0,0,1,.27-.75,2.25,2.25,0,0,1,.8-.59,2.74,2.74,0,0,1-.41-.57,1.07,1.07,0,0,1-.1-.42.94.94,0,0,1,.32-.7,1.12,1.12,0,0,1,.8-.3,1,1,0,0,1,.75.28.9.9,0,0,1,.29.68c0,.43-.28.79-.85,1.09l.81,1a3.21,3.21,0,0,0,.22-.62l.57.12a3.22,3.22,0,0,1-.4,1,3.51,3.51,0,0,0,.7.69l-.37.43A3.23,3.23,0,0,1,127,71.82Zm-.34-.44-1-1.25a1.89,1.89,0,0,0-.6.5.82.82,0,0,0-.16.45,1,1,0,0,0,.22.57.74.74,0,0,0,.62.29,1,1,0,0,0,.51-.16A1.18,1.18,0,0,0,126.7,71.38Zm-.78-1.9a1.49,1.49,0,0,0,.46-.37.66.66,0,0,0,.11-.36.5.5,0,0,0-.15-.37.46.46,0,0,0-.36-.15.5.5,0,0,0-.37.15.45.45,0,0,0-.15.35.63.63,0,0,0,.05.22,1.11,1.11,0,0,0,.16.24Z"/><path class="cls-13" d="M130.21,72.35V67.86h1.55a4,4,0,0,1,.8.06,1.57,1.57,0,0,1,.66.32,1.84,1.84,0,0,1,.53.77,3,3,0,0,1,.18,1.07,3.18,3.18,0,0,1-.12.91,2.07,2.07,0,0,1-.31.65,1.6,1.6,0,0,1-.41.41,1.65,1.65,0,0,1-.54.22,3,3,0,0,1-.72.08Zm.6-.53h1a2.51,2.51,0,0,0,.69-.08,1.09,1.09,0,0,0,.41-.24,1.46,1.46,0,0,0,.33-.56,3.12,3.12,0,0,0,.11-.87,2,2,0,0,0-.23-1.08,1.09,1.09,0,0,0-.56-.51,2.39,2.39,0,0,0-.77-.09h-.94Z"/><path class="cls-13" d="M136.77,71.3l.57.07a1.42,1.42,0,0,1-.5.78,1.51,1.51,0,0,1-.93.27,1.46,1.46,0,0,1-1.13-.44,1.7,1.7,0,0,1-.42-1.23,1.79,1.79,0,0,1,.42-1.27,1.52,1.52,0,0,1,2.17,0,1.78,1.78,0,0,1,.41,1.25v.14h-2.43a1.28,1.28,0,0,0,.3.83.9.9,0,0,0,.68.28.81.81,0,0,0,.52-.16A1.09,1.09,0,0,0,136.77,71.3ZM135,70.41h1.82a1.22,1.22,0,0,0-.21-.62.84.84,0,0,0-.68-.31.86.86,0,0,0-.64.25A1,1,0,0,0,135,70.41Z"/><path class="cls-13" d="M138.81,72.35l-1.24-3.25h.58l.7,1.94c.08.22.14.43.21.66.05-.17.12-.38.2-.62l.73-2h.56l-1.23,3.25Z"/><path class="cls-13" d="M143.14,71.3l.57.07a1.42,1.42,0,0,1-.5.78,1.53,1.53,0,0,1-.93.27,1.48,1.48,0,0,1-1.14-.44,1.69,1.69,0,0,1-.41-1.23,1.79,1.79,0,0,1,.42-1.27,1.41,1.41,0,0,1,1.1-.46,1.37,1.37,0,0,1,1.06.45,1.73,1.73,0,0,1,.42,1.25.82.82,0,0,1,0,.14H141.3a1.28,1.28,0,0,0,.3.83.9.9,0,0,0,.68.28.85.85,0,0,0,.52-.16A1.17,1.17,0,0,0,143.14,71.3Zm-1.81-.89h1.81a1.14,1.14,0,0,0-.2-.62.86.86,0,0,0-.69-.31.89.89,0,0,0-.64.25A1,1,0,0,0,141.33,70.41Z"/><path class="cls-13" d="M144.26,72.35V67.86h.55v4.49Z"/><path class="cls-13" d="M145.33,70.72a1.67,1.67,0,0,1,.5-1.34,1.51,1.51,0,0,1,1-.36,1.47,1.47,0,0,1,1.1.44,1.69,1.69,0,0,1,.43,1.22,2.23,2.23,0,0,1-.19,1,1.33,1.33,0,0,1-.55.55,1.52,1.52,0,0,1-.79.2,1.46,1.46,0,0,1-1.1-.43A1.79,1.79,0,0,1,145.33,70.72Zm.56,0a1.35,1.35,0,0,0,.28.94.86.86,0,0,0,.68.31.88.88,0,0,0,.69-.31,1.45,1.45,0,0,0,.27-1,1.31,1.31,0,0,0-.28-.91.9.9,0,0,0-1.36,0A1.33,1.33,0,0,0,145.89,70.72Z"/><path class="cls-13" d="M148.89,73.6V69.1h.5v.42a1.18,1.18,0,0,1,.41-.37,1,1,0,0,1,.54-.13,1.21,1.21,0,0,1,.73.22,1.27,1.27,0,0,1,.49.6,2.39,2.39,0,0,1,.16.86,2.19,2.19,0,0,1-.18.9,1.42,1.42,0,0,1-.52.61,1.37,1.37,0,0,1-.72.21,1,1,0,0,1-.5-.11,1.31,1.31,0,0,1-.36-.3V73.6Zm.5-2.86a1.41,1.41,0,0,0,.26.93.76.76,0,0,0,.61.3.78.78,0,0,0,.63-.31,1.45,1.45,0,0,0,.26-1,1.47,1.47,0,0,0-.25-.94.76.76,0,0,0-1.24,0A1.48,1.48,0,0,0,149.39,70.74Z"/><path class="cls-13" d="M152.25,72.35V69.1h.49v.45a1.15,1.15,0,0,1,.41-.38,1.11,1.11,0,0,1,.58-.15,1.05,1.05,0,0,1,.59.15.77.77,0,0,1,.33.42,1.17,1.17,0,0,1,1-.57,1,1,0,0,1,.74.27,1.16,1.16,0,0,1,.26.83v2.23h-.55v-2a1.45,1.45,0,0,0-.05-.48.49.49,0,0,0-.2-.23.58.58,0,0,0-.33-.09.78.78,0,0,0-.57.23,1,1,0,0,0-.22.73v1.89h-.56V70.24a1,1,0,0,0-.13-.56.52.52,0,0,0-.44-.18.8.8,0,0,0-.43.12.7.7,0,0,0-.29.36,2,2,0,0,0-.09.68v1.69Z"/><path class="cls-13" d="M159.58,71.3l.57.07a1.42,1.42,0,0,1-.5.78,1.55,1.55,0,0,1-.93.27,1.48,1.48,0,0,1-1.14-.44,1.7,1.7,0,0,1-.42-1.23,1.79,1.79,0,0,1,.43-1.27,1.41,1.41,0,0,1,1.09-.46,1.37,1.37,0,0,1,1.07.45,1.73,1.73,0,0,1,.42,1.25s0,.08,0,.14h-2.43a1.28,1.28,0,0,0,.31.83.9.9,0,0,0,.68.28.85.85,0,0,0,.52-.16A1.17,1.17,0,0,0,159.58,71.3Zm-1.82-.89h1.82a1.06,1.06,0,0,0-.21-.62.83.83,0,0,0-.68-.31.87.87,0,0,0-.64.25A1,1,0,0,0,157.76,70.41Z"/><path class="cls-13" d="M160.71,72.35V69.1h.49v.46a1.18,1.18,0,0,1,1-.54,1.33,1.33,0,0,1,.54.11.83.83,0,0,1,.37.27,1.15,1.15,0,0,1,.17.41,3.22,3.22,0,0,1,0,.54v2h-.55v-2a1.57,1.57,0,0,0-.06-.5.55.55,0,0,0-.23-.27.71.71,0,0,0-.39-.1.87.87,0,0,0-.6.22,1.08,1.08,0,0,0-.26.85v1.78Z"/><path class="cls-13" d="M165.27,71.86l.08.48a1.6,1.6,0,0,1-.42,0,1,1,0,0,1-.46-.09.5.5,0,0,1-.23-.25,1.81,1.81,0,0,1-.07-.65V69.52h-.41V69.1h.41v-.81l.55-.33V69.1h.55v.42h-.55v1.91a.88.88,0,0,0,0,.3.24.24,0,0,0,.09.11.36.36,0,0,0,.19,0Z"/></svg>