<svg id="Layer_1" data-name="Layer 1" xmlns="http://www.w3.org/2000/svg" viewBox="0 0 187.29 85.37"><defs><style>.cls-1{fill:#282425;}.cls-1,.cls-10,.cls-11,.cls-12,.cls-14,.cls-15,.cls-16,.cls-17,.cls-18,.cls-19,.cls-2,.cls-20,.cls-21,.cls-22,.cls-23,.cls-24,.cls-25,.cls-26,.cls-27,.cls-28,.cls-29,.cls-3,.cls-30,.cls-31,.cls-32,.cls-33,.cls-34,.cls-35,.cls-4,.cls-5,.cls-6,.cls-7,.cls-8,.cls-9{fill-rule:evenodd;}.cls-2{fill:#2a2729;}.cls-3{fill:#2a2627;}.cls-4{fill:#2a2728;}.cls-5{fill:#272425;}.cls-6{fill:#292526;}.cls-7{fill:#262223;}.cls-8{fill:#252122;}.cls-9{fill:#282526;}.cls-10{fill:#252223;}.cls-11{fill:#262324;}.cls-12,.cls-13{fill:#010101;}.cls-14{fill:#5c0a39;}.cls-15{fill:#5b0a38;}.cls-16{fill:#cde4d1;}.cls-17{fill:#cae1ce;}.cls-18{fill:#5d0b3b;}.cls-19{fill:#cee2d1;}.cls-20{fill:#c9e1cd;}.cls-21{fill:#cbe2cf;}.cls-22{fill:#5a0937;}.cls-23{fill:#d1e5d3;}.cls-24{fill:#cae3cf;}.cls-25{fill:#c7e0cc;}.cls-26{fill:#eaf0e9;}.cls-27{fill:#d1e5d5;}.cls-28{fill:#c4dec9;}.cls-29{fill:#cfe4d3;}.cls-30{fill:#cce2d0;}.cls-31{fill:#d4e6d6;}.cls-32{fill:#c6d4c8;}.cls-33{fill:#d4e6d7;}.cls-34{fill:#5d0c3a;}.cls-35{fill:#5e0e3b;}.cls-36{fill:#c2d150;}</style></defs><path class="cls-1" d="M88.91,6.31a3.83,3.83,0,0,1,.28.42.65.65,0,1,1-1.21,0,3.39,3.39,0,0,1,.27-.43Z"/><path class="cls-2" d="M89.25,9.31a.62.62,0,0,1-.64.6.61.61,0,0,1-.67-.64.61.61,0,0,1,.63-.68C89,8.58,89.22,8.82,89.25,9.31Z"/><path class="cls-1" d="M88.6,34.86a.64.64,0,0,1-.67-.68.66.66,0,0,1,1.32,0A.62.62,0,0,1,88.6,34.86Z"/><path class="cls-3" d="M89.26,40.77a.67.67,0,0,1-.64.68.62.62,0,0,1-.68-.63.6.6,0,0,1,.62-.69C89,40.11,89.19,40.36,89.26,40.77Z"/><path class="cls-4" d="M89.26,59.13c0,.42-.27.68-.66.68a.66.66,0,1,1,0-1.32A.65.65,0,0,1,89.26,59.13Z"/><path class="cls-4" d="M88.58,16.26a.6.6,0,0,1,.66.68.66.66,0,1,1-1.31-.06A.6.6,0,0,1,88.58,16.26Z"/><path class="cls-1" d="M88.62,36.76a.66.66,0,1,1-.69.64A.62.62,0,0,1,88.62,36.76Z"/><path class="cls-1" d="M88.56,12.38a.6.6,0,0,1-.62-.67.65.65,0,1,1,1.3,0A.6.6,0,0,1,88.56,12.38Z"/><path class="cls-3" d="M88.53,14.87a.59.59,0,0,1-.6-.65.66.66,0,1,1,1.31,0C89.24,14.63,89,14.87,88.53,14.87Z"/><path class="cls-5" d="M88.51,31.71a.59.59,0,0,1-.57-.67.65.65,0,1,1,1.3,0C89.23,31.47,89,31.72,88.51,31.71Z"/><path class="cls-6" d="M89.26,44.53c0,.44-.22.73-.64.74a.61.61,0,0,1-.68-.63.59.59,0,0,1,.62-.68A.66.66,0,0,1,89.26,44.53Z"/><path class="cls-7" d="M89.25,19.59c0,.41-.27.66-.68.65a.66.66,0,0,1,0-1.32C89,18.93,89.21,19.2,89.25,19.59Z"/><path class="cls-7" d="M88.6,23a.63.63,0,0,1-.66-.64.65.65,0,1,1,1.3-.05A.63.63,0,0,1,88.6,23Z"/><path class="cls-8" d="M88.6,25.75a.66.66,0,1,1,.64-.67A.62.62,0,0,1,88.6,25.75Z"/><path class="cls-6" d="M88.54,65.92a.66.66,0,1,1,.71-.62A.64.64,0,0,1,88.54,65.92Z"/><path class="cls-9" d="M89.26,48.81c-.07.44-.3.69-.7.67a.61.61,0,0,1-.62-.69.6.6,0,0,1,.68-.62C89.05,48.18,89.2,48.47,89.26,48.81Z"/><path class="cls-3" d="M88.55,71.51c.45,0,.69.25.69.65a.61.61,0,0,1-.65.66.59.59,0,0,1-.65-.64A.6.6,0,0,1,88.55,71.51Z"/><path class="cls-10" d="M88.59,79.15a.64.64,0,0,1,.65.66.65.65,0,0,1-1.3,0A.64.64,0,0,1,88.59,79.15Z"/><path class="cls-6" d="M88.48,53.15c.51,0,.75.23.76.62a.65.65,0,1,1-1.3,0A.58.58,0,0,1,88.48,53.15Z"/><path class="cls-11" d="M89.25,28c0,.41-.22.68-.64.69a.65.65,0,0,1,0-1.3A.62.62,0,0,1,89.25,28Z"/><path class="cls-12" d="M58.47,48.9H36.17c-.26,0-.67.17-.75-.17a4.72,4.72,0,0,1,0-1.3s.14-.09.22-.1a3.38,3.38,0,0,1,.45,0H80.82c.24,0,.64-.15.7.12a3.72,3.72,0,0,1,0,1.37c0,.15-.31.08-.47.08H58.47Z"/><path class="cls-12" d="M77.42,20.91l-7.26-2.19c-3.8-1.15-7.59-2.29-11.38-3.45a1.58,1.58,0,0,0-1,.05l-18,5.5-.29.07V19.4c0-.39.35-.34.57-.41q7.35-2.28,14.69-4.53c1.06-.33,2.12-.64,3.18-1a1.59,1.59,0,0,1,1,0q8.77,2.73,17.56,5.4c.7.21,1,.49.88,1.2A5.61,5.61,0,0,0,77.42,20.91Z"/><path class="cls-12" d="M58.39,46.21c-6.8,0-13.6,0-20.39,0-.77,0-.65-.38-.65-.83s-.07-.79.63-.78q20.43,0,40.86,0c.59,0,.67.19.65.7,0,.89,0,.89-.9.89Z"/><path class="cls-12" d="M58.46,43.48c-6.1,0-12.2,0-18.3,0-.53,0-.65-.14-.63-.65,0-.94,0-.94.93-.94H76.72c.23,0,.61-.18.67.18a3.29,3.29,0,0,1,0,1.29c0,.21-.39.09-.59.09Z"/><path class="cls-12" d="M58.46,21.93c6.1,0,12.2,0,18.3,0,.56,0,.74.14.67.68s.16.91-.67.91q-18.27,0-36.54,0c-.52,0-.73-.09-.7-.67,0-.9,0-.9.9-.9Z"/><path class="cls-12" d="M73.85,20.82a17.16,17.16,0,0,1-8.09-1c-2.24-.79-4.54-1.4-6.8-2.1a1.62,1.62,0,0,0-1,0c-3.31,1-6.64,2-9.95,3a5,5,0,0,1-1.54.23c-1.2,0-2.4,0-3.62-.11l4.7-1.45q5.25-1.59,10.5-3.2a1.35,1.35,0,0,1,.82,0l14.61,4.52A2.66,2.66,0,0,1,73.85,20.82Z"/><path class="cls-12" d="M44.39,32.4v7.21c0,1-.38,1.44-1.25,1.46s-1.37-.45-1.37-1.43q0-7.3,0-14.62c0-.45.1-.62.57-.59s.46.11.45.46c0,.81,0,1.61,0,2.42V39.38a2.25,2.25,0,0,0,0,.26c0,.21-.07.49.25.51s.34-.26.34-.51c0-1.64,0-3.28,0-4.92q0-4.81,0-9.64c0-.34-.09-.66.5-.66s.54.32.54.7C44.39,27.55,44.39,30,44.39,32.4Z"/><path class="cls-12" d="M49.77,32.36c0-2.45,0-4.9,0-7.34,0-.38,0-.64.51-.58.26,0,.34.12.33.36s0,.22,0,.32q0,7.65,0,15.29c0,.24.22.62-.34.67s-.54-.29-.57-.64L49,32.92a1.53,1.53,0,0,0-.15.9v6.69c0,.33,0,.58-.46.58s-.39-.28-.39-.56V25c0-.27-.08-.55.39-.55s.49.22.52.56q.41,3.68.82,7.35Z"/><path class="cls-12" d="M61.63,37.39c.26-1.77-.42-3.68-1-5.59a19.87,19.87,0,0,1-.48-6.24c0-.72.6-1.15,1.42-1.11a1.07,1.07,0,0,1,1.13,1.16c0,1.13,0,2.27,0,3.41,0,.47-.27.39-.54.39s-.55,0-.53-.41c0-1,0-2,0-3,0-.23.12-.62-.26-.61s-.19.37-.21.59a20.45,20.45,0,0,0,1.17,8.09c.63,2,.32,4,.33,6,0,.67-.59,1.06-1.35,1A1.1,1.1,0,0,1,60.1,40c0-1.31,0-2.63,0-3.94,0-.45.31-.31.54-.33s.52-.06.51.37c0,1.07,0,2.14,0,3.21a4.51,4.51,0,0,0,0,.52c0,.16.05.34.24.34s.23-.18.23-.35Z"/><path class="cls-12" d="M66.31,32.72c0-2.3,0-4.59,0-6.89,0-.89.44-1.36,1.23-1.38a1.23,1.23,0,0,1,1.39,1.24c0,1.11,0,2.23,0,3.35,0,.49-.31.35-.56.37s-.5,0-.48-.39c0-1,0-2.09,0-3.14,0-.25,0-.54-.33-.54s-.33.28-.33.53V39.58c0,.28,0,.58.38.56s.28-.33.28-.57c0-1.11,0-2.23,0-3.34,0-.42.09-.55.53-.56s.52.2.51.59c0,1.13,0,2.27,0,3.41a1.23,1.23,0,0,1-1.35,1.4c-.84,0-1.26-.46-1.27-1.4C66.3,37.36,66.31,35,66.31,32.72Z"/><path class="cls-12" d="M54.28,32.71c0-2.51,0-5,0-7.54,0-.63.2-.8.77-.73a4.71,4.71,0,0,0,.92,0c.33,0,.57,0,.56.46s-.23.46-.54.42-.55.08-.54.52c0,1.8,0,3.59,0,5.38,0,.43.12.6.54.53s.54,0,.54.48-.19.52-.54.46-.55.1-.54.53c0,2.12,0,4.24,0,6.36,0,.5.11.67.61.6a1.42,1.42,0,0,1,.71,0c.24.1.08.39.11.59s-.16.27-.35.27c-.57,0-1.14,0-1.7,0s-.54-.15-.54-.56C54.29,37.92,54.28,35.31,54.28,32.71Z"/><path class="cls-13" d="M75.23,25.75A1.16,1.16,0,0,0,74,24.45c-1,0-1.45.47-1.45,1.51V39.59c0,1,.45,1.48,1.34,1.48s1.39-.49,1.39-1.49c0-2.27,0-4.54,0-6.82S75.24,28.09,75.23,25.75Zm-1.34,14.4c-.41,0-.36-.35-.36-.64V26c0-.23-.06-.54.26-.6.48-.08.44.29.44.6v6.82q0,3.38,0,6.75C74.22,39.78,74.33,40.16,73.89,40.15Z"/><path class="cls-13" d="M45.7,55.89h.6v2.59a3.16,3.16,0,0,1-.16,1.08,1.32,1.32,0,0,1-.55.65,2,2,0,0,1-1.05.25,2.19,2.19,0,0,1-1-.22,1.31,1.31,0,0,1-.58-.63,3.12,3.12,0,0,1-.17-1.13V55.89h.6v2.59a2.6,2.6,0,0,0,.1.86.84.84,0,0,0,.38.43,1.28,1.28,0,0,0,.65.15,1.22,1.22,0,0,0,.93-.3,1.69,1.69,0,0,0,.28-1.14Z"/><path class="cls-13" d="M47.11,60.38V57.12h.49v.47a1.18,1.18,0,0,1,1-.54,1.33,1.33,0,0,1,.54.11.83.83,0,0,1,.37.27,1.08,1.08,0,0,1,.17.41,3.22,3.22,0,0,1,0,.54v2H49.2v-2a1.64,1.64,0,0,0-.06-.51.53.53,0,0,0-.23-.26.71.71,0,0,0-.39-.1.87.87,0,0,0-.6.22,1.1,1.1,0,0,0-.26.85v1.78Z"/><path class="cls-13" d="M50.5,56.52v-.63h.55v.63Zm0,3.86V57.12h.55v3.26Z"/><path class="cls-13" d="M53,59.89l.07.48a1.58,1.58,0,0,1-.41.05,1,1,0,0,1-.47-.09.55.55,0,0,1-.23-.25,1.84,1.84,0,0,1-.07-.65V57.55h-.4v-.43h.4v-.8l.55-.33v1.13H53v.43h-.56v1.91a.92.92,0,0,0,0,.3.24.24,0,0,0,.09.11.49.49,0,0,0,.19,0Z"/><path class="cls-13" d="M55.65,59.33l.57.07a1.45,1.45,0,0,1-.5.78,1.55,1.55,0,0,1-.93.27A1.48,1.48,0,0,1,53.65,60a1.7,1.7,0,0,1-.42-1.23,1.83,1.83,0,0,1,.43-1.28,1.43,1.43,0,0,1,1.09-.45,1.4,1.4,0,0,1,1.07.44,1.78,1.78,0,0,1,.42,1.26s0,.08,0,.14H53.8a1.25,1.25,0,0,0,.31.82.91.91,0,0,0,.68.29.85.85,0,0,0,.52-.16A1.17,1.17,0,0,0,55.65,59.33Zm-1.82-.89h1.82a1.06,1.06,0,0,0-.21-.62.84.84,0,0,0-.68-.32.88.88,0,0,0-.64.26A1,1,0,0,0,53.83,58.44Z"/><path class="cls-13" d="M58.91,60.38V60a1,1,0,0,1-.91.48,1.28,1.28,0,0,1-.71-.21,1.37,1.37,0,0,1-.51-.6,2.08,2.08,0,0,1-.18-.89,2.3,2.3,0,0,1,.17-.88,1.28,1.28,0,0,1,.48-.61,1.32,1.32,0,0,1,.73-.21,1.08,1.08,0,0,1,.52.12,1.23,1.23,0,0,1,.38.33V55.89h.55v4.49Zm-1.74-1.63a1.46,1.46,0,0,0,.26.94.8.8,0,0,0,.63.31.77.77,0,0,0,.61-.3,1.33,1.33,0,0,0,.25-.9,1.55,1.55,0,0,0-.25-1,.81.81,0,0,0-.64-.31.76.76,0,0,0-.61.3A1.43,1.43,0,0,0,57.17,58.75Z"/><path class="cls-13" d="M61.89,60.38V55.89h.61l2.36,3.52V55.89h.57v4.49h-.61l-2.36-3.53v3.53Z"/><path class="cls-13" d="M68.38,60a2.46,2.46,0,0,1-.59.37,1.77,1.77,0,0,1-.61.1,1.18,1.18,0,0,1-.83-.26.87.87,0,0,1-.29-.67.88.88,0,0,1,.4-.75,1.32,1.32,0,0,1,.4-.18,3.7,3.7,0,0,1,.49-.09,4.43,4.43,0,0,0,1-.19v-.14a.64.64,0,0,0-.15-.48,1,1,0,0,0-.63-.18,1,1,0,0,0-.58.13.88.88,0,0,0-.27.49l-.54-.08a1.44,1.44,0,0,1,.24-.56,1,1,0,0,1,.49-.32,2.09,2.09,0,0,1,.74-.12,1.88,1.88,0,0,1,.68.1.84.84,0,0,1,.38.25.79.79,0,0,1,.17.37,2.81,2.81,0,0,1,0,.51V59a9.18,9.18,0,0,0,0,1,1.53,1.53,0,0,0,.14.39h-.57A1,1,0,0,1,68.38,60Zm0-1.23a3.82,3.82,0,0,1-.9.2,2.48,2.48,0,0,0-.48.11.58.58,0,0,0-.22.18.5.5,0,0,0-.08.27.46.46,0,0,0,.17.36.7.7,0,0,0,.49.15,1.2,1.2,0,0,0,.57-.14.88.88,0,0,0,.36-.38,1.34,1.34,0,0,0,.09-.55Z"/><path class="cls-13" d="M70.84,59.89l.08.48a1.6,1.6,0,0,1-.42.05,1,1,0,0,1-.46-.09.55.55,0,0,1-.23-.25,1.84,1.84,0,0,1-.07-.65V57.55h-.41v-.43h.41v-.8l.55-.33v1.13h.55v.43h-.55v1.91a.92.92,0,0,0,0,.3.19.19,0,0,0,.09.11.45.45,0,0,0,.19,0Z"/><path class="cls-13" d="M71.28,56.52v-.63h.55v.63Zm0,3.86V57.12h.55v3.26Z"/><path class="cls-13" d="M72.36,58.75a1.67,1.67,0,0,1,.5-1.34,1.51,1.51,0,0,1,1-.36,1.47,1.47,0,0,1,1.1.44,1.69,1.69,0,0,1,.43,1.22,2.21,2.21,0,0,1-.19,1,1.35,1.35,0,0,1-.55.56,1.52,1.52,0,0,1-.79.2,1.43,1.43,0,0,1-1.1-.44A1.74,1.74,0,0,1,72.36,58.75Zm.56,0a1.35,1.35,0,0,0,.28.94.86.86,0,0,0,.68.31.91.91,0,0,0,.69-.31,1.45,1.45,0,0,0,.27-1,1.31,1.31,0,0,0-.28-.91.9.9,0,0,0-1.36,0A1.31,1.31,0,0,0,72.92,58.75Z"/><path class="cls-13" d="M76,60.38V57.12h.49v.47a1.18,1.18,0,0,1,1-.54,1.33,1.33,0,0,1,.54.11.89.89,0,0,1,.37.27,1.08,1.08,0,0,1,.17.41,3.22,3.22,0,0,1,0,.54v2H78v-2a1.64,1.64,0,0,0-.06-.51.53.53,0,0,0-.23-.26.71.71,0,0,0-.39-.1.9.9,0,0,0-.61.22,1.11,1.11,0,0,0-.25.85v1.78Z"/><path class="cls-13" d="M79.11,59.41l.55-.09a.73.73,0,0,0,.25.5.89.89,0,0,0,.59.18.81.81,0,0,0,.56-.16.44.44,0,0,0,.19-.36.34.34,0,0,0-.17-.29,2.36,2.36,0,0,0-.56-.19,4.59,4.59,0,0,1-.84-.27.77.77,0,0,1-.36-.3A.86.86,0,0,1,79.2,58a.88.88,0,0,1,.1-.4.91.91,0,0,1,.27-.31,1,1,0,0,1,.35-.16,1.51,1.51,0,0,1,.48-.07,1.92,1.92,0,0,1,.67.11.83.83,0,0,1,.43.3,1.14,1.14,0,0,1,.19.5l-.54.08a.54.54,0,0,0-.21-.39.75.75,0,0,0-.5-.15.93.93,0,0,0-.54.13.35.35,0,0,0-.16.29.34.34,0,0,0,.06.2.46.46,0,0,0,.21.14l.49.15a6.14,6.14,0,0,1,.82.25.86.86,0,0,1,.36.29.81.81,0,0,1,.13.47.89.89,0,0,1-.16.52,1,1,0,0,1-.46.38,1.67,1.67,0,0,1-.69.13,1.53,1.53,0,0,1-1-.26A1.24,1.24,0,0,1,79.11,59.41Z"/><path class="cls-13" d="M11.69,66.83V62.34h3.25v.53H12.29v1.37h2.48v.53H12.29V66.3h2.76v.53Z"/><path class="cls-13" d="M17.8,66.83v-.41a1,1,0,0,1-.91.49,1.27,1.27,0,0,1-.71-.22,1.37,1.37,0,0,1-.51-.6,2.07,2.07,0,0,1-.18-.88,2.31,2.31,0,0,1,.16-.89,1.35,1.35,0,0,1,.49-.61,1.32,1.32,0,0,1,.73-.21,1,1,0,0,1,.52.13,1,1,0,0,1,.37.32V62.34h.55v4.49Zm-1.74-1.62a1.43,1.43,0,0,0,.26.93.79.79,0,0,0,.62.31.81.81,0,0,0,.62-.29,1.37,1.37,0,0,0,.25-.91,1.55,1.55,0,0,0-.26-1,.79.79,0,0,0-1.25,0A1.52,1.52,0,0,0,16.06,65.21Z"/><path class="cls-13" d="M21.21,66.83v-.48a1.21,1.21,0,0,1-1,.56,1.18,1.18,0,0,1-.53-.12.83.83,0,0,1-.37-.27,1,1,0,0,1-.17-.41,2.21,2.21,0,0,1,0-.52v-2h.55v1.8a3.22,3.22,0,0,0,0,.58.59.59,0,0,0,.22.35.7.7,0,0,0,.42.12.84.84,0,0,0,.46-.13.68.68,0,0,0,.31-.34,1.78,1.78,0,0,0,.09-.64V63.58h.55v3.25Z"/><path class="cls-13" d="M24.58,65.64l.55.07a1.45,1.45,0,0,1-.46.88,1.32,1.32,0,0,1-.9.32,1.4,1.4,0,0,1-1.07-.44,1.78,1.78,0,0,1-.41-1.25,2.24,2.24,0,0,1,.18-.93A1.18,1.18,0,0,1,23,63.7a1.55,1.55,0,0,1,.77-.2,1.33,1.33,0,0,1,.87.27,1.19,1.19,0,0,1,.43.76l-.53.09a.9.9,0,0,0-.27-.5A.71.71,0,0,0,23.8,64a.85.85,0,0,0-.68.3,1.35,1.35,0,0,0-.26.94,1.42,1.42,0,0,0,.25,1,.82.82,0,0,0,.65.3.76.76,0,0,0,.55-.2A1,1,0,0,0,24.58,65.64Z"/><path class="cls-13" d="M27.62,66.43a2.35,2.35,0,0,1-.59.37,1.78,1.78,0,0,1-.61.11,1.17,1.17,0,0,1-.83-.27A.86.86,0,0,1,25.3,66a.89.89,0,0,1,.11-.43.9.9,0,0,1,.29-.32,1.38,1.38,0,0,1,.39-.18,3.06,3.06,0,0,1,.5-.08,6,6,0,0,0,1-.19v-.15a.62.62,0,0,0-.15-.47.9.9,0,0,0-.63-.19.94.94,0,0,0-.58.14.85.85,0,0,0-.27.48l-.54-.08a1.33,1.33,0,0,1,.24-.55,1,1,0,0,1,.49-.33,2.09,2.09,0,0,1,.74-.12,2,2,0,0,1,.67.1.91.91,0,0,1,.39.25.84.84,0,0,1,.17.37,3,3,0,0,1,0,.51v.74a9.18,9.18,0,0,0,0,1,1.3,1.3,0,0,0,.14.39h-.57A1,1,0,0,1,27.62,66.43Zm-.05-1.23a4.29,4.29,0,0,1-.9.21,1.9,1.9,0,0,0-.48.11.48.48,0,0,0-.3.44.48.48,0,0,0,.17.37.75.75,0,0,0,.49.14,1.1,1.1,0,0,0,.57-.14.88.88,0,0,0,.36-.38,1.3,1.3,0,0,0,.09-.55Z"/><path class="cls-13" d="M30.08,66.34l.08.49a2.19,2.19,0,0,1-.42,0,1,1,0,0,1-.46-.09.58.58,0,0,1-.24-.25,2.19,2.19,0,0,1-.06-.65V64h-.41v-.43H29v-.81l.55-.33v1.14h.55V64h-.55v1.9a1.53,1.53,0,0,0,0,.3.27.27,0,0,0,.1.11.34.34,0,0,0,.19,0Z"/><path class="cls-13" d="M30.52,63v-.63h.55V63Zm0,3.86V63.58h.55v3.25Z"/><path class="cls-13" d="M31.6,65.2a1.67,1.67,0,0,1,.5-1.34,1.51,1.51,0,0,1,1-.36,1.47,1.47,0,0,1,1.1.44,1.71,1.71,0,0,1,.43,1.22,2.23,2.23,0,0,1-.19,1,1.41,1.41,0,0,1-.55.56,1.63,1.63,0,0,1-.79.2,1.47,1.47,0,0,1-1.1-.44A1.79,1.79,0,0,1,31.6,65.2Zm.56,0a1.35,1.35,0,0,0,.28.94.86.86,0,0,0,.68.31.88.88,0,0,0,.69-.31,1.44,1.44,0,0,0,.27-1,1.32,1.32,0,0,0-.28-.92.9.9,0,0,0-1.36,0A1.34,1.34,0,0,0,32.16,65.2Z"/><path class="cls-13" d="M35.19,66.83V63.58h.49V64a1.18,1.18,0,0,1,1-.54,1.37,1.37,0,0,1,.54.11.83.83,0,0,1,.37.28,1,1,0,0,1,.17.4,3.31,3.31,0,0,1,0,.54v2h-.55v-2a1.57,1.57,0,0,0-.06-.5.6.6,0,0,0-.23-.27.71.71,0,0,0-.39-.1,1,1,0,0,0-.61.22,1.12,1.12,0,0,0-.25.85v1.78Z"/><path class="cls-13" d="M40.69,66.43a2,2,0,0,1-.59.37,1.68,1.68,0,0,1-.6.11,1.17,1.17,0,0,1-.83-.27.86.86,0,0,1-.29-.67.89.89,0,0,1,.11-.43.82.82,0,0,1,.29-.32,1.27,1.27,0,0,1,.39-.18,3.1,3.1,0,0,1,.49-.08,6,6,0,0,0,1-.19v-.15a.62.62,0,0,0-.15-.47,1.2,1.2,0,0,0-1.21-.05.85.85,0,0,0-.27.48l-.54-.08a1.33,1.33,0,0,1,.24-.55,1,1,0,0,1,.49-.33A2.09,2.09,0,0,1,40,63.5a2.06,2.06,0,0,1,.67.1.91.91,0,0,1,.39.25.84.84,0,0,1,.17.37,3,3,0,0,1,0,.51v.74a9.18,9.18,0,0,0,0,1,1.3,1.3,0,0,0,.14.39h-.57A1.17,1.17,0,0,1,40.69,66.43Zm0-1.23a4.29,4.29,0,0,1-.9.21,1.9,1.9,0,0,0-.48.11A.48.48,0,0,0,39,66a.48.48,0,0,0,.17.37.75.75,0,0,0,.49.14,1.1,1.1,0,0,0,.57-.14.88.88,0,0,0,.36-.38,1.3,1.3,0,0,0,.09-.55Z"/><path class="cls-13" d="M41.94,66.83V62.34h.55v4.49Z"/><path class="cls-13" d="M43.39,66.83V66.2H44v.63a1.13,1.13,0,0,1-.13.56.81.81,0,0,1-.39.33l-.15-.24a.52.52,0,0,0,.26-.22,1.11,1.11,0,0,0,.09-.43Z"/><path class="cls-13" d="M46.39,65.39l.56,0a1.23,1.23,0,0,0,.18.55,1,1,0,0,0,.45.35,1.74,1.74,0,0,0,.69.14,1.66,1.66,0,0,0,.61-.11.79.79,0,0,0,.38-.27.63.63,0,0,0,.13-.39.61.61,0,0,0-.12-.37.94.94,0,0,0-.41-.26,6.78,6.78,0,0,0-.8-.22,3.87,3.87,0,0,1-.86-.28,1.11,1.11,0,0,1-.48-.42,1,1,0,0,1-.16-.56,1.14,1.14,0,0,1,.19-.64,1.33,1.33,0,0,1,.56-.45,2.23,2.23,0,0,1,.83-.15,2.19,2.19,0,0,1,.88.16,1.34,1.34,0,0,1,.59.48,1.38,1.38,0,0,1,.22.7l-.57,0A1,1,0,0,0,49,63a1.26,1.26,0,0,0-.79-.21,1.24,1.24,0,0,0-.78.19.58.58,0,0,0-.25.48.52.52,0,0,0,.18.4,2.4,2.4,0,0,0,.89.32,5.14,5.14,0,0,1,1,.29,1.43,1.43,0,0,1,.58.45,1.17,1.17,0,0,1,.18.64,1.28,1.28,0,0,1-.2.68,1.43,1.43,0,0,1-.59.49,2.05,2.05,0,0,1-.87.18,2.55,2.55,0,0,1-1-.18,1.49,1.49,0,0,1-.65-.53A1.51,1.51,0,0,1,46.39,65.39Z"/><path class="cls-13" d="M52.72,65.64l.55.07a1.45,1.45,0,0,1-.46.88,1.32,1.32,0,0,1-.9.32,1.4,1.4,0,0,1-1.07-.44,1.78,1.78,0,0,1-.41-1.25,2.41,2.41,0,0,1,.17-.93,1.24,1.24,0,0,1,.54-.59,1.55,1.55,0,0,1,.77-.2,1.33,1.33,0,0,1,.87.27,1.19,1.19,0,0,1,.43.76l-.53.09a.9.9,0,0,0-.27-.5.71.71,0,0,0-.48-.16.85.85,0,0,0-.67.3,1.35,1.35,0,0,0-.26.94,1.42,1.42,0,0,0,.25,1,.81.81,0,0,0,.65.3.76.76,0,0,0,.55-.2A1,1,0,0,0,52.72,65.64Z"/><path class="cls-13" d="M53.63,63v-.63h.56V63Zm0,3.86V63.58h.56v3.25Z"/><path class="cls-13" d="M57.15,65.78l.57.07a1.38,1.38,0,0,1-.5.78,1.55,1.55,0,0,1-.93.28,1.51,1.51,0,0,1-1.14-.44,1.74,1.74,0,0,1-.42-1.24A1.79,1.79,0,0,1,55.16,64a1.41,1.41,0,0,1,1.09-.46,1.37,1.37,0,0,1,1.07.45,1.73,1.73,0,0,1,.42,1.25s0,.08,0,.14H55.3a1.34,1.34,0,0,0,.31.83.9.9,0,0,0,.68.28.85.85,0,0,0,.52-.16A1.06,1.06,0,0,0,57.15,65.78Zm-1.81-.89h1.81a1,1,0,0,0-.21-.61.81.81,0,0,0-.68-.32.87.87,0,0,0-.64.25A1,1,0,0,0,55.34,64.89Z"/><path class="cls-13" d="M58.3,66.83V63.58h.5V64a1.17,1.17,0,0,1,1-.54,1.41,1.41,0,0,1,.54.11.89.89,0,0,1,.37.28,1,1,0,0,1,.17.4,3.31,3.31,0,0,1,0,.54v2H60.4v-2a1.29,1.29,0,0,0-.07-.5.54.54,0,0,0-.23-.27.67.67,0,0,0-.38-.1.93.93,0,0,0-.61.22,1.12,1.12,0,0,0-.26.85v1.78Z"/><path class="cls-13" d="M62.89,66.34l.08.49a2.1,2.1,0,0,1-.41,0,1,1,0,0,1-.47-.09.5.5,0,0,1-.23-.25,1.81,1.81,0,0,1-.07-.65V64h-.41v-.43h.41v-.81l.55-.33v1.14h.55V64h-.55v1.9a.88.88,0,0,0,0,.3.24.24,0,0,0,.09.11.36.36,0,0,0,.19,0Z"/><path class="cls-13" d="M63.33,63v-.63h.55V63Zm0,3.86V63.58h.55v3.25Z"/><path class="cls-13" d="M64.74,66.83V64h-.48v-.43h.48v-.35a1.5,1.5,0,0,1,.06-.49.8.8,0,0,1,.28-.35,1.14,1.14,0,0,1,.57-.13,2.5,2.5,0,0,1,.51.06l-.08.48-.33,0a.49.49,0,0,0-.35.1.61.61,0,0,0-.11.41v.3h.64V64h-.64v2.82Z"/><path class="cls-13" d="M66.25,63v-.63h.56V63Zm0,3.86V63.58h.56v3.25Z"/><path class="cls-13" d="M69.66,65.64l.55.07a1.45,1.45,0,0,1-.46.88,1.32,1.32,0,0,1-.9.32,1.4,1.4,0,0,1-1.07-.44,1.78,1.78,0,0,1-.41-1.25,2.41,2.41,0,0,1,.17-.93,1.24,1.24,0,0,1,.54-.59,1.55,1.55,0,0,1,.77-.2,1.33,1.33,0,0,1,.87.27,1.19,1.19,0,0,1,.43.76l-.53.09a.9.9,0,0,0-.27-.5.71.71,0,0,0-.48-.16.85.85,0,0,0-.67.3,1.35,1.35,0,0,0-.26.94,1.42,1.42,0,0,0,.25,1,.81.81,0,0,0,.65.3.76.76,0,0,0,.55-.2A1,1,0,0,0,69.66,65.64Z"/><path class="cls-13" d="M74.33,66.43a2,2,0,0,1-.59.37,1.74,1.74,0,0,1-.61.11,1.16,1.16,0,0,1-.82-.27A.86.86,0,0,1,72,66a.89.89,0,0,1,.11-.43.82.82,0,0,1,.29-.32,1.17,1.17,0,0,1,.39-.18A2.91,2.91,0,0,1,73.3,65a6,6,0,0,0,1-.19v-.15a.58.58,0,0,0-.16-.47A.9.9,0,0,0,73.5,64a.91.91,0,0,0-.57.14.79.79,0,0,0-.27.48l-.54-.08a1.33,1.33,0,0,1,.24-.55.93.93,0,0,1,.49-.33,2,2,0,0,1,.73-.12,2.08,2.08,0,0,1,.68.1.77.77,0,0,1,.56.62,3.27,3.27,0,0,1,0,.51v.74a8.2,8.2,0,0,0,0,1,1.07,1.07,0,0,0,.14.39h-.58A1.45,1.45,0,0,1,74.33,66.43Zm0-1.23a4.29,4.29,0,0,1-.9.21,2.13,2.13,0,0,0-.49.11.46.46,0,0,0-.21.18.45.45,0,0,0-.08.26.48.48,0,0,0,.17.37.75.75,0,0,0,.49.14,1,1,0,0,0,.56-.14A.85.85,0,0,0,74.2,66a1.3,1.3,0,0,0,.09-.55Z"/><path class="cls-13" d="M75.59,66.83V63.58h.5V64a1.17,1.17,0,0,1,1-.54,1.41,1.41,0,0,1,.54.11.89.89,0,0,1,.37.28,1.21,1.21,0,0,1,.17.4,3.31,3.31,0,0,1,0,.54v2h-.55v-2a1.52,1.52,0,0,0-.07-.5.54.54,0,0,0-.23-.27A.67.67,0,0,0,77,64a.93.93,0,0,0-.61.22,1.12,1.12,0,0,0-.26.85v1.78Z"/><path class="cls-13" d="M81.09,66.83v-.41a1,1,0,0,1-.91.49,1.33,1.33,0,0,1-.72-.22,1.42,1.42,0,0,1-.5-.6,2.07,2.07,0,0,1-.18-.88,2.31,2.31,0,0,1,.16-.89,1.35,1.35,0,0,1,.49-.61,1.29,1.29,0,0,1,.72-.21,1,1,0,0,1,.53.13,1,1,0,0,1,.37.32V62.34h.55v4.49Zm-1.74-1.62a1.38,1.38,0,0,0,.26.93.77.77,0,0,0,.62.31.81.81,0,0,0,.62-.29,1.43,1.43,0,0,0,.25-.91,1.55,1.55,0,0,0-.26-1,.79.79,0,0,0-1.25,0A1.52,1.52,0,0,0,79.35,65.21Z"/><path class="cls-13" d="M28.91,71.71l.6.15A2,2,0,0,1,28.83,73a1.88,1.88,0,0,1-1.19.38,2.13,2.13,0,0,1-1.18-.3,1.84,1.84,0,0,1-.69-.85A3.07,3.07,0,0,1,25.53,71a2.64,2.64,0,0,1,.27-1.22,1.89,1.89,0,0,1,.76-.8,2.26,2.26,0,0,1,1.09-.27,1.86,1.86,0,0,1,1.14.35,1.82,1.82,0,0,1,.64,1l-.59.14a1.33,1.33,0,0,0-.45-.71,1.22,1.22,0,0,0-.75-.23,1.48,1.48,0,0,0-.86.25,1.27,1.27,0,0,0-.49.67,2.5,2.5,0,0,0-.14.86,2.76,2.76,0,0,0,.16,1,1.24,1.24,0,0,0,.52.64,1.49,1.49,0,0,0,.77.21,1.23,1.23,0,0,0,.84-.29A1.44,1.44,0,0,0,28.91,71.71Z"/><path class="cls-13" d="M32.19,73.28v-.47a1.19,1.19,0,0,1-1,.55,1.41,1.41,0,0,1-.54-.11,1,1,0,0,1-.37-.28,1,1,0,0,1-.17-.41,3.13,3.13,0,0,1,0-.51V70h.55v1.8a3.71,3.71,0,0,0,0,.59.62.62,0,0,0,.22.34.74.74,0,0,0,.42.12,1,1,0,0,0,.47-.12.8.8,0,0,0,.31-.35,1.78,1.78,0,0,0,.09-.64V70h.55v3.25Z"/><path class="cls-13" d="M33.43,73.28V68.79H34v4.49Z"/><path class="cls-13" d="M35.94,72.79l.08.49a2.37,2.37,0,0,1-.42,0,.91.91,0,0,1-.47-.1A.51.51,0,0,1,34.9,73a2.08,2.08,0,0,1-.07-.65V70.46h-.4V70h.4v-.81l.55-.33V70h.56v.43h-.56v1.9a.88.88,0,0,0,0,.3.18.18,0,0,0,.1.11.32.32,0,0,0,.19,0Z"/><path class="cls-13" d="M38.5,73.28v-.47a1.19,1.19,0,0,1-1,.55,1.41,1.41,0,0,1-.54-.11,1,1,0,0,1-.37-.28,1,1,0,0,1-.17-.41,3.13,3.13,0,0,1,0-.51V70h.55v1.8a3.71,3.71,0,0,0,0,.59.62.62,0,0,0,.22.34.74.74,0,0,0,.42.12,1,1,0,0,0,.47-.12.8.8,0,0,0,.31-.35,1.78,1.78,0,0,0,.09-.64V70H39v3.25Z"/><path class="cls-13" d="M39.75,73.28V70h.5v.49a1.18,1.18,0,0,1,.35-.45A.55.55,0,0,1,41,70a1.06,1.06,0,0,1,.57.18l-.19.51a.79.79,0,0,0-.41-.11.51.51,0,0,0-.32.1.62.62,0,0,0-.21.31,2.15,2.15,0,0,0-.09.64v1.7Z"/><path class="cls-13" d="M43.86,72.88a1.85,1.85,0,0,1-.59.37,1.73,1.73,0,0,1-.6.11,1.21,1.21,0,0,1-.83-.26.88.88,0,0,1-.29-.67.93.93,0,0,1,.11-.44.89.89,0,0,1,.29-.32,1.27,1.27,0,0,1,.39-.18,3.1,3.1,0,0,1,.49-.08,6,6,0,0,0,1-.19v-.15a.58.58,0,0,0-.16-.47.89.89,0,0,0-.62-.19,1,1,0,0,0-.58.14.85.85,0,0,0-.27.48L41.65,71a1.38,1.38,0,0,1,.24-.56,1.06,1.06,0,0,1,.49-.33,2.09,2.09,0,0,1,.74-.12,2.06,2.06,0,0,1,.67.1,1,1,0,0,1,.39.25.83.83,0,0,1,.17.38,2.75,2.75,0,0,1,0,.5v.74a9,9,0,0,0,0,1,1.07,1.07,0,0,0,.14.39H44A1.36,1.36,0,0,1,43.86,72.88Zm0-1.23a4.29,4.29,0,0,1-.9.21,1.9,1.9,0,0,0-.48.11.44.44,0,0,0-.22.18.47.47,0,0,0-.08.26.48.48,0,0,0,.17.37.7.7,0,0,0,.49.15,1.13,1.13,0,0,0,.56-.14.87.87,0,0,0,.37-.39,1.27,1.27,0,0,0,.09-.55Z"/><path class="cls-13" d="M45.11,73.28V68.79h.55v4.49Z"/><path class="cls-13" d="M47.94,71.1a2.47,2.47,0,0,1,.6-1.76,2,2,0,0,1,1.55-.63,2.11,2.11,0,0,1,1.12.3,1.85,1.85,0,0,1,.76.83,2.59,2.59,0,0,1,.27,1.2A2.72,2.72,0,0,1,52,72.27a1.8,1.8,0,0,1-.78.81,2.19,2.19,0,0,1-1.09.28A2.1,2.1,0,0,1,49,73.05a1.94,1.94,0,0,1-.75-.83A2.45,2.45,0,0,1,47.94,71.1Zm.61,0A1.79,1.79,0,0,0,49,72.38a1.41,1.41,0,0,0,1.09.47,1.46,1.46,0,0,0,1.11-.47A1.91,1.91,0,0,0,51.62,71a2.35,2.35,0,0,0-.18-1,1.52,1.52,0,0,0-.54-.63,1.54,1.54,0,0,0-1.89.21A1.9,1.9,0,0,0,48.55,71.1Z"/><path class="cls-13" d="M52.82,73.28V70h.5v.49a1.18,1.18,0,0,1,.35-.45A.55.55,0,0,1,54,70a1.06,1.06,0,0,1,.57.18l-.19.51a.79.79,0,0,0-.41-.11.51.51,0,0,0-.32.1.62.62,0,0,0-.21.31,2.15,2.15,0,0,0-.09.64v1.7Z"/><path class="cls-13" d="M54.71,73.55l.53.08a.57.57,0,0,0,.19.37,1,1,0,0,0,.56.15,1,1,0,0,0,.59-.15.81.81,0,0,0,.29-.43,3.64,3.64,0,0,0,0-.71,1.15,1.15,0,0,1-.9.42,1.22,1.22,0,0,1-1-.48,1.83,1.83,0,0,1-.37-1.16,2,2,0,0,1,.17-.86,1.3,1.3,0,0,1,.49-.61A1.33,1.33,0,0,1,56,70a1.18,1.18,0,0,1,1,.47V70h.51v2.81a2.53,2.53,0,0,1-.16,1.08,1.08,1.08,0,0,1-.49.5,1.71,1.71,0,0,1-.82.19,1.55,1.55,0,0,1-1-.27A.89.89,0,0,1,54.71,73.55Zm.46-2a1.38,1.38,0,0,0,.25.93.8.8,0,0,0,.64.3.83.83,0,0,0,.64-.3,1.73,1.73,0,0,0,0-1.81.81.81,0,0,0-.64-.31.8.8,0,0,0-.63.3A1.35,1.35,0,0,0,55.17,71.6Z"/><path class="cls-13" d="M60.32,72.88a2,2,0,0,1-.59.37,1.74,1.74,0,0,1-.61.11,1.19,1.19,0,0,1-.82-.26.85.85,0,0,1-.29-.67.82.82,0,0,1,.11-.44.87.87,0,0,1,.28-.32,1.32,1.32,0,0,1,.4-.18,2.91,2.91,0,0,1,.49-.08,6,6,0,0,0,1-.19c0-.08,0-.13,0-.15a.62.62,0,0,0-.16-.47.9.9,0,0,0-.63-.19,1,1,0,0,0-.57.14.8.8,0,0,0-.28.48L58.1,71a1.38,1.38,0,0,1,.24-.56,1.18,1.18,0,0,1,.49-.33,2.09,2.09,0,0,1,.74-.12,2.12,2.12,0,0,1,.68.1.93.93,0,0,1,.38.25.83.83,0,0,1,.17.38,2.75,2.75,0,0,1,0,.5v.74a6.31,6.31,0,0,0,0,1,1.07,1.07,0,0,0,.14.39h-.58A1.11,1.11,0,0,1,60.32,72.88Zm0-1.23a4.29,4.29,0,0,1-.9.21,1.9,1.9,0,0,0-.48.11.49.49,0,0,0-.22.18.46.46,0,0,0-.07.26.47.47,0,0,0,.16.37.72.72,0,0,0,.49.15,1.2,1.2,0,0,0,.57-.14.85.85,0,0,0,.36-.39,1.27,1.27,0,0,0,.09-.55Z"/><path class="cls-13" d="M61.58,73.28V70h.5v.46a1.15,1.15,0,0,1,1-.54,1.33,1.33,0,0,1,.54.11.78.78,0,0,1,.37.28,1,1,0,0,1,.17.41,3.16,3.16,0,0,1,0,.53v2h-.55v-2a1.57,1.57,0,0,0-.06-.5.54.54,0,0,0-.23-.27.8.8,0,0,0-.38-.1.89.89,0,0,0-.61.23,1.1,1.1,0,0,0-.26.85v1.77Z"/><path class="cls-13" d="M65,69.42v-.63h.55v.63Zm0,3.86V70h.55v3.25Z"/><path class="cls-13" d="M66,73.28v-.44L68,70.46l-.62,0H66.08V70h2.66v.36L67,72.46l-.34.38.7,0h1.5v.47Z"/><path class="cls-13" d="M71.41,72.88a2,2,0,0,1-.59.37,1.74,1.74,0,0,1-.61.11,1.19,1.19,0,0,1-.82-.26.85.85,0,0,1-.29-.67.82.82,0,0,1,.11-.44.87.87,0,0,1,.28-.32,1.32,1.32,0,0,1,.4-.18,2.91,2.91,0,0,1,.49-.08,6,6,0,0,0,1-.19c0-.08,0-.13,0-.15a.62.62,0,0,0-.16-.47.9.9,0,0,0-.63-.19,1,1,0,0,0-.57.14.8.8,0,0,0-.28.48L69.19,71a1.38,1.38,0,0,1,.24-.56,1.18,1.18,0,0,1,.49-.33,2.09,2.09,0,0,1,.74-.12,2.12,2.12,0,0,1,.68.1.93.93,0,0,1,.38.25.83.83,0,0,1,.17.38,2.75,2.75,0,0,1,0,.5v.74a6.31,6.31,0,0,0,0,1,1.28,1.28,0,0,0,.13.39h-.57A.94.94,0,0,1,71.41,72.88Zm0-1.23a4.29,4.29,0,0,1-.9.21A1.9,1.9,0,0,0,70,72a.49.49,0,0,0-.22.18.46.46,0,0,0-.07.26.47.47,0,0,0,.16.37.72.72,0,0,0,.49.15,1.2,1.2,0,0,0,.57-.14.85.85,0,0,0,.36-.39,1.27,1.27,0,0,0,.09-.55Z"/><path class="cls-13" d="M73.87,72.79l.08.49a2.17,2.17,0,0,1-.41,0,.89.89,0,0,1-.47-.1.47.47,0,0,1-.23-.25,1.81,1.81,0,0,1-.07-.65V70.46h-.41V70h.41v-.81l.55-.33V70h.55v.43h-.55v1.9a.88.88,0,0,0,0,.3.2.2,0,0,0,.09.11.36.36,0,0,0,.19,0Z"/><path class="cls-13" d="M74.31,69.42v-.63h.55v.63Zm0,3.86V70h.55v3.25Z"/><path class="cls-13" d="M75.39,71.66a1.68,1.68,0,0,1,.5-1.34,1.52,1.52,0,0,1,1-.37,1.47,1.47,0,0,1,1.1.44,1.67,1.67,0,0,1,.43,1.22,2.1,2.1,0,0,1-.19,1,1.35,1.35,0,0,1-.55.56,1.63,1.63,0,0,1-.79.2,1.47,1.47,0,0,1-1.1-.44A1.74,1.74,0,0,1,75.39,71.66Zm.57,0a1.38,1.38,0,0,0,.27.93.91.91,0,0,0,1.37,0,1.44,1.44,0,0,0,.27-1,1.38,1.38,0,0,0-.27-.92.91.91,0,0,0-.69-.31.86.86,0,0,0-.68.31A1.41,1.41,0,0,0,76,71.66Z"/><path class="cls-13" d="M79,73.28V70h.5v.46a1.15,1.15,0,0,1,1-.54,1.33,1.33,0,0,1,.54.11.78.78,0,0,1,.37.28,1,1,0,0,1,.17.41,3.16,3.16,0,0,1,0,.53v2h-.55v-2a1.57,1.57,0,0,0-.06-.5.6.6,0,0,0-.23-.27.81.81,0,0,0-.39-.1.88.88,0,0,0-.6.23,1.1,1.1,0,0,0-.26.85v1.77Z"/><path class="cls-14" d="M110,27.18a3.53,3.53,0,0,0,0-.46c-.06-.37.1-.47.46-.47,1.32,0,2.63,0,3.94,0h8.71c.41.85.19,1.24-.76,1.25-2.23,0-4.46,0-6.69,0-.22,0-.43,0-.65,0-.54,0-.74.21-.73.74,0,1.53,0,3,0,4.58,0,.24,0,.49,0,.73-.06.76-.36,1-1.07.68a.81.81,0,0,1-.3-.13c0-2.14,0-4.27,0-6.41-.23-.34-.59-.33-.94-.33A5.7,5.7,0,0,1,110,27.18Z"/><path class="cls-15" d="M121.33,33.22a1,1,0,0,0,.8-1.1c0-1,0-1.92,0-2.88,0-.16-.11-.47.18-.46s.7-.29.87.23a.79.79,0,0,1,.16.61c0,.81,0,1.62,0,2.42a2.3,2.3,0,0,1-3.6,2,.75.75,0,0,0-.88.06,2.12,2.12,0,0,1-2.78-.39,3,3,0,0,1-.54-1.75c0-.87,0-1.74,0-2.6,0-.51.12-.72.64-.63a1.69,1.69,0,0,0,.32,0c.53,1,.26,2,.31,3.08a1.47,1.47,0,0,0,.49,1.23.66.66,0,0,0,.77.15,1.05,1.05,0,0,0,.79-1.13c0-.78,0-1.57,0-2.35,0-1,0-1,1-1a1.1,1.1,0,0,1,.21.86c0,.81,0,1.61,0,2.42A1.16,1.16,0,0,0,121.33,33.22Z"/><path class="cls-14" d="M127,34.25c-.23,0-.4-.1-.39-.4,0-1,0-1.92,0-2.87.17-2.08,1.83-2.92,3.76-1.94.92.44,1,1.3,1.1,2.15.06.7,0,1.4,0,2.1,0,1.1-.2,1.23-1.24.85,0-1,0-2,0-2.92a1.14,1.14,0,0,0-.13-.75,1.85,1.85,0,0,0-.4-.34,1.14,1.14,0,0,0-1.89.95c0,.89,0,1.78,0,2.67C127.76,34.37,127.55,34.48,127,34.25Z"/><path class="cls-15" d="M96.77,33.78A3,3,0,0,1,96,31.51c0-.67,0-1.35,0-2s.19-.93,1-.61a1.22,1.22,0,0,1,.17.81c0,.55,0,1.09,0,1.63a2.14,2.14,0,0,0,.84,1.94A1.27,1.27,0,0,0,99.66,32c0-.85,0-1.7,0-2.54,0-.59.15-.79.71-.69a1.77,1.77,0,0,0,.32,0,.38.38,0,0,1,.17.28,10.17,10.17,0,0,1-.16,3.77A2.36,2.36,0,0,1,96.77,33.78Z"/><path class="cls-14" d="M105.46,34.12c0-.78,0-1.56,0-2.34a4.14,4.14,0,0,0-.19-1.44c-1.39-1-2.37-.28-2.28,1.27a20.62,20.62,0,0,1,0,2.08c0,.33,0,.73-.52.65s-.69-.14-.66-.68c.07-1,0-2,.05-3.06.34-1.46,1-2,2.77-2a1.78,1.78,0,0,1,1.4.68,2.9,2.9,0,0,1,.64,1.81c0,.74,0,1.48,0,2.23C106.67,34.31,106.4,34.47,105.46,34.12Z"/><path class="cls-16" d="M112.93,34.12l.45.07c.56.13.69-.12.69-.66,0-1.89,0-3.79,0-5.69,0-.46.14-.59.59-.59,2.53,0,5.06,0,7.59,0,1,0,1,0,.92-1,.63.08.56.54.55,1s-.38.43-.71.46c-2.39.27-4.79.06-7.19.12-1,0-1,.06-1,1.06,0,1.53,0,3.06,0,4.59,0,.5.15,1.07-.57,1.28S113.26,34.51,112.93,34.12Z"/><path class="cls-17" d="M116.07,33.73a2.86,2.86,0,0,0,2.08.53c.5-.09.83-.69,1.21-.63s.72.52,1.18.62a2.11,2.11,0,0,0,2.61-2.17c0-.81,0-1.61,0-2.42,0-.22,0-.44,0-.65.35-.13.5,0,.51.36,0,1.42,0,2.84,0,4.25,0,.52-1,1.28-1.7,1.3a2.38,2.38,0,0,1-1.74-.34c-.36-.29-.71,0-1,.1a2.66,2.66,0,0,1-3-.47A.58.58,0,0,1,116.07,33.73Z"/><path class="cls-18" d="M124.36,34.12c0-1.63,0-3.26,0-4.89,0-.16-.11-.47.19-.45s.7-.29.86.23a1.3,1.3,0,0,1,.19.88c0,1.16,0,2.32,0,3.47S125.36,34.6,124.36,34.12Z"/><path class="cls-19" d="M108.71,28.76c.77.31.83.94.81,1.65q-.06,1.61,0,3.21c0,.58-.11,1.07-.68,1.27s-.82-.33-1.11-.69a.56.56,0,0,1-.07-.18,3.53,3.53,0,0,1,0-2.52c0-.72,0-1.43,0-2.14,0-.2-.09-.44.14-.59a1.17,1.17,0,0,1,.19.87c0,1.18,0,2.36,0,3.54,0,.25-.1.69.3.66s.2-.42.2-.66c0-1.18,0-2.36,0-3.54A1.24,1.24,0,0,1,108.71,28.76Z"/><path class="cls-20" d="M96.77,33.78a3,3,0,0,0,1.71.51,2.13,2.13,0,0,0,2.11-1.8,22,22,0,0,0,.09-3.72.86.86,0,0,1,.57.92c0,.93,0,1.86,0,2.79A2.37,2.37,0,0,1,98,34.84,1.59,1.59,0,0,1,96.77,33.78Z"/><path class="cls-21" d="M101.87,30.6c0,1,0,2.09,0,3.14,0,.48.27.43.58.47s.39-.2.39-.48c0-.94,0-1.88,0-2.81a1.22,1.22,0,0,1,1-1.24,1.16,1.16,0,0,1,1.46.66c-.41.11-.88-.31-1.28.16a1.67,1.67,0,0,0-.41,1.06A13.72,13.72,0,0,1,103.5,34a.77.77,0,0,1-.8.7,1,1,0,0,1-.9-.7A12,12,0,0,1,101.87,30.6Z"/><path class="cls-22" d="M108.71,28.76c0,1.66,0,3.31,0,5,0,.29,0,.52-.4.48s-.58,0-.57-.48c0-1.65,0-3.31,0-5Z"/><path class="cls-23" d="M127,34.25c.5,0,.71-.15.67-.71-.06-.87,0-1.75,0-2.62a1.26,1.26,0,0,1,1-1.26,1.2,1.2,0,0,1,1.44.81c-1.2-.36-1.82.11-1.83,1.38,0,.72,0,1.45,0,2.16a.71.71,0,0,1-.65.77C127.26,34.8,126.94,34.72,127,34.25Z"/><path class="cls-24" d="M130.25,34.14c.19,0,.39,0,.58.06s.42-.09.42-.4c0-1,0-1.95,0-2.93a2.66,2.66,0,0,0-.86-1.83,1.31,1.31,0,0,1,1.17.81,3.15,3.15,0,0,1,.55,1.91c-.06.67,0,1.35,0,2,0,.34,0,.73-.36.82s-.86.23-1.21-.2Z"/><path class="cls-25" d="M124.36,34.12l.44.08c.45.09.61-.05.6-.54,0-1.55,0-3.1,0-4.65.48,0,.64.29.64.72,0,1.44,0,2.88,0,4.31a.71.71,0,0,1-.47.78.77.77,0,0,1-.87-.26C124.58,34.42,124.47,34.26,124.36,34.12Z"/><path class="cls-26" d="M107.66,31.5V34c-.28.16-.36.48-.55.71a.64.64,0,0,1-.8.24c-.31-.14-.7-.17-.62-.66.16-.23.31,0,.45,0,.46.15.68,0,.69-.49a26,26,0,0,0,0-2.93,2,2,0,0,0-1-1.62,3.37,3.37,0,0,0-1.19-.65,2.2,2.2,0,0,1,2.52,1.93A1.48,1.48,0,0,0,107.66,31.5Z"/><path class="cls-27" d="M121.33,33.22a1.07,1.07,0,0,1-1.46-1.12c0-1.11,0-2.22,0-3.33.68.28.75.88.78,1.5s0,1.39,0,2.08C120.67,32.8,120.8,33.17,121.33,33.22Z"/><path class="cls-28" d="M105.83,29.28A1.75,1.75,0,0,1,107,31c0,1,0,1.92,0,2.88,0,.26,0,.55-.26.68a.65.65,0,0,1-.83-.15s-.16,0-.24-.06-.23,0-.23-.19c1,.17,1,.17,1-.83,0-.63,0-1.26,0-1.89A3.24,3.24,0,0,0,105.83,29.28Z"/><path class="cls-29" d="M118,33.22a1.07,1.07,0,0,1-1.49-1.08c0-.87,0-1.74,0-2.61,0-.26-.05-.52-.07-.77,1.18.7.72,1.85.74,2.85,0,.36,0,.72.07,1.08S117.64,33.25,118,33.22Z"/><path class="cls-30" d="M98.07,33.26a1.23,1.23,0,0,1-1-1.32c0-1,0-2,0-3.06.5.14.64.49.65,1a10.71,10.71,0,0,0,.1,2.59C97.89,32.73,98,33,98.07,33.26Z"/><path class="cls-31" d="M125.35,26.28a.7.7,0,0,1,.82.72.69.69,0,0,1-.53.8c-.42.1-.89.1-1-.49A1,1,0,0,0,125.35,26.28Z"/><path class="cls-32" d="M110,27.18c.81,0,1.63.05,2.45.05.36,0,.55.09.42.48-.38,0-.78,0-1.16,0A2.34,2.34,0,0,1,110,27.18Z"/><path class="cls-33" d="M108.71,26.27a.7.7,0,0,1,.79.68.74.74,0,0,1-.51.81c-.51.21-.82,0-1-.46A.94.94,0,0,0,108.71,26.27Z"/><path class="cls-34" d="M108.71,26.27c.31.81.1,1.09-.77,1-.26-.27-.41-.58-.16-.93S108.38,26.09,108.71,26.27Z"/><path class="cls-35" d="M125.35,26.28c.3.78.1,1.06-.75,1-.29-.27-.47-.59-.18-1A.64.64,0,0,1,125.35,26.28Z"/><path class="cls-36" d="M131.13,36.26a.85.85,0,0,0-1.13.49,18.1,18.1,0,0,1-3.68,5.76c-.16.16-.27.37-.48,0a5.84,5.84,0,0,0-2.28-2c-.41-.2-.33-.38-.12-.68a25.19,25.19,0,0,0,1.85-3.17c.06-.13.26-.29,0-.43a1.16,1.16,0,0,0-1.23.38,25.33,25.33,0,0,1-1.65,2.75.63.63,0,0,1-.86.3,21.48,21.48,0,0,0-6.12-1c-.33,0-.66,0-1,0s-.53-.15-.5-.54,0-.92,0-1.37-.06-.6-.52-.59-.58.12-.56.55,0,1.05,0,1.58c0,.33-.11.44-.44.47-.83.08-1.65.15-2.46.31-.47.1-.57-.08-.64-.46-.12-.68-.29-1.36-.42-2s-.58-.41-.92-.38-.21.35-.18.56c.07.45.18.9.27,1.34s.36.91.25,1.26-.78.38-1.17.59l-.12.05c-.25.09-.29.22-.19.5.21.6.55.62,1,.35s.81-.34,1,.39a15.43,15.43,0,0,0,2,4.55c1.54,2.3.92,2.21,3.6,1.24a18,18,0,0,0,7.6-5.52c.14-.16.22-.44.56-.26a6,6,0,0,1,2.17,1.76.59.59,0,0,1-.14,1,17.77,17.77,0,0,1-4,2.44,16.57,16.57,0,0,1-6.24,1.31c-.58,0-.45.35-.49.69s.16.43.5.42a19,19,0,0,0,5.08-.82,17.84,17.84,0,0,0,10.15-8.31,15.79,15.79,0,0,0,1.46-3.08C131.21,36.56,131.4,36.38,131.13,36.26Zm-18.87,9.62a22,22,0,0,1-2.4-5.29c-.09-.26.07-.31.25-.34l2.32-.33c.22,0,.38,0,.37.31A45.61,45.61,0,0,1,112.26,45.88Zm1.08.48c.15-1.3.29-2.52.41-3.75.08-.78.11-1.57.16-2.35,0-.3.11-.48.47-.47a23.74,23.74,0,0,1,7,1A18.44,18.44,0,0,1,113.34,46.36Z"/><path class="cls-36" d="M114,22.16c0-.25.14-.55-.38-.56a18.2,18.2,0,0,1-3.12-.29C109,21,109,21,109.32,19.52a15.85,15.85,0,0,1,2.87-6.15c-.61.1-1,.15-1.47.23A18.89,18.89,0,0,0,98.85,21a20.47,20.47,0,0,0-2.65,4.66c0,.14-.24.31,0,.44a1,1,0,0,0,1.19-.43A20.74,20.74,0,0,1,99.56,22a14.25,14.25,0,0,1,1.8-2.08,22.66,22.66,0,0,0-1.58,5.7c0,.23-.25.58.24.54.31,0,.76.26.84-.39a18.85,18.85,0,0,1,1.06-4.18,13.49,13.49,0,0,1,1.47-3,5.2,5.2,0,0,0,2.89,2.66c1.18.44,1.75,1,1.4,2.28-.09.32,0,.58.45.58s.67-.08.62-.57c0-.23.09-.48.08-.71,0-.55.19-.6.67-.49a24.51,24.51,0,0,0,4.09.46C114.08,22.74,114,22.43,114,22.16Zm-6-1.9c0,.21-.1.45-.42.32a5.73,5.73,0,0,1-3.15-2.4c-.27-.48-.26-.8.27-1.12a18.16,18.16,0,0,1,5.1-2.12A18.59,18.59,0,0,0,108,20.26Z"/><path class="cls-13" d="M98.79,55.89h.59v2.59a3.18,3.18,0,0,1-.15,1.08,1.32,1.32,0,0,1-.55.65,2,2,0,0,1-1.05.25,2.19,2.19,0,0,1-1-.22,1.31,1.31,0,0,1-.58-.63,3.12,3.12,0,0,1-.17-1.13V55.89h.6v2.59a2.6,2.6,0,0,0,.1.86.84.84,0,0,0,.38.43,1.28,1.28,0,0,0,.65.15,1.22,1.22,0,0,0,.93-.3,1.69,1.69,0,0,0,.28-1.14Z"/><path class="cls-13" d="M100.24,60.38V55.89h.61l2.36,3.52V55.89h.57v4.49h-.61l-2.36-3.53v3.53Z"/><path class="cls-13" d="M104.66,60.38V55.89h3.25v.53h-2.66v1.37h2.49v.53h-2.49v1.53H108v.53Z"/><path class="cls-13" d="M108.5,58.94l.56,0a1.37,1.37,0,0,0,.18.55,1.06,1.06,0,0,0,.46.35,1.67,1.67,0,0,0,.69.13,1.64,1.64,0,0,0,.6-.1.89.89,0,0,0,.39-.28.64.64,0,0,0,.12-.38.61.61,0,0,0-.12-.37,1,1,0,0,0-.4-.26,6,6,0,0,0-.8-.22,4.41,4.41,0,0,1-.87-.28,1.26,1.26,0,0,1-.48-.42,1,1,0,0,1-.16-.56,1.14,1.14,0,0,1,.19-.64,1.18,1.18,0,0,1,.57-.45,2.14,2.14,0,0,1,.82-.15,2.16,2.16,0,0,1,.88.16,1.33,1.33,0,0,1,.59.47,1.35,1.35,0,0,1,.22.71l-.57,0a.91.91,0,0,0-.31-.64,1.25,1.25,0,0,0-.78-.22,1.27,1.27,0,0,0-.79.2.61.61,0,0,0-.25.48.52.52,0,0,0,.18.4,2.4,2.4,0,0,0,.89.32,6.26,6.26,0,0,1,1,.28,1.45,1.45,0,0,1,.58.46,1.17,1.17,0,0,1,.19.64,1.23,1.23,0,0,1-.21.68,1.37,1.37,0,0,1-.59.49,2,2,0,0,1-.87.18,2.59,2.59,0,0,1-1-.18,1.41,1.41,0,0,1-.64-.54A1.46,1.46,0,0,1,108.5,58.94Z"/><path class="cls-13" d="M116,58.8l.6.15a2,2,0,0,1-.68,1.12,1.82,1.82,0,0,1-1.18.39,2.14,2.14,0,0,1-1.19-.3,1.87,1.87,0,0,1-.69-.86,3,3,0,0,1-.24-1.2,2.65,2.65,0,0,1,.27-1.23,1.89,1.89,0,0,1,.77-.79,2.23,2.23,0,0,1,1.09-.27,1.83,1.83,0,0,1,1.13.34,1.76,1.76,0,0,1,.64,1l-.58.14a1.43,1.43,0,0,0-.46-.72,1.21,1.21,0,0,0-.75-.22,1.41,1.41,0,0,0-.86.25,1.26,1.26,0,0,0-.49.66,2.56,2.56,0,0,0-.14.87,2.8,2.8,0,0,0,.16,1,1.34,1.34,0,0,0,.52.64,1.49,1.49,0,0,0,.77.21,1.28,1.28,0,0,0,.84-.29A1.47,1.47,0,0,0,116,58.8Z"/><path class="cls-13" d="M117,58.19a2.45,2.45,0,0,1,.6-1.75,2,2,0,0,1,1.55-.63,2.22,2.22,0,0,1,1.12.29,2,2,0,0,1,.76.83,2.66,2.66,0,0,1,.27,1.21,2.71,2.71,0,0,1-.28,1.22,1.93,1.93,0,0,1-.78.82,2.3,2.3,0,0,1-1.09.28,2.19,2.19,0,0,1-1.14-.31,1.91,1.91,0,0,1-.75-.84A2.4,2.4,0,0,1,117,58.19Zm.61,0a1.81,1.81,0,0,0,.44,1.28,1.43,1.43,0,0,0,1.09.47,1.46,1.46,0,0,0,1.11-.47,1.93,1.93,0,0,0,.43-1.34,2.35,2.35,0,0,0-.18-1,1.5,1.5,0,0,0-.55-.64,1.44,1.44,0,0,0-.8-.22,1.49,1.49,0,0,0-1.08.43A1.91,1.91,0,0,0,117.59,58.2Z"/><path class="cls-13" d="M126.73,58.8l.59.15a2,2,0,0,1-.67,1.12,1.83,1.83,0,0,1-1.19.39,2.11,2.11,0,0,1-1.18-.3,1.87,1.87,0,0,1-.69-.86,3,3,0,0,1-.24-1.2,2.65,2.65,0,0,1,.27-1.23,1.87,1.87,0,0,1,.76-.79,2.26,2.26,0,0,1,1.09-.27,1.86,1.86,0,0,1,1.14.34,1.81,1.81,0,0,1,.64,1l-.59.14a1.36,1.36,0,0,0-.45-.72,1.21,1.21,0,0,0-.75-.22,1.44,1.44,0,0,0-.87.25,1.31,1.31,0,0,0-.49.66,2.83,2.83,0,0,0-.14.87,2.79,2.79,0,0,0,.17,1,1.23,1.23,0,0,0,.52.64,1.48,1.48,0,0,0,.76.21,1.29,1.29,0,0,0,.85-.29A1.47,1.47,0,0,0,126.73,58.8Z"/><path class="cls-13" d="M127.85,60.38V55.89h.56V57.5a1.21,1.21,0,0,1,1-.45,1.39,1.39,0,0,1,.63.14.86.86,0,0,1,.38.4,1.75,1.75,0,0,1,.11.73v2.06H130V58.32a.87.87,0,0,0-.18-.61.67.67,0,0,0-.5-.18.9.9,0,0,0-.46.12.7.7,0,0,0-.31.35,1.58,1.58,0,0,0-.09.6v1.78Z"/><path class="cls-13" d="M133.34,60a2.46,2.46,0,0,1-.59.37,1.74,1.74,0,0,1-.61.1,1.18,1.18,0,0,1-.83-.26.86.86,0,0,1-.28-.67,1,1,0,0,1,.1-.44,1,1,0,0,1,.29-.31,1.32,1.32,0,0,1,.4-.18,4.06,4.06,0,0,1,.49-.09,4.43,4.43,0,0,0,1-.19v-.14a.64.64,0,0,0-.15-.48,1,1,0,0,0-.63-.18,1,1,0,0,0-.58.13.88.88,0,0,0-.27.49l-.54-.08a1.44,1.44,0,0,1,.24-.56,1.08,1.08,0,0,1,.49-.32,2.09,2.09,0,0,1,.74-.12,1.88,1.88,0,0,1,.68.1.84.84,0,0,1,.38.25.79.79,0,0,1,.17.37,2.81,2.81,0,0,1,0,.51V59a9.18,9.18,0,0,0,0,1,1.53,1.53,0,0,0,.14.39h-.57A1,1,0,0,1,133.34,60Zm-.05-1.23a3.82,3.82,0,0,1-.9.2,2.48,2.48,0,0,0-.48.11.58.58,0,0,0-.22.18.5.5,0,0,0-.08.27.46.46,0,0,0,.17.36.72.72,0,0,0,.49.15,1.2,1.2,0,0,0,.57-.14.88.88,0,0,0,.36-.38,1.3,1.3,0,0,0,.09-.55Z"/><path class="cls-13" d="M134.58,56.52v-.63h.55v.63Zm0,3.86V57.12h.55v3.26Z"/><path class="cls-13" d="M135.83,60.38V57.12h.5v.5a1.23,1.23,0,0,1,.35-.46.61.61,0,0,1,.35-.11,1.06,1.06,0,0,1,.57.18l-.19.51a.81.81,0,0,0-.41-.12.52.52,0,0,0-.32.11.55.55,0,0,0-.21.3,2.22,2.22,0,0,0-.09.65v1.7Z"/><path class="cls-13" d="M139.54,60.38V57.55h-.49v-.43h.49v-.34a1.5,1.5,0,0,1,.06-.49.68.68,0,0,1,.28-.35,1,1,0,0,1,.56-.13,3.25,3.25,0,0,1,.51,0l-.08.49a1.87,1.87,0,0,0-.32,0,.5.5,0,0,0-.36.11.58.58,0,0,0-.1.4v.3h.63v.43h-.63v2.83Z"/><path class="cls-13" d="M140.81,58.75a1.67,1.67,0,0,1,.51-1.34,1.51,1.51,0,0,1,1-.36,1.48,1.48,0,0,1,1.1.44,1.69,1.69,0,0,1,.42,1.22,2.08,2.08,0,0,1-.19,1,1.27,1.27,0,0,1-.54.56,1.55,1.55,0,0,1-.79.2,1.45,1.45,0,0,1-1.11-.44A1.74,1.74,0,0,1,140.81,58.75Zm.57,0a1.41,1.41,0,0,0,.27.94.88.88,0,0,0,.69.31.86.86,0,0,0,.68-.31,1.39,1.39,0,0,0,.28-1,1.36,1.36,0,0,0-.28-.91.86.86,0,0,0-.68-.31.88.88,0,0,0-.69.31A1.38,1.38,0,0,0,141.38,58.75Z"/><path class="cls-13" d="M144.37,60.38V57.12h.5v.5a1.35,1.35,0,0,1,.35-.46.66.66,0,0,1,.35-.11,1.06,1.06,0,0,1,.57.18l-.19.51a.77.77,0,0,0-.4-.12.57.57,0,0,0-.33.11.59.59,0,0,0-.2.3,1.93,1.93,0,0,0-.1.65v1.7Z"/><path class="cls-13" d="M97.94,65.16v-.53h1.91v1.66a3.27,3.27,0,0,1-.91.53A2.62,2.62,0,0,1,98,67a2.57,2.57,0,0,1-1.21-.29,1.84,1.84,0,0,1-.81-.82,2.5,2.5,0,0,1-.28-1.2A2.7,2.7,0,0,1,96,63.47a1.85,1.85,0,0,1,.78-.85,2.54,2.54,0,0,1,1.19-.27,2.23,2.23,0,0,1,.88.16,1.37,1.37,0,0,1,.62.44,1.91,1.91,0,0,1,.34.73l-.54.15a1.51,1.51,0,0,0-.25-.54.94.94,0,0,0-.43-.31,1.52,1.52,0,0,0-.62-.12,1.86,1.86,0,0,0-.7.12,1.21,1.21,0,0,0-.48.33,1.37,1.37,0,0,0-.28.44,2.27,2.27,0,0,0-.18.91,2.15,2.15,0,0,0,.21,1,1.34,1.34,0,0,0,.6.6,1.92,1.92,0,0,0,.84.2,2,2,0,0,0,.76-.15,1.92,1.92,0,0,0,.56-.32v-.83Z"/><path class="cls-13" d="M102.75,65.87l.57.07a1.45,1.45,0,0,1-.5.78,1.51,1.51,0,0,1-.93.27,1.46,1.46,0,0,1-1.13-.44,1.7,1.7,0,0,1-.42-1.23,1.83,1.83,0,0,1,.42-1.28,1.55,1.55,0,0,1,2.17,0,1.82,1.82,0,0,1,.41,1.26v.14h-2.43a1.25,1.25,0,0,0,.3.82.91.91,0,0,0,.68.29.83.83,0,0,0,.52-.16A1.09,1.09,0,0,0,102.75,65.87ZM100.94,65h1.82a1.19,1.19,0,0,0-.21-.62.9.9,0,0,0-1.32-.06A1,1,0,0,0,100.94,65Z"/><path class="cls-13" d="M103.88,66.92V63.66h.5v.47a1.16,1.16,0,0,1,1-.54,1.42,1.42,0,0,1,.55.11,1,1,0,0,1,.37.27,1.26,1.26,0,0,1,.17.41,3.22,3.22,0,0,1,0,.54v2H106v-2a1.59,1.59,0,0,0-.07-.51.49.49,0,0,0-.23-.26.67.67,0,0,0-.38-.1.88.88,0,0,0-.61.22,1.1,1.1,0,0,0-.26.85v1.78Z"/><path class="cls-13" d="M109.35,66.92v-.41a1,1,0,0,1-.91.48,1.26,1.26,0,0,1-.71-.21,1.37,1.37,0,0,1-.51-.6,2.08,2.08,0,0,1-.18-.89,2.46,2.46,0,0,1,.16-.88,1.36,1.36,0,0,1,.49-.61,1.32,1.32,0,0,1,.73-.21,1.07,1.07,0,0,1,.9.45V62.43h.55v4.49Zm-1.74-1.63a1.46,1.46,0,0,0,.26.94.8.8,0,0,0,.63.31.77.77,0,0,0,.61-.3,1.33,1.33,0,0,0,.25-.9,1.54,1.54,0,0,0-.25-1,.81.81,0,0,0-.64-.31.76.76,0,0,0-.61.3A1.43,1.43,0,0,0,107.61,65.29Z"/><path class="cls-13" d="M112.83,65.87l.57.07a1.45,1.45,0,0,1-.5.78A1.51,1.51,0,0,1,112,67a1.44,1.44,0,0,1-1.13-.44,1.7,1.7,0,0,1-.42-1.23,1.83,1.83,0,0,1,.42-1.28,1.44,1.44,0,0,1,1.1-.45A1.39,1.39,0,0,1,113,64a1.78,1.78,0,0,1,.42,1.26.82.82,0,0,1,0,.14H111a1.25,1.25,0,0,0,.3.82.91.91,0,0,0,.68.29.83.83,0,0,0,.52-.16A1.09,1.09,0,0,0,112.83,65.87ZM111,65h1.82a1.19,1.19,0,0,0-.21-.62.87.87,0,0,0-.69-.32.9.9,0,0,0-.64.26A1,1,0,0,0,111,65Z"/><path class="cls-13" d="M114,66.92V63.66h.5v.5a1.35,1.35,0,0,1,.35-.46.66.66,0,0,1,.36-.11,1.05,1.05,0,0,1,.56.18l-.19.51a.77.77,0,0,0-.4-.12.57.57,0,0,0-.33.11.59.59,0,0,0-.2.3,2.2,2.2,0,0,0-.09.64v1.71Z"/><path class="cls-13" d="M117.61,66.92V62.43h3.25V63h-2.65v1.37h2.49v.53h-2.49v1.53H121v.53Z"/><path class="cls-13" d="M123.66,68.17v-1.6a.91.91,0,0,1-.36.3,1,1,0,0,1-.49.12,1.29,1.29,0,0,1-1-.46,1.82,1.82,0,0,1-.42-1.27,2.23,2.23,0,0,1,.17-.88,1.27,1.27,0,0,1,.5-.59,1.33,1.33,0,0,1,.71-.2,1.09,1.09,0,0,1,1,.51v-.44h.49v4.51ZM122,65.28a1.44,1.44,0,0,0,.26.94.82.82,0,0,0,.64.32.77.77,0,0,0,.6-.3,1.37,1.37,0,0,0,.26-.91,1.53,1.53,0,0,0-.27-1,.79.79,0,0,0-.63-.32.77.77,0,0,0-.61.3A1.46,1.46,0,0,0,122,65.28Z"/><path class="cls-13" d="M127.08,66.92v-.48a1.18,1.18,0,0,1-1,.55,1.24,1.24,0,0,1-.54-.11.78.78,0,0,1-.37-.28,1,1,0,0,1-.17-.4,2.93,2.93,0,0,1,0-.52v-2h.56v1.81a3.56,3.56,0,0,0,0,.58.54.54,0,0,0,.22.34.64.64,0,0,0,.42.13.84.84,0,0,0,.46-.13.66.66,0,0,0,.31-.35,1.68,1.68,0,0,0,.09-.63V63.66h.55v3.26Z"/><path class="cls-13" d="M130.43,66.52a2.28,2.28,0,0,1-.59.37,1.74,1.74,0,0,1-.61.1,1.14,1.14,0,0,1-.82-.26.87.87,0,0,1-.29-.67,1,1,0,0,1,.11-.44.93.93,0,0,1,.28-.31,1.32,1.32,0,0,1,.4-.18,4.06,4.06,0,0,1,.49-.09,4.3,4.3,0,0,0,1-.19,1,1,0,0,0,0-.14.6.6,0,0,0-.16-.48,1,1,0,0,0-.63-.18,1,1,0,0,0-.57.13.83.83,0,0,0-.28.49l-.54-.08a1.31,1.31,0,0,1,.25-.56,1,1,0,0,1,.48-.32,2.13,2.13,0,0,1,.74-.12,1.84,1.84,0,0,1,.68.1.84.84,0,0,1,.38.25.79.79,0,0,1,.17.37,2.81,2.81,0,0,1,0,.51v.74a6.39,6.39,0,0,0,0,1,1.22,1.22,0,0,0,.14.39h-.58A1.24,1.24,0,0,1,130.43,66.52Zm-.05-1.23a3.82,3.82,0,0,1-.9.2,2.93,2.93,0,0,0-.48.11.65.65,0,0,0-.22.18.5.5,0,0,0-.07.27.45.45,0,0,0,.16.36.74.74,0,0,0,.49.15,1.15,1.15,0,0,0,.57-.14.85.85,0,0,0,.37-.38,1.56,1.56,0,0,0,.08-.55Z"/><path class="cls-13" d="M131.65,66.92V62.43h.56v4.49Z"/><path class="cls-13" d="M132.93,63.06v-.63h.55v.63Zm0,3.86V63.66h.55v3.26Z"/><path class="cls-13" d="M135.4,66.43l.08.48a1.7,1.7,0,0,1-.42,0,1,1,0,0,1-.47-.09.55.55,0,0,1-.23-.25,1.84,1.84,0,0,1-.07-.65V64.09h-.4v-.43h.4v-.8l.55-.33v1.13h.56v.43h-.56V66a.92.92,0,0,0,0,.3.26.26,0,0,0,.1.11.4.4,0,0,0,.18,0Z"/><path class="cls-13" d="M135.78,68.17l-.06-.52a1,1,0,0,0,.31,0,.64.64,0,0,0,.3-.06.58.58,0,0,0,.18-.17,3.17,3.17,0,0,0,.17-.41.55.55,0,0,1,0-.13l-1.24-3.27h.6l.67,1.89q.13.36.24.75a6.34,6.34,0,0,1,.23-.74l.69-1.9h.55L137.23,67a6.57,6.57,0,0,1-.3.74,1.15,1.15,0,0,1-.34.4.78.78,0,0,1-.46.13A1,1,0,0,1,135.78,68.17Z"/><path class="cls-13" d="M142.55,66.52a2.46,2.46,0,0,1-.59.37,1.74,1.74,0,0,1-.61.1,1.18,1.18,0,0,1-.83-.26.86.86,0,0,1-.28-.67,1,1,0,0,1,.1-.44,1,1,0,0,1,.29-.31,1.32,1.32,0,0,1,.4-.18,4.06,4.06,0,0,1,.49-.09,4.43,4.43,0,0,0,1-.19v-.14a.64.64,0,0,0-.15-.48,1,1,0,0,0-.63-.18,1,1,0,0,0-.58.13.88.88,0,0,0-.27.49l-.54-.08a1.44,1.44,0,0,1,.24-.56,1.08,1.08,0,0,1,.49-.32,2.09,2.09,0,0,1,.74-.12,1.88,1.88,0,0,1,.68.1.84.84,0,0,1,.38.25.79.79,0,0,1,.17.37,2.81,2.81,0,0,1,0,.51v.74a9.18,9.18,0,0,0,0,1,1.53,1.53,0,0,0,.14.39h-.57A1,1,0,0,1,142.55,66.52Zm-.05-1.23a3.82,3.82,0,0,1-.9.2,2.48,2.48,0,0,0-.48.11.48.48,0,0,0-.3.45.46.46,0,0,0,.17.36.72.72,0,0,0,.49.15,1.2,1.2,0,0,0,.57-.14.88.88,0,0,0,.36-.38,1.34,1.34,0,0,0,.09-.55Z"/><path class="cls-13" d="M143.78,66.92V63.66h.5v.47a1.17,1.17,0,0,1,1-.54,1.41,1.41,0,0,1,.54.11,1,1,0,0,1,.37.27,1.26,1.26,0,0,1,.17.41,3.22,3.22,0,0,1,0,.54v2h-.55v-2a1.59,1.59,0,0,0-.07-.51.49.49,0,0,0-.23-.26.67.67,0,0,0-.38-.1.88.88,0,0,0-.61.22,1.1,1.1,0,0,0-.26.85v1.78Z"/><path class="cls-13" d="M149.25,66.92v-.41a1,1,0,0,1-.91.48,1.28,1.28,0,0,1-.71-.21,1.37,1.37,0,0,1-.51-.6,2.08,2.08,0,0,1-.18-.89,2.26,2.26,0,0,1,.17-.88,1.28,1.28,0,0,1,.48-.61,1.32,1.32,0,0,1,.73-.21,1.08,1.08,0,0,1,.52.12,1.11,1.11,0,0,1,.38.33V62.43h.55v4.49Zm-1.74-1.63a1.46,1.46,0,0,0,.26.94.8.8,0,0,0,.63.31.77.77,0,0,0,.61-.3,1.33,1.33,0,0,0,.25-.9,1.54,1.54,0,0,0-.25-1,.81.81,0,0,0-.64-.31.76.76,0,0,0-.61.3A1.43,1.43,0,0,0,147.51,65.29Z"/><path class="cls-13" d="M153,66.92l-1.19-4.49h.61l.68,2.94c.07.31.14.62.19.92.11-.48.18-.76.2-.83l.86-3H155l.64,2.27a11.78,11.78,0,0,1,.35,1.59c.06-.28.13-.61.22-1l.71-2.88h.59l-1.23,4.49h-.57l-.95-3.42c-.08-.29-.12-.47-.14-.53,0,.2-.09.38-.13.53l-.95,3.42Z"/><path class="cls-13" d="M157.59,65.29a1.7,1.7,0,0,1,.5-1.34,1.52,1.52,0,0,1,1-.36,1.46,1.46,0,0,1,1.09.44,1.65,1.65,0,0,1,.43,1.22,2.08,2.08,0,0,1-.19,1,1.35,1.35,0,0,1-.55.56,1.51,1.51,0,0,1-.78.2,1.44,1.44,0,0,1-1.11-.44A1.74,1.74,0,0,1,157.59,65.29Zm.57,0a1.41,1.41,0,0,0,.27.94.86.86,0,0,0,.69.31.89.89,0,0,0,.68-.31,1.45,1.45,0,0,0,.27-1,1.35,1.35,0,0,0-.27-.91.91.91,0,0,0-1.37,0A1.36,1.36,0,0,0,158.16,65.29Z"/><path class="cls-13" d="M161.15,66.92V63.66h.5v.46a1.12,1.12,0,0,1,.4-.38,1.14,1.14,0,0,1,.58-.15,1.09,1.09,0,0,1,.6.15.8.8,0,0,1,.32.42,1.18,1.18,0,0,1,1-.57,1,1,0,0,1,.74.27,1.11,1.11,0,0,1,.26.82v2.24H165v-2a1.4,1.4,0,0,0-.06-.48.43.43,0,0,0-.19-.23.63.63,0,0,0-.33-.09.74.74,0,0,0-.57.23,1,1,0,0,0-.23.73v1.89h-.55V64.8a.93.93,0,0,0-.14-.55.51.51,0,0,0-.44-.18.82.82,0,0,0-.43.12.7.7,0,0,0-.29.36,2.33,2.33,0,0,0-.08.68v1.69Z"/><path class="cls-13" d="M168.48,65.87l.57.07a1.45,1.45,0,0,1-.5.78,1.51,1.51,0,0,1-.93.27,1.44,1.44,0,0,1-1.13-.44,1.7,1.7,0,0,1-.42-1.23,1.83,1.83,0,0,1,.42-1.28,1.44,1.44,0,0,1,1.1-.45,1.39,1.39,0,0,1,1.06.44,1.78,1.78,0,0,1,.42,1.26v.14h-2.43a1.25,1.25,0,0,0,.3.82.91.91,0,0,0,.68.29.83.83,0,0,0,.52-.16A1.09,1.09,0,0,0,168.48,65.87ZM166.67,65h1.82a1.19,1.19,0,0,0-.21-.62.87.87,0,0,0-.69-.32.9.9,0,0,0-.64.26A1,1,0,0,0,166.67,65Z"/><path class="cls-13" d="M169.61,66.92V63.66h.5v.47a1.16,1.16,0,0,1,1-.54,1.33,1.33,0,0,1,.54.11.83.83,0,0,1,.37.27,1.09,1.09,0,0,1,.18.41,3.22,3.22,0,0,1,0,.54v2h-.56v-2a1.64,1.64,0,0,0-.06-.51.49.49,0,0,0-.23-.26.7.7,0,0,0-.38-.1.88.88,0,0,0-.61.22,1.1,1.1,0,0,0-.26.85v1.78Z"/><path class="cls-13" d="M172.94,63v-.64h.59v.51a1.25,1.25,0,0,1-.1.59.79.79,0,0,1-.41.37l-.13-.22a.42.42,0,0,0,.24-.21.76.76,0,0,0,.09-.4Z"/><path class="cls-13" d="M173.9,66l.54-.09a.78.78,0,0,0,.26.5.89.89,0,0,0,.59.18.81.81,0,0,0,.56-.16A.47.47,0,0,0,176,66a.34.34,0,0,0-.17-.29,2.36,2.36,0,0,0-.56-.19,4.1,4.1,0,0,1-.84-.27.73.73,0,0,1-.36-.31.8.8,0,0,1-.12-.43.77.77,0,0,1,.1-.4.91.91,0,0,1,.27-.31,1,1,0,0,1,.35-.16,1.51,1.51,0,0,1,.48-.07,2,2,0,0,1,.67.11.83.83,0,0,1,.43.3,1.14,1.14,0,0,1,.19.5l-.54.08a.63.63,0,0,0-.21-.4.82.82,0,0,0-.5-.14.91.91,0,0,0-.54.13.36.36,0,0,0-.17.29.35.35,0,0,0,.07.2.46.46,0,0,0,.21.14l.49.15a6.14,6.14,0,0,1,.82.25.86.86,0,0,1,.36.29.79.79,0,0,1,.13.47.89.89,0,0,1-.16.52,1.09,1.09,0,0,1-.46.38,1.7,1.7,0,0,1-.69.13,1.6,1.6,0,0,1-1-.26A1.24,1.24,0,0,1,173.9,66Z"/><path class="cls-13" d="M95.85,73.46V69H99.1v.54H96.45v1.37h2.48v.53H96.45v1.53h2.76v.53Z"/><path class="cls-13" d="M99.83,73.46V70.2h.49v.46a1.07,1.07,0,0,1,.41-.38,1.11,1.11,0,0,1,.58-.15,1.05,1.05,0,0,1,.59.15.87.87,0,0,1,.33.42,1.15,1.15,0,0,1,1-.57,1,1,0,0,1,.75.27,1.15,1.15,0,0,1,.26.82v2.24h-.55v-2a1.79,1.79,0,0,0,0-.48.5.5,0,0,0-.2-.23.58.58,0,0,0-.33-.09.74.74,0,0,0-.57.23,1,1,0,0,0-.23.73v1.89h-.55V71.34a.93.93,0,0,0-.13-.55.53.53,0,0,0-.45-.18.85.85,0,0,0-.43.12.68.68,0,0,0-.28.36,2,2,0,0,0-.09.68v1.69Z"/><path class="cls-13" d="M104.92,74.71V70.2h.51v.43a1.3,1.3,0,0,1,.4-.38,1.13,1.13,0,0,1,.54-.12,1.33,1.33,0,0,1,.74.21,1.4,1.4,0,0,1,.48.61,2.36,2.36,0,0,1,0,1.76,1.35,1.35,0,0,1-1.24.82,1.1,1.1,0,0,1-.49-.11,1.07,1.07,0,0,1-.36-.3v1.59Zm.5-2.86a1.41,1.41,0,0,0,.26.93.77.77,0,0,0,.61.3.81.81,0,0,0,.63-.31,1.84,1.84,0,0,0,0-1.9.75.75,0,0,0-1.23,0A1.43,1.43,0,0,0,105.42,71.85Z"/><path class="cls-13" d="M108.08,71.83a1.7,1.7,0,0,1,.5-1.34,1.51,1.51,0,0,1,1-.36,1.47,1.47,0,0,1,1.1.44,1.64,1.64,0,0,1,.43,1.21,2.1,2.1,0,0,1-.19,1,1.35,1.35,0,0,1-.55.56,1.52,1.52,0,0,1-.79.2,1.43,1.43,0,0,1-1.1-.44A1.74,1.74,0,0,1,108.08,71.83Zm.57,0a1.41,1.41,0,0,0,.27.94.91.91,0,0,0,1.37,0,1.45,1.45,0,0,0,.27-1,1.34,1.34,0,0,0-.27-.91.88.88,0,0,0-.69-.31.86.86,0,0,0-.68.31A1.36,1.36,0,0,0,108.65,71.83Z"/><path class="cls-13" d="M112.24,73.46l-1-3.26h.57l.52,1.88.19.7s.06-.26.17-.67l.52-1.91h.56l.49,1.89.16.62.19-.62.56-1.89h.53l-1,3.26h-.58l-.52-1.95-.12-.56-.66,2.51Z"/><path class="cls-13" d="M118.27,72.41l.57.07a1.4,1.4,0,0,1-.5.78,1.51,1.51,0,0,1-.93.27,1.47,1.47,0,0,1-1.13-.44,1.7,1.7,0,0,1-.42-1.23,1.83,1.83,0,0,1,.42-1.28,1.45,1.45,0,0,1,1.1-.45,1.42,1.42,0,0,1,1.07.44,1.81,1.81,0,0,1,.41,1.25V72h-2.43a1.25,1.25,0,0,0,.3.82.93.93,0,0,0,.69.29.8.8,0,0,0,.51-.16A1,1,0,0,0,118.27,72.41Zm-1.81-.89h1.82a1,1,0,0,0-.21-.62.84.84,0,0,0-.68-.32.87.87,0,0,0-.64.26A1,1,0,0,0,116.46,71.52Z"/><path class="cls-13" d="M119.4,73.46V70.2h.49v.5a1.35,1.35,0,0,1,.36-.46.61.61,0,0,1,.35-.11,1.06,1.06,0,0,1,.57.18l-.19.51a.81.81,0,0,0-.41-.12.52.52,0,0,0-.32.11.55.55,0,0,0-.21.3,2.2,2.2,0,0,0-.09.64v1.71Z"/><path class="cls-13" d="M121.36,73.46V70.2h.5v.46a1,1,0,0,1,.4-.38,1.14,1.14,0,0,1,.58-.15,1.11,1.11,0,0,1,.6.15.8.8,0,0,1,.32.42,1.18,1.18,0,0,1,1-.57,1,1,0,0,1,.74.27,1.11,1.11,0,0,1,.26.82v2.24h-.54v-2a1.4,1.4,0,0,0-.06-.48.43.43,0,0,0-.19-.23.63.63,0,0,0-.33-.09.74.74,0,0,0-.57.23,1,1,0,0,0-.23.73v1.89h-.55V71.34a.93.93,0,0,0-.14-.55.51.51,0,0,0-.44-.18.82.82,0,0,0-.43.12.7.7,0,0,0-.29.36,2,2,0,0,0-.08.68v1.69Z"/><path class="cls-13" d="M128.69,72.41l.57.07a1.45,1.45,0,0,1-.5.78,1.51,1.51,0,0,1-.93.27,1.44,1.44,0,0,1-1.13-.44,1.7,1.7,0,0,1-.42-1.23,1.83,1.83,0,0,1,.42-1.28,1.44,1.44,0,0,1,1.1-.45,1.39,1.39,0,0,1,1.06.44,1.77,1.77,0,0,1,.42,1.25.86.86,0,0,1,0,.15h-2.42a1.25,1.25,0,0,0,.3.82.91.91,0,0,0,.68.29.83.83,0,0,0,.52-.16A1.09,1.09,0,0,0,128.69,72.41Zm-1.81-.89h1.82a1.19,1.19,0,0,0-.21-.62.87.87,0,0,0-.69-.32.9.9,0,0,0-.64.26A1,1,0,0,0,126.88,71.52Z"/><path class="cls-13" d="M129.82,73.46V70.2h.5v.47a1.16,1.16,0,0,1,1-.54,1.19,1.19,0,0,1,.54.11.83.83,0,0,1,.37.27,1.09,1.09,0,0,1,.18.41,3.22,3.22,0,0,1,0,.54v2h-.56v-2a1.64,1.64,0,0,0-.06-.51.49.49,0,0,0-.23-.26.7.7,0,0,0-.38-.1.88.88,0,0,0-.61.22,1.1,1.1,0,0,0-.26.85v1.78Z"/><path class="cls-13" d="M134.38,73l.08.49a2.17,2.17,0,0,1-.41,0,1,1,0,0,1-.47-.09.55.55,0,0,1-.23-.25,1.84,1.84,0,0,1-.07-.65V70.63h-.4V70.2h.4v-.8l.55-.33V70.2h.55v.43h-.55v1.91a1,1,0,0,0,0,.3A.31.31,0,0,0,134,73a.49.49,0,0,0,.19,0Z"/></svg>